<?xml version="1.0" encoding="UTF-8"?>
<svg width="40px" height="12px" viewBox="0 0 40 12" version="1.1" xmlns="http://www.w3.org/2000/svg"
    xmlns:xlink="http://www.w3.org/1999/xlink">
    <title>Dolby Vision &amp; Atmos (Outline)</title>
    <g id="1.-Media" stroke="none" stroke-width="1" fill="none" fill-rule="evenodd">
        <g id="Dolby-Vision-&amp;-Atmos-(Outline)" fill="#000000" fill-rule="nonzero">
            <path
                d="M19.5521698,5 L21.0161438,0.772460938 L20.183197,0.772460938 L19.1367493,4.12722778 L19.0861664,4.12722778 L18.0397186,0.772460938 L17.2067719,0.772460938 L18.6707458,5 L19.5521698,5 Z M22.7392364,5 L22.7392364,0.772460938 L21.9855285,0.772460938 L21.9855285,5 L22.7392364,5 Z M25.4897208,5.10519409 C25.8276725,5.10519409 26.1203284,5.05062866 26.3676887,4.9414978 C26.6150489,4.83236694 26.8058143,4.67791748 26.9399848,4.47814941 C27.0741553,4.27838135 27.1412406,4.04171753 27.1412406,3.76815796 L27.1412406,3.76522827 C27.1412406,3.44509888 27.042028,3.19086456 26.8436027,3.00252533 C26.6451774,2.8141861 26.3230948,2.6733551 25.8773551,2.58003235 L25.4225211,2.4828949 C25.1595511,2.42784119 24.9702048,2.35181427 24.8544822,2.25481415 C24.7387595,2.15781403 24.6808982,2.03523254 24.6808982,1.8870697 L24.6808982,1.88414001 C24.6808982,1.76228333 24.7154441,1.65812683 24.7845359,1.57167053 C24.8536277,1.48521423 24.9484305,1.41851044 25.0689445,1.37155914 C25.1894584,1.32460785 25.3277183,1.3011322 25.4837241,1.3011322 C25.64504,1.29978943 25.7863288,1.32341766 25.9075904,1.37201691 C26.028852,1.42061615 26.1260123,1.486763 26.1990714,1.57045746 C26.2721305,1.65415192 26.3175101,1.75106812 26.3352103,1.86120605 L26.3410697,1.89746094 L27.0622764,1.89746094 L27.0593467,1.85923767 C27.0425925,1.63221741 26.9688544,1.42895508 26.8381324,1.24945068 C26.7074103,1.06994629 26.5277762,0.928039551 26.2992301,0.823730469 C26.070684,0.719421387 25.8006339,0.667266846 25.48908,0.667266846 C25.1844535,0.667266846 24.9144492,0.720214844 24.6790671,0.82611084 C24.4436851,0.932006836 24.2591453,1.07975006 24.1254478,1.26934052 C23.9917502,1.45893097 23.9242301,1.67956543 23.9228873,1.9312439 L23.9228873,1.93417358 C23.9228873,2.25009155 24.0213981,2.5089798 24.2184196,2.71083832 C24.415441,2.91269684 24.7305045,3.05926514 25.16361,3.15054321 L25.618444,3.2456665 C25.8915153,3.30331421 26.0872474,3.38075256 26.2056403,3.47798157 C26.3240333,3.57521057 26.3832297,3.69996643 26.3832297,3.85224915 L26.3832297,3.85517883 C26.3832297,3.97547913 26.3461356,4.0821228 26.2719474,4.17510986 C26.1977592,4.26809692 26.0955482,4.3407135 25.9653144,4.39295959 C25.8350806,4.44520569 25.6847739,4.47132874 25.5143943,4.47132874 C25.3359885,4.47132874 25.1774039,4.44672394 25.0386405,4.39751434 C24.8998771,4.34830475 24.7894721,4.2796936 24.7074256,4.19168091 C24.6253791,4.10366821 24.5781302,4.00048828 24.5656791,3.88214111 L24.5627494,3.85270691 L23.8285422,3.85270691 L23.8314719,3.89326477 C23.8504844,4.13539124 23.9293571,4.3473053 24.06809,4.52900696 C24.2068229,4.71070862 24.3968101,4.85216522 24.6380515,4.95337677 C24.879293,5.05458832 25.1631827,5.10519409 25.4897208,5.10519409 Z M28.9851663,5 L28.9851663,0.772460938 L28.2314584,0.772460938 L28.2314584,5 L28.9851663,5 Z M32.0909669,5.10519409 C32.502588,5.10519409 32.8579042,5.01467896 33.1569154,4.83364868 C33.4559267,4.65261841 33.6861589,4.39627075 33.8476121,4.06460571 C34.0090654,3.73294067 34.089792,3.34063721 34.089792,2.88769531 L34.089792,2.88183594 C34.089792,2.42819214 34.0087297,2.03553009 33.8466051,1.70384979 C33.6844804,1.37216949 33.4539125,1.1164856 33.1549013,0.936798096 C32.85589,0.757110596 32.5012453,0.667266846 32.0909669,0.667266846 C31.6826417,0.667266846 31.3288209,0.757110596 31.0295045,0.936798096 C30.7301881,1.1164856 30.4989793,1.3718338 30.3358781,1.70284271 C30.1727769,2.03385162 30.0912263,2.42684937 30.0912263,2.88183594 L30.0912263,2.88769531 C30.0912263,3.34063721 30.171953,3.73327637 30.3334062,4.06561279 C30.4948595,4.39794922 30.7249162,4.65429688 31.0235765,4.83465576 C31.3222368,5.01501465 31.6780336,5.10519409 32.0909669,5.10519409 Z M32.0909669,4.45187378 C31.8369691,4.45187378 31.6179979,4.38738251 31.4340532,4.25839996 C31.2501085,4.12941742 31.1085069,3.94759369 31.0092485,3.71292877 C30.9099901,3.47826385 30.8603609,3.20318604 30.8603609,2.88769531 L30.8603609,2.88183594 C30.8603609,2.56365967 30.9109972,2.28772736 31.0122697,2.054039 C31.1135423,1.82035065 31.2561433,1.63968658 31.4400728,1.51204681 C31.6240022,1.38440704 31.8409669,1.32058716 32.0909669,1.32058716 C32.3423097,1.32058716 32.5599535,1.38440704 32.7438982,1.51204681 C32.9278429,1.63968658 33.0699556,1.82035065 33.1702363,2.054039 C33.2705171,2.28772736 33.3206575,2.56365967 33.3206575,2.88183594 L33.3206575,2.88769531 C33.3206575,3.20318604 33.2705171,3.47826385 33.1702363,3.71292877 C33.0699556,3.94759369 32.9278429,4.12941742 32.7438982,4.25839996 C32.5599535,4.38738251 32.3423097,4.45187378 32.0909669,4.45187378 Z M35.8514132,0.772460938 L35.1958499,0.772460938 L35.1958499,5 L35.9232821,5 L35.9232821,2.08532715 L35.97,2.086 L38.0498233,5 L38.7025943,5 L38.7025943,0.772460938 L37.975162,0.772460938 L37.975162,3.68493652 L37.928,3.685 L35.8514132,0.772460938 Z M18.708786,6.77246094 L17.2067719,11 L17.9989319,11 L18.351,9.907 L19.916,9.907 L20.2685699,11 L21.0606842,11 L19.55867,6.77246094 L19.1590424,6.77246094 L18.708786,6.77246094 Z M19.159,7.559 L19.728,9.324 L18.539,9.324 L19.1084595,7.55802917 L19.159,7.559 Z M23.363955,11 L23.363955,7.40847778 L24.6668878,7.40847778 L24.6668878,6.77246094 L21.3073144,6.77246094 L21.3073144,7.40847778 L22.6102471,7.40847778 L22.6102471,11 L23.363955,11 Z M27.3647637,11.1051941 C27.7763848,11.1051941 28.131701,11.014679 28.4307122,10.8336487 C28.7297235,10.6526184 28.9599557,10.3962708 29.1214089,10.0646057 C29.2828622,9.73294067 29.3635888,9.34063721 29.3635888,8.88769531 L29.3635888,8.88183594 C29.3635888,8.42819214 29.2825265,8.03553009 29.1204019,7.70384979 C28.9582772,7.37216949 28.7277093,7.1164856 28.4286981,6.9367981 C28.1296868,6.7571106 27.7750421,6.66726685 27.3647637,6.66726685 C26.9564385,6.66726685 26.6026177,6.7571106 26.3033013,6.9367981 C26.0039849,7.1164856 25.7727761,7.3718338 25.6096749,7.70284271 C25.4465737,8.03385162 25.3650231,8.42684937 25.3650231,8.88183594 L25.3650231,8.88769531 C25.3650231,9.34063721 25.4457498,9.73327637 25.607203,10.0656128 C25.7686563,10.3979492 25.998713,10.6542969 26.2973733,10.8346558 C26.5960336,11.0150146 26.9518304,11.1051941 27.3647637,11.1051941 Z M27.3647637,10.4518738 C27.1107659,10.4518738 26.8917947,10.3873825 26.70785,10.2584 C26.5239053,10.1294174 26.3823037,9.94759369 26.2830453,9.71292877 C26.1837869,9.47826385 26.1341577,9.20318604 26.1341577,8.88769531 L26.1341577,8.88183594 C26.1341577,8.56365967 26.1847939,8.28772736 26.2860665,8.054039 C26.3873391,7.82035065 26.5299401,7.63968658 26.7138696,7.51204681 C26.897799,7.38440704 27.1147637,7.32058716 27.3647637,7.32058716 C27.6161065,7.32058716 27.8337502,7.38440704 28.017695,7.51204681 C28.2016397,7.63968658 28.3437524,7.82035065 28.4440331,8.054039 C28.5443139,8.28772736 28.5944543,8.56365967 28.5944543,8.88183594 L28.5944543,8.88769531 C28.5944543,9.20318604 28.5443139,9.47826385 28.4440331,9.71292877 C28.3437524,9.94759369 28.2016397,10.1294174 28.017695,10.2584 C27.8337502,10.3873825 27.6161065,10.4518738 27.3647637,10.4518738 Z M31.1492426,11 L31.1492426,7.99414062 L31.201,7.995 L32.3736231,11 L32.8885157,11 L34.061,7.995 L34.1128504,7.99414062 L34.1128504,11 L34.7924464,11 L34.7924464,6.77246094 L33.9269068,6.77246094 L32.6567957,10.0261536 L32.6071742,10.0261536 L31.335232,6.77246094 L30.4696467,6.77246094 L30.4696467,11 L31.1492426,11 Z M37.5429344,11.1051941 C37.8808861,11.1051941 38.173542,11.0506287 38.4209023,10.9414978 C38.6682625,10.8323669 38.8590279,10.6779175 38.9931984,10.4781494 C39.1273689,10.2783813 39.1944542,10.0417175 39.1944542,9.76815796 L39.1944542,9.76522827 C39.1944542,9.44509888 39.0952415,9.19086456 38.8968163,9.00252533 C38.698391,8.8141861 38.3763084,8.6733551 37.9305687,8.58003235 L37.4757347,8.4828949 C37.2127647,8.42784119 37.0234184,8.35181427 36.9076958,8.25481415 C36.7919731,8.15781403 36.7341118,8.03523254 36.7341118,7.8870697 L36.7341118,7.88414001 C36.7341118,7.76228333 36.7686577,7.65812683 36.8377495,7.57167053 C36.9068413,7.48521423 37.0016441,7.41851044 37.1221581,7.37155914 C37.242672,7.32460785 37.3809319,7.3011322 37.5369377,7.3011322 C37.6982536,7.29978943 37.8395424,7.32341766 37.960804,7.37201691 C38.0820656,7.42061615 38.1792259,7.486763 38.252285,7.57045746 C38.3253441,7.65415192 38.3707237,7.75106812 38.3884239,7.86120605 L38.3942833,7.89746094 L39.11549,7.89746094 L39.1125603,7.85923767 C39.0958061,7.63221741 39.022068,7.42895508 38.891346,7.24945068 C38.7606239,7.06994629 38.5809898,6.92803955 38.3524437,6.82373047 C38.1238976,6.71942139 37.8538475,6.66726685 37.5422935,6.66726685 C37.2376671,6.66726685 36.9676628,6.72021484 36.7322807,6.82611084 C36.4968987,6.93200684 36.3123589,7.07975006 36.1786613,7.26934052 C36.0449638,7.45893097 35.9774437,7.67956543 35.9761009,7.9312439 L35.9761009,7.93417358 C35.9761009,8.25009155 36.0746117,8.5089798 36.2716331,8.71083832 C36.4686546,8.91269684 36.7837181,9.05926514 37.2168236,9.15054321 L37.6716576,9.2456665 C37.9447289,9.30331421 38.140461,9.38075256 38.2588539,9.47798157 C38.3772469,9.57521057 38.4364433,9.69996643 38.4364433,9.85224915 L38.4364433,9.85517883 C38.4364433,9.97547913 38.3993492,10.0821228 38.325161,10.1751099 C38.2509727,10.2680969 38.1487617,10.3407135 38.018528,10.3929596 C37.8882942,10.4452057 37.7379875,10.4713287 37.5676079,10.4713287 C37.3892021,10.4713287 37.2306175,10.4467239 37.0918541,10.3975143 C36.9530907,10.3483047 36.8426857,10.2796936 36.7606392,10.1916809 C36.6785927,10.1036682 36.6313438,10.0004883 36.6188927,9.88214111 L36.615963,9.85270691 L35.8817558,9.85270691 L35.8846855,9.89326477 C35.903698,10.1353912 35.9825706,10.3473053 36.1213036,10.529007 C36.2600365,10.7107086 36.4500237,10.8521652 36.6912651,10.9533768 C36.9325066,11.0545883 37.2163963,11.1051941 37.5429344,11.1051941 Z"
                id="VISIONATMOS"></path>
            <g id="Logo">
                <path
                    d="M0,6 L0,0 L1.23460208,0.0294985251 C2.04290657,0.0530973451 2.58546713,0.0943952802 2.82352941,0.15339233 C4.82214533,0.654867257 6.35570934,2.12389381 6.99238754,4.14749263 C7.2083045,4.83185841 7.26920415,5.39233038 7.23598616,6.30678466 C7.19723183,7.48672566 6.94809689,8.31268437 6.33356401,9.32153392 C5.61384083,10.4955752 4.51211073,11.3510324 3.15570934,11.7935103 C2.7183391,11.9351032 2.59100346,11.9469027 1.34532872,11.9764012 L0,12 L0,6 Z"
                    id="Path"
                    transform="translate(3.622235, 6.000000) scale(-1, 1) rotate(-180.000000) translate(-3.622235, -6.000000) "></path>
                <path
                    d="M13.2096886,11.8938053 C10.7570934,11.3333333 8.99100346,9.22123894 8.74740484,6.55457227 C8.58131488,4.73746313 9.22352941,2.94985251 10.5190311,1.6460177 C11.0948097,1.0619469 11.6927336,0.672566372 12.4290657,0.389380531 C13.1653979,0.112094395 13.8297578,0.01179941 15.0200692,0.01179941 L16,0.01179941 L16,6 L16,11.9882006 L14.7986159,11.9823009 C13.9570934,11.9823009 13.4754325,11.9528024 13.2096886,11.8938053 Z"
                    id="Path"
                    transform="translate(12.360819, 6.000000) scale(-1, 1) rotate(-180.000000) translate(-12.360819, -6.000000) "></path>
            </g>
        </g>
    </g>
</svg>