<svg class="icon" width="4.75em" height="1em" viewBox="0 0 57 12" version="1.1"
    xmlns="http://www.w3.org/2000/svg" xmlns:xlink="http://www.w3.org/1999/xlink">
    <title>Dolby Atmos (Outline)</title>
    <g id="1.-Media" stroke="none" stroke-width="1" fill="none" fill-rule="evenodd">
        <g id="Dolby-Atmos-(Outline)" fill="currentColor" fill-rule="nonzero">
            <path
                d="M18.2539062,10 L19.109375,7.58007812 L22.5136719,7.58007812 L23.3691406,10 L24.4765625,10 L21.3359375,1.54492188 L20.2929688,1.54492188 L17.1464844,10 L18.2539062,10 Z M22.1972656,6.68359375 L19.4316406,6.68359375 L20.8027344,2.81054688 L20.8261719,2.81054688 L22.1972656,6.68359375 Z M27.4648438,10 L27.4648438,2.49414062 L30.1308594,2.49414062 L30.1308594,1.54492188 L23.7441406,1.54492188 L23.7441406,2.49414062 L26.4101562,2.49414062 L26.4101562,10 L27.4648438,10 Z M32.2285156,10 L32.2285156,3.46679688 L32.2636719,3.46679688 L34.9648438,10 L35.8554688,10 L38.5566406,3.46679688 L38.5917969,3.46679688 L38.5917969,10 L39.5761719,10 L39.5761719,1.54492188 L38.3574219,1.54492188 L35.4277344,8.66992188 L35.3925781,8.66992188 L32.4628906,1.54492188 L31.2441406,1.54492188 L31.2441406,10 L32.2285156,10 Z M44.7910156,10.140625 C47.1875,10.140625 48.6816406,8.45898438 48.6816406,5.77539062 L48.6816406,5.76367188 C48.6816406,3.0859375 47.1816406,1.40429688 44.7910156,1.40429688 C42.3945312,1.40429688 40.8886719,3.0859375 40.8886719,5.76367188 L40.8886719,5.77539062 C40.8886719,8.45898438 42.3886719,10.140625 44.7910156,10.140625 Z M44.7910156,9.16796875 C43.0566406,9.16796875 41.9667969,7.85546875 41.9667969,5.77539062 L41.9667969,5.76367188 C41.9667969,3.68359375 43.0625,2.37695312 44.7910156,2.37695312 C46.5136719,2.37695312 47.6035156,3.68945312 47.6035156,5.76367188 L47.6035156,5.77539062 C47.6035156,7.83789062 46.53125,9.16796875 44.7910156,9.16796875 Z M52.7597656,10.140625 C54.6933594,10.140625 55.8828125,9.19140625 55.8828125,7.69140625 L55.8828125,7.68554688 C55.8828125,6.39648438 55.15625,5.69335938 53.421875,5.3125 L52.484375,5.10742188 C51.3828125,4.8671875 50.8730469,4.43359375 50.8730469,3.7421875 L50.8730469,3.73632812 C50.8730469,2.921875 51.6113281,2.3828125 52.7421875,2.37695312 C53.8144531,2.37695312 54.5351562,2.88671875 54.6640625,3.74804688 L54.6757812,3.83007812 L55.7304688,3.83007812 L55.7246094,3.7421875 C55.6308594,2.359375 54.4238281,1.40429688 52.7714844,1.40429688 C51.03125,1.40429688 49.8007812,2.37695312 49.7949219,3.765625 L49.7949219,3.77148438 C49.7949219,5.0078125 50.5683594,5.75195312 52.2207031,6.11523438 L53.1582031,6.3203125 C54.3183594,6.578125 54.8046875,6.99414062 54.8046875,7.73828125 L54.8046875,7.74414063 C54.8046875,8.6171875 54.0371094,9.16796875 52.8183594,9.16796875 C51.59375,9.16796875 50.7734375,8.64648438 50.6503906,7.796875 L50.6386719,7.71484375 L49.5839844,7.71484375 L49.5898438,7.796875 C49.6953125,9.24414062 50.9316406,10.140625 52.7597656,10.140625 Z"
                id="ATMOS"></path>
            <g id="Logo">
                <path
                    d="M0,6 L0,0 L1.23460208,0.0294985251 C2.04290657,0.0530973451 2.58546713,0.0943952802 2.82352941,0.15339233 C4.82214533,0.654867257 6.35570934,2.12389381 6.99238754,4.14749263 C7.2083045,4.83185841 7.26920415,5.39233038 7.23598616,6.30678466 C7.19723183,7.48672566 6.94809689,8.31268437 6.33356401,9.32153392 C5.61384083,10.4955752 4.51211073,11.3510324 3.15570934,11.7935103 C2.7183391,11.9351032 2.59100346,11.9469027 1.34532872,11.9764012 L0,12 L0,6 Z"
                    id="Path"
                    transform="translate(3.622235, 6.000000) scale(-1, 1) rotate(-180.000000) translate(-3.622235, -6.000000) "></path>
                <path
                    d="M13.2096886,11.8938053 C10.7570934,11.3333333 8.99100346,9.22123894 8.74740484,6.55457227 C8.58131488,4.73746313 9.22352941,2.94985251 10.5190311,1.6460177 C11.0948097,1.0619469 11.6927336,0.672566372 12.4290657,0.389380531 C13.1653979,0.112094395 13.8297578,0.01179941 15.0200692,0.01179941 L16,0.01179941 L16,6 L16,11.9882006 L14.7986159,11.9823009 C13.9570934,11.9823009 13.4754325,11.9528024 13.2096886,11.8938053 Z"
                    id="Path"
                    transform="translate(12.360819, 6.000000) scale(-1, 1) rotate(-180.000000) translate(-12.360819, -6.000000) "></path>
            </g>
        </g>
    </g>
</svg>