<svg class="icon" width="4.58333333em" height="1em" viewBox="0 0 55 12" version="1.1" xmlns="http://www.w3.org/2000/svg" xmlns:xlink="http://www.w3.org/1999/xlink">
    <title>Dolby Vision (Outline)</title>
    <g id="1.-Media" stroke="none" stroke-width="1" fill="none" fill-rule="evenodd">
        <g id="Dolby-Vision-(Outline)" fill="currentColor" fill-rule="nonzero">
            <path d="M21.3066406,10 L24.4238281,1.54492188 L23.3164062,1.54492188 L20.796875,8.734375 L20.7734375,8.734375 L18.2539062,1.54492188 L17.1464844,1.54492188 L20.2636719,10 L21.3066406,10 Z M26.4453125,10 L26.4453125,1.54492188 L25.390625,1.54492188 L25.390625,10 L26.4453125,10 Z M30.8515625,10.140625 C32.7851562,10.140625 33.9746094,9.19140625 33.9746094,7.69140625 L33.9746094,7.68554688 C33.9746094,6.39648438 33.2480469,5.69335938 31.5136719,5.3125 L30.5761719,5.10742188 C29.4746094,4.8671875 28.9648438,4.43359375 28.9648438,3.7421875 L28.9648438,3.73632812 C28.9648438,2.921875 29.703125,2.3828125 30.8339844,2.37695312 C31.90625,2.37695312 32.6269531,2.88671875 32.7558594,3.74804688 L32.7675781,3.83007812 L33.8222656,3.83007812 L33.8164062,3.7421875 C33.7226562,2.359375 32.515625,1.40429688 30.8632812,1.40429688 C29.1230469,1.40429688 27.8925781,2.37695312 27.8867188,3.765625 L27.8867188,3.77148438 C27.8867188,5.0078125 28.6601562,5.75195312 30.3125,6.11523438 L31.25,6.3203125 C32.4101562,6.578125 32.8964844,6.99414062 32.8964844,7.73828125 L32.8964844,7.74414063 C32.8964844,8.6171875 32.1289062,9.16796875 30.9101562,9.16796875 C29.6855469,9.16796875 28.8652344,8.64648438 28.7421875,7.796875 L28.7304688,7.71484375 L27.6757812,7.71484375 L27.6816406,7.796875 C27.7871094,9.24414062 29.0234375,10.140625 30.8515625,10.140625 Z M36.2597656,10 L36.2597656,1.54492188 L35.2050781,1.54492188 L35.2050781,10 L36.2597656,10 Z M41.4746094,10.140625 C43.8710938,10.140625 45.3652344,8.45898438 45.3652344,5.77539062 L45.3652344,5.76367188 C45.3652344,3.0859375 43.8652344,1.40429688 41.4746094,1.40429688 C39.078125,1.40429688 37.5722656,3.0859375 37.5722656,5.76367188 L37.5722656,5.77539062 C37.5722656,8.45898438 39.0722656,10.140625 41.4746094,10.140625 Z M41.4746094,9.16796875 C39.7402344,9.16796875 38.6503906,7.85546875 38.6503906,5.77539062 L38.6503906,5.76367188 C38.6503906,3.68359375 39.7460938,2.37695312 41.4746094,2.37695312 C43.1972656,2.37695312 44.2871094,3.68945312 44.2871094,5.76367188 L44.2871094,5.77539062 C44.2871094,7.83789062 43.2148438,9.16796875 41.4746094,9.16796875 Z M47.7207031,10 L47.7207031,3.32617188 L47.75,3.32617188 L52.4023438,10 L53.4277344,10 L53.4277344,1.54492188 L52.3847656,1.54492188 L52.3847656,8.21875 L52.3554688,8.21875 L47.703125,1.54492188 L46.6777344,1.54492188 L46.6777344,10 L47.7207031,10 Z" id="VISION"></path>
            <g id="Logo">
                <path d="M0,6 L0,0 L1.23460208,0.0294985251 C2.04290657,0.0530973451 2.58546713,0.0943952802 2.82352941,0.15339233 C4.82214533,0.654867257 6.35570934,2.12389381 6.99238754,4.14749263 C7.2083045,4.83185841 7.26920415,5.39233038 7.23598616,6.30678466 C7.19723183,7.48672566 6.94809689,8.31268437 6.33356401,9.32153392 C5.61384083,10.4955752 4.51211073,11.3510324 3.15570934,11.7935103 C2.7183391,11.9351032 2.59100346,11.9469027 1.34532872,11.9764012 L0,12 L0,6 Z" id="Path" transform="translate(3.622235, 6.000000) scale(-1, 1) rotate(-180.000000) translate(-3.622235, -6.000000) "></path>
                <path d="M13.2096886,11.8938053 C10.7570934,11.3333333 8.99100346,9.22123894 8.74740484,6.55457227 C8.58131488,4.73746313 9.22352941,2.94985251 10.5190311,1.6460177 C11.0948097,1.0619469 11.6927336,0.672566372 12.4290657,0.389380531 C13.1653979,0.112094395 13.8297578,0.01179941 15.0200692,0.01179941 L16,0.01179941 L16,6 L16,11.9882006 L14.7986159,11.9823009 C13.9570934,11.9823009 13.4754325,11.9528024 13.2096886,11.8938053 Z" id="Path" transform="translate(12.360819, 6.000000) scale(-1, 1) rotate(-180.000000) translate(-12.360819, -6.000000) "></path>
            </g>
        </g>
    </g>
</svg>