<svg class="icon" width="2.91666667em" height="1em" viewBox="0 0 35 12" version="1.1" xmlns="http://www.w3.org/2000/svg" xmlns:xlink="http://www.w3.org/1999/xlink">
    <title>HDR10</title>
    <g id="1.-Media" stroke="none" stroke-width="1" fill="none" fill-rule="evenodd">
        <g id="HDR10" transform="translate(0.000000, -0.000000)" fill="currentColor" fill-rule="nonzero">
            <g id="Group" transform="translate(2.990881, 2.443769)">
                <polygon id="Path" points="1.21580547 0.0486322188 1.21580547 2.73556231 4.04863222 2.73556231 4.04863222 0.0486322188 5.26443769 0.0486322188 5.26443769 6.74772036 4.04863222 6.74772036 4.04863222 3.79331307 1.21580547 3.79331307 1.21580547 6.74772036 8.63881746e-16 6.74772036 8.63881746e-16 0.0486322188"></polygon>
                <path d="M6.46808511,0.133738602 C7.00303951,0.0486322188 7.68389058,0 8.41337386,0 C9.6656535,0 10.5288754,0.255319149 11.1489362,0.778115502 C11.7933131,1.30091185 12.1945289,2.10334347 12.1945289,3.24620061 C12.1945289,4.43768997 11.7933131,5.33738602 11.1489362,5.90881459 C10.4802432,6.51671733 9.4224924,6.82066869 8.12158055,6.82066869 C7.40425532,6.82066869 6.86930091,6.78419453 6.46808511,6.73556231 L6.46808511,0.133738602 Z M7.68389058,5.7993921 C7.85410334,5.82370821 8.10942249,5.82370821 8.36474164,5.82370821 C9.95744681,5.83586626 10.893617,4.96048632 10.893617,3.25835866 C10.9057751,1.77507599 10.0547112,0.936170213 8.52279635,0.936170213 C8.1337386,0.936170213 7.85410334,0.960486322 7.68389058,1.00911854 L7.68389058,5.7993921 L7.68389058,5.7993921 Z" id="Shape"></path>
                <path d="M13.0577508,0.133738602 C13.5197568,0.0486322188 14.2006079,0 14.9057751,0 C15.8662614,0 16.5227964,0.158054711 16.9726444,0.534954407 C17.337386,0.838905775 17.5440729,1.31306991 17.5440729,1.87234043 C17.5440729,2.73556231 16.9604863,3.31914894 16.3282675,3.55015198 L16.3282675,3.57446809 C16.8024316,3.75683891 17.0942249,4.21884498 17.2644377,4.86322188 C17.4711246,5.70212766 17.6534954,6.46808511 17.787234,6.73556231 L16.5227964,6.73556231 C16.4255319,6.54103343 16.2674772,5.99392097 16.0729483,5.1550152 C15.8784195,4.27963526 15.56231,4 14.8693009,3.98784195 L14.2492401,3.98784195 L14.2492401,6.73556231 L13.0334347,6.73556231 L13.0334347,0.133738602 L13.0577508,0.133738602 Z M14.2735562,3.0881459 L15.0030395,3.0881459 C15.8297872,3.0881459 16.3404255,2.65045593 16.3404255,1.98176292 C16.3404255,1.25227964 15.8297872,0.911854103 15.0273556,0.911854103 C14.6382979,0.911854103 14.3951368,0.936170213 14.2735562,0.972644377 L14.2735562,3.0881459 Z" id="Shape"></path>
                <polygon id="Path" points="21.8237082 1.38601824 21.7993921 1.38601824 20.6200608 1.98176292 20.4133739 1.05775076 21.9817629 0.279635258 23.0030395 0.279635258 23.0030395 6.73556231 21.8237082 6.73556231 21.8237082 1.38601824"></polygon>
                <path d="M28.8024316,3.47720365 C28.8024316,5.556231 27.9878419,6.85714286 26.443769,6.85714286 C24.9483283,6.85714286 24.1580547,5.50759878 24.1458967,3.53799392 C24.1458967,1.53191489 24.9969605,0.182370821 26.5045593,0.182370821 C28.0729483,0.170212766 28.8024316,1.56838906 28.8024316,3.47720365 Z M25.3860182,3.52583587 C25.3738602,5.09422492 25.8115502,5.90881459 26.4924012,5.90881459 C27.2097264,5.90881459 27.5866261,5.03343465 27.5866261,3.4893617 C27.5866261,1.99392097 27.2340426,1.10638298 26.4924012,1.10638298 C25.8358663,1.10638298 25.3738602,1.90881459 25.3860182,3.52583587 Z" id="Shape"></path>
            </g>
            <path d="M31.5136778,12 L2.90577508,12 C1.39817629,12 0.680851064,11.1975684 0.352583587,10.5288754 C0,9.81155015 0,9.11854103 0,9.08206687 L0,2.90577508 C0,1.39817629 0.802431611,0.680851064 1.47112462,0.352583587 C2.17629179,0 2.88145897,0 2.91793313,0 L31.5136778,0 C34.3951368,0 34.4316109,2.88145897 34.4316109,2.91793313 L34.4316109,9.08206687 C34.4316109,10.5896657 33.6291793,11.3069909 32.9604863,11.6352584 C32.2431611,12 31.550152,12 31.5136778,12 Z M2.91793313,0.62006079 C2.80851064,0.62006079 0.632218845,0.668693009 0.632218845,2.90577508 L0.632218845,9.08206687 C0.632218845,9.17933131 0.668693009,11.3677812 2.91793313,11.3677812 L31.5136778,11.3677812 C31.6109422,11.3677812 33.7993921,11.331307 33.7993921,9.08206687 L33.7993921,2.90577508 C33.7993921,2.80851064 33.7629179,0.62006079 31.5136778,0.62006079 L2.91793313,0.62006079 L2.91793313,0.62006079 Z" id="Shape"></path>
        </g>
    </g>
</svg>