<svg class="icon" width="3.07692308em" height="1em" viewBox="0 0 40 13" version="1.1" xmlns="http://www.w3.org/2000/svg" xmlns:xlink="http://www.w3.org/1999/xlink">
    <title>HDR10+</title>
    <g id="1.-Media" stroke="none" stroke-width="1" fill="none" fill-rule="evenodd">
        <g id="HDR10+" transform="translate(0.300000, 0.600000)" fill="currentColor" fill-rule="nonzero">
            <g id="Group">
                <g transform="translate(2.986111, 2.444444)">
                    <polygon id="Path" points="1.22222222 0.0555555556 1.22222222 2.73611111 4.05555556 2.73611111 4.05555556 0.0555555556 5.27777778 0.0555555556 5.27777778 6.75 4.05555556 6.75 4.05555556 3.79166667 1.22222222 3.79166667 1.22222222 6.73611111 4.93432455e-16 6.73611111 4.93432455e-16 0.0555555556"></polygon>
                    <path d="M6.47222222,0.138888889 C7.01388889,0.0555555556 7.69444444,0 8.41666667,0 C9.66666667,0 10.5277778,0.263888889 11.1527778,0.777777778 C11.7916667,1.30555556 12.1944444,2.09722222 12.1944444,3.23611111 C12.1944444,4.43055556 11.7916667,5.31944444 11.1527778,5.90277778 C10.4861111,6.51388889 9.43055556,6.81944444 8.125,6.81944444 C7.41666667,6.81944444 6.875,6.77777778 6.47222222,6.73611111 C6.47222222,6.73611111 6.47222222,0.138888889 6.47222222,0.138888889 Z M7.69444444,5.81944444 C7.86111111,5.84722222 8.125,5.84722222 8.375,5.84722222 C9.95833333,5.86111111 10.9027778,4.98611111 10.9027778,3.29166667 C10.9027778,1.80555556 10.0555556,0.958333333 8.52777778,0.958333333 C8.13888889,0.958333333 7.86111111,0.986111111 7.69444444,1.02777778 L7.69444444,5.81944444 Z" id="Shape"></path>
                    <path d="M13.0694444,0.138888889 C13.5277778,0.0555555556 14.2083333,0 14.9166667,0 C15.875,0 16.5416667,0.152777778 16.9861111,0.541666667 C17.3472222,0.847222222 17.5555556,1.31944444 17.5555556,1.88888889 C17.5555556,2.75 16.9722222,3.33333333 16.3472222,3.56944444 L16.3472222,3.59722222 C16.8194444,3.77777778 17.1111111,4.23611111 17.2777778,4.88888889 C17.4861111,5.72222222 17.6666667,6.5 17.8055556,6.75 L16.5416667,6.75 C16.4444444,6.55555556 16.2777778,6 16.0972222,5.16666667 C15.9027778,4.29166667 15.5972222,4.01388889 14.8888889,4 L14.2777778,4 L14.2777778,6.75 L13.0694444,6.75 C13.0694444,6.75 13.0694444,0.138888889 13.0694444,0.138888889 Z M14.2777778,3.09722222 L15,3.09722222 C15.8194444,3.09722222 16.3472222,2.66666667 16.3472222,2 C16.3472222,1.26388889 15.8333333,0.930555556 15.0416667,0.930555556 C14.6527778,0.930555556 14.4027778,0.958333333 14.2916667,0.986111111 L14.2916667,3.09722222 L14.2777778,3.09722222 Z" id="Shape"></path>
                    <polygon id="Path" points="21.8194444 1.38888889 21.8055556 1.38888889 20.625 1.98611111 20.4166667 1.06944444 21.9861111 0.291666667 23.0138889 0.291666667 23.0138889 6.75 21.8333333 6.75"></polygon>
                    <path d="M28.8055556,3.48611111 C28.8055556,5.55555556 27.9861111,6.86111111 26.4583333,6.86111111 C24.9722222,6.86111111 24.1805556,5.51388889 24.1666667,3.54166667 C24.1666667,1.54166667 25.0138889,0.180555556 26.5277778,0.180555556 C28.0694444,0.180555556 28.8055556,1.56944444 28.8055556,3.48611111 Z M25.3888889,3.54166667 C25.375,5.11111111 25.8194444,5.93055556 26.4861111,5.93055556 C27.1944444,5.93055556 27.5833333,5.05555556 27.5833333,3.51388889 C27.5833333,2.01388889 27.2222222,1.125 26.4861111,1.125 C25.8333333,1.11111111 25.375,1.91666667 25.3888889,3.54166667 Z" id="Shape"></path>
                </g>
                <path d="M35.9166667,12 L3.31944444,12 C1.61111111,12 0.791666667,11.1944444 0.402777778,10.5277778 C0,9.81944444 0,9.11111111 0,9.08333333 L0,2.91666667 C0,0.0277777778 3.29166667,0 3.31944444,0 L35.9166667,0 C37.625,0 38.4444444,0.805555556 38.8333333,1.47222222 C39.2361111,2.18055556 39.2361111,2.88888889 39.2361111,2.91666667 L39.2361111,9.09722222 C39.2361111,10.5972222 38.3194444,11.3194444 37.5555556,11.6527778 C36.75,12 35.9444444,12 35.9166667,12 Z M3.31944444,0.638888889 C3.20833333,0.638888889 0.722222222,0.680555556 0.722222222,2.91666667 L0.722222222,9.09722222 C0.722222222,9.18055556 0.763888889,11.375 3.31944444,11.375 L35.9166667,11.375 C36.0277778,11.375 38.5138889,11.3333333 38.5138889,9.09722222 L38.5138889,2.91666667 C38.5138889,2.81944444 38.4722222,0.638888889 35.9166667,0.638888889 L3.31944444,0.638888889 L3.31944444,0.638888889 Z" id="Shape"></path>
            </g>
            <polygon id="Path" points="35.0555556 3.93055556 35.0555556 5.61111111 36.6666667 5.61111111 36.6666667 6.33333333 35.0555556 6.33333333 35.0555556 8.02777778 34.3055556 8.02777778 34.3055556 6.33333333 32.6944444 6.33333333 32.6944444 5.61111111 34.3055556 5.61111111 34.3055556 3.93055556"></polygon>
        </g>
    </g>
</svg>