<svg class="icon" width="2.66666667em" height="1em" viewBox="0 0 32 12" version="1.1" xmlns="http://www.w3.org/2000/svg" xmlns:xlink="http://www.w3.org/1999/xlink">
    <title>Masters of Cinema (Outline)</title>
    <g id="1.-Media" stroke="none" stroke-width="1" fill="none" fill-rule="evenodd">
        <g id="Masters-of-Cinema-(Outline)" fill="currentColor" fill-rule="nonzero">
            <path d="M1.20195007,5 L1.20195007,1.99414062 L1.254,1.995 L2.42633057,5 L2.94122314,5 L4.114,1.995 L4.16555786,1.99414062 L4.16555786,5 L4.84515381,5 L4.84515381,0.772460938 L3.97961426,0.772460938 L2.70950317,4.02615356 L2.65988159,4.02615356 L1.38793945,0.772460938 L0.522354126,0.772460938 L0.522354126,5 L1.20195007,5 Z M6.92730689,5.0528717 C7.06863379,5.0528717 7.19902015,5.03347015 7.31846595,4.99466705 C7.43791175,4.95586395 7.54392219,4.89941406 7.63649726,4.82531738 C7.72907233,4.7512207 7.80453467,4.66252136 7.86288428,4.55921936 L7.91346717,4.55921936 L7.91346717,5 L8.63476539,5 L8.63476539,2.81285095 C8.63476539,2.58729553 8.58482337,2.3940506 8.48493934,2.23311615 C8.3850553,2.0721817 8.23925757,1.94894409 8.04754615,1.86340332 C7.85583472,1.77786255 7.62211585,1.73509216 7.34638953,1.73509216 C7.09330726,1.73509216 6.87006354,1.77254486 6.67665839,1.84745026 C6.48325324,1.92235565 6.32813239,2.02692413 6.21129584,2.1611557 C6.0944593,2.29538727 6.02391028,2.45292664 5.99964881,2.6337738 L5.99671912,2.65785217 L6.68460059,2.65785217 L6.68844581,2.64723206 C6.72515845,2.54148865 6.79632545,2.4597168 6.90194678,2.4019165 C7.00756812,2.34411621 7.1439817,2.31521606 7.31118751,2.31521606 C7.50915504,2.31521606 7.65902686,2.35798645 7.76080298,2.44352722 C7.86257911,2.52906799 7.91346717,2.6521759 7.91346717,2.81285095 L7.913,3.087 L7.08889747,3.13612366 C6.700073,3.15885925 6.40045905,3.25182343 6.19005561,3.41501617 C5.97965217,3.57820892 5.87445045,3.80322266 5.87445045,4.09005737 L5.87445045,4.09591675 C5.87445045,4.28979492 5.91991401,4.45858765 6.01084113,4.60229492 C6.10176826,4.7460022 6.22666144,4.85702515 6.3855207,4.93536377 C6.54437995,5.01370239 6.72497535,5.0528717 6.92730689,5.0528717 Z M7.14781165,4.49453735 C6.98646522,4.49453735 6.8537519,4.45597839 6.7496717,4.37886047 C6.6455915,4.30174255 6.5935514,4.19515991 6.5935514,4.05911255 L6.5935514,4.05325317 C6.5935514,3.92114258 6.64238715,3.81784058 6.74005866,3.74334717 C6.83773017,3.66885376 6.9884336,3.62568665 7.19216895,3.61384583 L7.913,3.568 L7.91346717,3.82505798 C7.91346717,3.95195007 7.88030219,4.06584167 7.81397223,4.16673279 C7.74764228,4.2676239 7.65683722,4.34748077 7.54155707,4.40630341 C7.42627692,4.46512604 7.29502845,4.49453735 7.14781165,4.49453735 Z M10.956459,5.06399536 C11.2195816,5.06399536 11.4533157,5.02179718 11.6576614,4.93740082 C11.8620071,4.85300446 12.022934,4.73423004 12.1404419,4.58107758 C12.2579498,4.42792511 12.3167038,4.24987793 12.3167038,4.04693604 L12.3167038,4.04199219 C12.3167038,3.80801392 12.2413254,3.62178802 12.0905685,3.48331451 C11.9398117,3.344841 11.7076492,3.24038696 11.3940811,3.16995239 L10.8762131,3.05464172 C10.7030258,3.01527405 10.5795441,2.96553802 10.5057678,2.90543365 C10.4319916,2.84532928 10.3951035,2.76837158 10.3951035,2.67456055 L10.3951035,2.6696167 C10.3951035,2.58947754 10.4192505,2.51982117 10.4675446,2.46064758 C10.5158386,2.401474 10.5820084,2.35542297 10.6660538,2.32249451 C10.7500992,2.28956604 10.8462753,2.27310181 10.9545822,2.27310181 C11.1261826,2.27310181 11.2635117,2.3087616 11.3665695,2.38008118 C11.4696274,2.45140076 11.5343704,2.53781128 11.5607986,2.63931274 L11.5626297,2.64764404 L12.2500534,2.64764404 L12.2500534,2.6411438 C12.2340622,2.4680481 12.1732025,2.31323242 12.0674744,2.17669678 C11.9617462,2.04016113 11.8150787,1.93242645 11.6274719,1.85349274 C11.4398651,1.77455902 11.2162399,1.73509216 10.9565964,1.73509216 C10.7054672,1.73509216 10.4833069,1.77637482 10.2901154,1.85894012 C10.0969238,1.94150543 9.94612122,2.0559845 9.83770752,2.20237732 C9.72929382,2.34877014 9.67508698,2.51852417 9.67508698,2.7116394 L9.67508698,2.71456909 C9.67508698,2.95040894 9.748909,3.1414566 9.89655304,3.2877121 C10.0441971,3.43396759 10.2694931,3.54101562 10.5724411,3.6088562 L11.0923233,3.72416687 C11.2678299,3.76423645 11.3936081,3.81599426 11.4696579,3.87944031 C11.5457077,3.94288635 11.5837326,4.02182007 11.5837326,4.11624146 L11.5837326,4.1211853 C11.5837326,4.20144653 11.5575867,4.271698 11.5052948,4.3319397 C11.4530029,4.3921814 11.3810043,4.43943787 11.289299,4.47370911 C11.1975937,4.50798035 11.0906601,4.52511597 10.9684982,4.52511597 C10.788353,4.52511597 10.6441269,4.49002075 10.53582,4.41983032 C10.4275131,4.34963989 10.3543472,4.25901794 10.3163223,4.14796448 L10.31353,4.14054871 L9.58985138,4.14054871 L9.59076691,4.14888 C9.61090851,4.3289032 9.67765045,4.48769379 9.79099274,4.62525177 C9.90433502,4.76280975 10.0592041,4.87032318 10.2556,4.94779205 C10.4519958,5.02526093 10.6856155,5.06399536 10.956459,5.06399536 Z M14.5307422,5.01602173 C14.6019397,5.01602173 14.6701465,5.01262665 14.7353625,5.00583649 C14.8005786,4.99904633 14.8588367,4.99113464 14.9101367,4.98210144 L14.9101367,4.42047119 C14.8669543,4.42437744 14.8280139,4.42745972 14.7933154,4.42971802 C14.7586169,4.43197632 14.7157245,4.43310547 14.664638,4.43310547 C14.5129352,4.43310547 14.403316,4.39691162 14.3357806,4.32452393 C14.2682452,4.25213623 14.2344775,4.13615417 14.2344775,3.97657776 L14.2344775,2.36199951 L14.9101367,2.36199951 L14.9101367,1.7991333 L14.2344775,1.7991333 L14.2344775,1.01141357 L13.4937701,1.01141357 L13.4937701,1.7991333 L12.9966388,1.7991333 L12.9966388,2.36199951 L13.4937701,2.36199951 L13.4937701,4.14906311 C13.4937701,4.45726013 13.5748706,4.67880249 13.7370715,4.81369019 C13.8992724,4.94857788 14.1638293,5.01602173 14.5307422,5.01602173 Z M17.2193549,5.06399536 C17.4364264,5.06399536 17.6270926,5.03620911 17.7913535,4.9806366 C17.9556143,4.92506409 18.094599,4.85211182 18.2083075,4.76177979 C18.322016,4.67144775 18.4127676,4.57289124 18.4805624,4.46611023 C18.5483572,4.35932922 18.5949957,4.25439453 18.6204779,4.15130615 L18.6272528,4.12324524 L17.9356635,4.12416077 L17.9258215,4.14498901 C17.9034216,4.19326782 17.8626807,4.24443054 17.8035986,4.29847717 C17.7445166,4.3525238 17.667803,4.3983078 17.573458,4.43582916 C17.4791129,4.47335052 17.3662207,4.49211121 17.2347815,4.49211121 C17.0668738,4.49211121 16.9217322,4.45488739 16.7993567,4.38043976 C16.6769812,4.30599213 16.582804,4.19876099 16.516825,4.05874634 C16.4673407,3.95373535 16.436413,3.8325882 16.424042,3.69530487 L16.418,3.583 L18.657923,3.58221436 L18.657923,3.34124756 C18.657923,3.01937866 18.5985739,2.73809052 18.4798758,2.49738312 C18.3611777,2.25667572 18.1916907,2.06945038 17.9714148,1.93570709 C17.7511389,1.80196381 17.4890845,1.73509216 17.1852515,1.73509216 C16.8821814,1.73509216 16.618479,1.80427551 16.3941443,1.94264221 C16.1698096,2.08100891 15.9962866,2.27509308 15.8735754,2.52489471 C15.7508643,2.77469635 15.6895087,3.06794739 15.6895087,3.40464783 L15.6895087,3.40757751 C15.6895087,3.74693298 15.7510169,4.04051208 15.8740332,4.28831482 C15.9970496,4.53611755 16.1726553,4.72734833 16.4008505,4.86200714 C16.6290457,4.99666595 16.9018805,5.06399536 17.2193549,5.06399536 Z M17.946,3.094 L16.427,3.094 L16.4430964,2.97615814 C16.459923,2.88930511 16.485163,2.81037903 16.5188162,2.73937988 C16.5861228,2.59738159 16.6780112,2.48982239 16.7944815,2.41670227 C16.9109519,2.34358215 17.0439551,2.30702209 17.1934912,2.30702209 C17.3436072,2.30702209 17.4757483,2.34224701 17.5899146,2.41269684 C17.7040808,2.48314667 17.7934744,2.58870697 17.8580954,2.72937775 C17.8904059,2.79971313 17.9146388,2.87914085 17.930794,2.9676609 L17.946,3.094 Z M20.3575602,5 L20.3575602,3.13946533 C20.3575602,2.98638916 20.3910379,2.85408783 20.4579935,2.74256134 C20.5249491,2.63103485 20.6189203,2.5447464 20.7399073,2.48369598 C20.8608942,2.42264557 21.0024424,2.39212036 21.1645517,2.39212036 C21.2279978,2.39212036 21.289567,2.39564514 21.3492594,2.4026947 C21.4089518,2.40974426 21.4685678,2.42001343 21.5281076,2.4335022 L21.5281076,1.77972412 C21.492219,1.77026367 21.4477167,1.76232147 21.3946009,1.75589752 C21.341485,1.74947357 21.2874308,1.7462616 21.2324381,1.7462616 C21.0220194,1.7462616 20.8457804,1.79370117 20.703721,1.88858032 C20.5616617,1.98345947 20.4631357,2.11700439 20.408143,2.28921509 L20.3575602,2.28921509 L20.3575602,1.7991333 L19.6288919,1.7991333 L19.6288919,5 L20.3575602,5 Z M23.5015411,5.06399536 C23.7646637,5.06399536 23.9983978,5.02179718 24.2027435,4.93740082 C24.4070892,4.85300446 24.5680161,4.73423004 24.685524,4.58107758 C24.8030319,4.42792511 24.8617859,4.24987793 24.8617859,4.04693604 L24.8617859,4.04199219 C24.8617859,3.80801392 24.7864075,3.62178802 24.6356506,3.48331451 C24.4848938,3.344841 24.2527313,3.24038696 23.9391632,3.16995239 L23.4212952,3.05464172 C23.2481079,3.01527405 23.1246262,2.96553802 23.0508499,2.90543365 C22.9770737,2.84532928 22.9401855,2.76837158 22.9401855,2.67456055 L22.9401855,2.6696167 C22.9401855,2.58947754 22.9643326,2.51982117 23.0126266,2.46064758 C23.0609207,2.401474 23.1270905,2.35542297 23.2111359,2.32249451 C23.2951813,2.28956604 23.3913574,2.27310181 23.4996643,2.27310181 C23.6712646,2.27310181 23.8085938,2.3087616 23.9116516,2.38008118 C24.0147095,2.45140076 24.0794525,2.53781128 24.1058807,2.63931274 L24.1077118,2.64764404 L24.7951355,2.64764404 L24.7951355,2.6411438 C24.7791443,2.4680481 24.7182846,2.31323242 24.6125565,2.17669678 C24.5068283,2.04016113 24.3601608,1.93242645 24.172554,1.85349274 C23.9849472,1.77455902 23.761322,1.73509216 23.5016785,1.73509216 C23.2505493,1.73509216 23.028389,1.77637482 22.8351974,1.85894012 C22.6420059,1.94150543 22.4912033,2.0559845 22.3827896,2.20237732 C22.2743759,2.34877014 22.2201691,2.51852417 22.2201691,2.7116394 L22.2201691,2.71456909 C22.2201691,2.95040894 22.2939911,3.1414566 22.4416351,3.2877121 C22.5892792,3.43396759 22.8145752,3.54101562 23.1175232,3.6088562 L23.6374054,3.72416687 C23.812912,3.76423645 23.9386902,3.81599426 24.01474,3.87944031 C24.0907898,3.94288635 24.1288147,4.02182007 24.1288147,4.11624146 L24.1288147,4.1211853 C24.1288147,4.20144653 24.1026688,4.271698 24.0503769,4.3319397 C23.998085,4.3921814 23.9260864,4.43943787 23.8343811,4.47370911 C23.7426758,4.50798035 23.6357422,4.52511597 23.5135803,4.52511597 C23.3334351,4.52511597 23.189209,4.49002075 23.0809021,4.41983032 C22.9725952,4.34963989 22.8994293,4.25901794 22.8614044,4.14796448 L22.8586121,4.14054871 L22.1349335,4.14054871 L22.135849,4.14888 C22.1559906,4.3289032 22.2227325,4.48769379 22.3360748,4.62525177 C22.4494171,4.76280975 22.6042862,4.87032318 22.8006821,4.94779205 C22.9970779,5.02526093 23.2306976,5.06399536 23.5015411,5.06399536 Z M1.82720947,11.0639954 C2.14776611,11.0639954 2.42293549,10.9973068 2.65271759,10.8639297 C2.88249969,10.7305527 3.05925751,10.5396271 3.18299103,10.291153 C3.30672455,10.0426788 3.36859131,9.74615479 3.36859131,9.40158081 L3.36859131,9.39572144 C3.36859131,9.05163574 3.30626678,8.75551605 3.18161774,8.50736237 C3.05696869,8.25920868 2.87974548,8.06845856 2.64994812,7.935112 C2.42015076,7.80176544 2.14590454,7.73509216 1.82720947,7.73509216 C1.51043701,7.73509216 1.23682404,7.80191803 1.00637054,7.93556976 C0.775917053,8.0692215 0.598205566,8.26012421 0.473236084,8.50827789 C0.348266602,8.75643158 0.28578186,9.05224609 0.28578186,9.39572144 L0.28578186,9.40158081 C0.28578186,9.74615479 0.347801208,10.0426788 0.471839905,10.291153 C0.595878601,10.5396271 0.773124695,10.7305527 1.00357819,10.8639297 C1.23403168,10.9973068 1.50857544,11.0639954 1.82720947,11.0639954 Z M1.82720947,10.4737091 C1.65829468,10.4737091 1.51470184,10.4313126 1.39643097,10.3465195 C1.2781601,10.2617264 1.18782043,10.1394806 1.12541199,9.9797821 C1.06300354,9.82008362 1.03179932,9.62765503 1.03179932,9.40249634 L1.03179932,9.39663696 C1.03179932,9.17138672 1.06315613,8.97906494 1.12586975,8.81967163 C1.18858337,8.66027832 1.27907562,8.53805542 1.3973465,8.45300293 C1.51561737,8.36795044 1.65890503,8.32542419 1.82720947,8.32542419 C1.99612427,8.32542419 2.13955688,8.36795044 2.25750732,8.45300293 C2.37545776,8.53805542 2.46579742,8.66027832 2.52852631,8.81967163 C2.59125519,8.97906494 2.62261963,9.17138672 2.62261963,9.39663696 L2.62261963,9.40249634 C2.62261963,9.62704468 2.59140778,9.81916809 2.52898407,9.97886658 C2.46656036,10.1385651 2.37637329,10.2609634 2.25842285,10.3460617 C2.14047241,10.43116 1.99673462,10.4737091 1.82720947,10.4737091 Z M5.3023839,11 L5.3023839,8.36199951 L5.98674059,8.36199951 L5.98674059,7.7991333 L5.29126024,7.7991333 L5.29126024,7.52250671 C5.29126024,7.36909485 5.3275609,7.25261688 5.40016222,7.17307281 C5.47276354,7.09352875 5.59463549,7.05375671 5.76577806,7.05375671 C5.81747484,7.05375671 5.86476183,7.05504608 5.90763903,7.05762482 C5.95051622,7.06020355 5.98603868,7.06410217 6.01420641,7.06932068 L6.01420641,6.55914307 C5.95588732,6.54937744 5.8937993,6.54174042 5.82794237,6.53623199 C5.76208544,6.53072357 5.68986559,6.52796936 5.61128283,6.52796936 C5.25553942,6.52796936 4.99366808,6.60710144 4.82566881,6.7653656 C4.65766954,6.92362976 4.57366991,7.16184998 4.57366991,7.48002625 L4.57366991,7.7991333 L4.05113268,7.7991333 L4.05113268,8.36199951 L4.57366991,8.36199951 L4.57366991,11 L5.3023839,11 Z M10.6036398,11.1051941 C10.9297812,11.1051941 11.2202094,11.0461197 11.4749243,10.9279709 C11.7296393,10.8098221 11.9369833,10.6451721 12.0969565,10.434021 C12.2569296,10.2228699 12.3553946,9.97663879 12.3923514,9.69532776 L12.3933127,9.67184448 L11.6522849,9.67184448 L11.6464255,9.68974304 C11.6115134,9.84443665 11.546015,9.97901154 11.4499304,10.0934677 C11.3538458,10.2079239 11.2339194,10.2962723 11.0901511,10.3585129 C10.9463828,10.4207535 10.7845175,10.4518738 10.6045554,10.4518738 C10.3640158,10.4518738 10.1562216,10.3883591 9.9811728,10.2613297 C9.80612397,10.1343002 9.67122865,9.95378876 9.57648683,9.71979523 C9.481745,9.4858017 9.43437409,9.20878601 9.43437409,8.88874817 L9.43437409,8.88288879 C9.43437409,8.5615387 9.481745,8.28417206 9.57648683,8.05078888 C9.67122865,7.8174057 9.80612397,7.63735962 9.9811728,7.51065063 C10.1562216,7.38394165 10.3630393,7.32058716 10.6016257,7.32058716 C10.7802451,7.32058716 10.9415686,7.35501862 11.0855963,7.42388153 C11.229624,7.49274445 11.3505042,7.5892334 11.4482367,7.71334839 C11.5459692,7.83746338 11.6127036,7.98323059 11.6484396,8.15065002 L11.6513693,8.1648407 L12.390383,8.1648407 L12.3914359,8.13948059 C12.3590872,7.85264587 12.2617972,7.5984726 12.0995657,7.37696075 C11.9373343,7.15544891 11.7273734,6.98178864 11.4696829,6.85597992 C11.2119925,6.7301712 10.9226401,6.66726685 10.6016257,6.66726685 C10.2021201,6.66726685 9.85764527,6.75695801 9.5682013,6.93634033 C9.27875733,7.11572266 9.05556703,7.37091827 8.89863038,7.70192719 C8.74169374,8.0329361 8.66322541,8.4269104 8.66322541,8.8838501 L8.66322541,8.88970947 C8.66322541,9.3453064 8.74169374,9.73860931 8.89863038,10.0696182 C9.05556703,10.4006271 9.27924562,10.6559753 9.56966615,10.8356628 C9.86008668,11.0153503 10.2047446,11.1051941 10.6036398,11.1051941 Z M13.7707064,7.26208496 C13.89061,7.26208496 13.9929354,7.22000122 14.0776827,7.13583374 C14.16243,7.05166626 14.2048037,6.95059204 14.2048037,6.83261108 C14.2048037,6.71270752 14.16243,6.61100006 14.0776827,6.52748871 C13.9929354,6.44397736 13.89061,6.40222168 13.7707064,6.40222168 C13.6527255,6.40222168 13.550873,6.44397736 13.4651492,6.52748871 C13.3794253,6.61100006 13.3365633,6.71270752 13.3365633,6.83261108 C13.3365633,6.95059204 13.3794253,7.05166626 13.4651492,7.13583374 C13.550873,7.22000122 13.6527255,7.26208496 13.7707064,7.26208496 Z M14.1330264,11 L14.1330264,7.7991333 L13.4043124,7.7991333 L13.4043124,11 L14.1330264,11 Z M15.9998124,11 L15.9998124,9.13365173 C15.9998124,8.9728241 16.0283997,8.83404541 16.0855744,8.71731567 C16.1427491,8.60058594 16.2238953,8.51010895 16.3290131,8.4458847 C16.4341309,8.38166046 16.5592301,8.34954834 16.7043107,8.34954834 C16.9247391,8.34954834 17.0872757,8.41190338 17.1919205,8.53661346 C17.2965653,8.66132355 17.3488877,8.84832764 17.3488877,9.09762573 L17.3488877,11 L18.0776017,11 L18.0776017,8.92912292 C18.0776017,8.5473175 17.9831574,8.25286102 17.7942688,8.04575348 C17.6053803,7.83864594 17.3319657,7.73509216 16.974025,7.73509216 C16.7428544,7.73509216 16.5502198,7.78426361 16.3961213,7.88260651 C16.2420228,7.9809494 16.1267807,8.11627197 16.0503953,8.28857422 L15.9998124,8.28857422 L15.9998124,7.7991333 L15.2711442,7.7991333 L15.2711442,11 L15.9998124,11 Z M20.5490928,11.0639954 C20.7661643,11.0639954 20.9568305,11.0362091 21.1210914,10.9806366 C21.2853522,10.9250641 21.4243369,10.8521118 21.5380454,10.7617798 C21.6517539,10.6714478 21.7425056,10.5728912 21.8103004,10.4661102 C21.8780951,10.3593292 21.9247336,10.2543945 21.9502158,10.1513062 L21.9569907,10.1232452 L21.2654014,10.1241608 L21.2555594,10.144989 C21.2331595,10.1932678 21.1924186,10.2444305 21.1333365,10.2984772 C21.0742545,10.3525238 20.997541,10.3983078 20.9031959,10.4358292 C20.8088508,10.4733505 20.6959586,10.4921112 20.5645194,10.4921112 C20.3966117,10.4921112 20.2514701,10.4548874 20.1290946,10.3804398 C20.0067191,10.3059921 19.9125419,10.198761 19.8465629,10.0587463 C19.7970786,9.95373535 19.766151,9.8325882 19.7537799,9.69530487 L19.748,9.583 L21.9876609,9.58221436 L21.9876609,9.34124756 C21.9876609,9.01937866 21.9283118,8.73809052 21.8096137,8.49738312 C21.6909156,8.25667572 21.5214286,8.06945038 21.3011527,7.93570709 C21.0808768,7.80196381 20.8188224,7.73509216 20.5149894,7.73509216 C20.2119193,7.73509216 19.9482169,7.80427551 19.7238822,7.94264221 C19.4995475,8.08100891 19.3260245,8.27509308 19.2033134,8.52489471 C19.0806022,8.77469635 19.0192466,9.06794739 19.0192466,9.40464783 L19.0192466,9.40757751 C19.0192466,9.74693298 19.0807548,10.0405121 19.2037711,10.2883148 C19.3267875,10.5361176 19.5023932,10.7273483 19.7305884,10.8620071 C19.9587836,10.996666 20.2316184,11.0639954 20.5490928,11.0639954 Z M21.276,9.094 L19.756,9.094 L19.7728343,8.97615814 C19.7896609,8.88930511 19.8149009,8.81037903 19.8485541,8.73937988 C19.9158607,8.59738159 20.0077491,8.48982239 20.1242194,8.41670227 C20.2406898,8.34358215 20.373693,8.30702209 20.5232291,8.30702209 C20.6733451,8.30702209 20.8054862,8.34224701 20.9196525,8.41269684 C21.0338187,8.48314667 21.1232123,8.58870697 21.1878333,8.72937775 C21.2201438,8.79971313 21.2443767,8.87914085 21.2605319,8.9676609 L21.276,9.094 Z M23.6872981,11 L23.6872981,9.05038452 C23.6872981,8.91802979 23.7142451,8.79885864 23.7681391,8.69287109 C23.8220332,8.58688354 23.8962672,8.5031662 23.9908412,8.44171906 C24.0854151,8.38027191 24.1927149,8.34954834 24.3127406,8.34954834 C24.4915431,8.34954834 24.6324809,8.40059662 24.735554,8.50269318 C24.8386271,8.60478973 24.8901637,8.74464417 24.8901637,8.92225647 L24.8901637,11 L25.6188319,11 L25.6188319,9.00035095 C25.6188319,8.87672424 25.6446269,8.7660675 25.6962168,8.66838074 C25.7478068,8.57069397 25.8205531,8.49313354 25.9144557,8.43569946 C26.0083582,8.37826538 26.118664,8.34954834 26.245373,8.34954834 C26.4408076,8.34954834 26.5863841,8.40177917 26.6821024,8.50624084 C26.7778208,8.61070251 26.82568,8.76739502 26.82568,8.97631836 L26.82568,11 L27.554394,11 L27.554394,8.79788208 C27.554394,8.57595825 27.5131648,8.38586426 27.4307063,8.2276001 C27.3482478,8.06933594 27.230305,7.94768524 27.0768778,7.86264801 C26.9234507,7.77761078 26.7393153,7.73509216 26.5244715,7.73509216 C26.3768275,7.73509216 26.2389414,7.75912476 26.1108134,7.80718994 C25.9826853,7.85525513 25.8709223,7.92264557 25.7755244,8.00936127 C25.6801264,8.09607697 25.6062739,8.19789124 25.5539668,8.31480408 L25.5033839,8.31480408 C25.457638,8.19554138 25.3929789,8.09270477 25.3094065,8.00629425 C25.2258341,7.91988373 25.125706,7.85308075 25.009022,7.80588531 C24.892338,7.75868988 24.761471,7.73509216 24.616421,7.73509216 C24.4062769,7.73509216 24.2245905,7.78398132 24.0713618,7.88175964 C23.918133,7.97953796 23.8069727,8.11740112 23.7378809,8.29534912 L23.6872981,8.29534912 L23.6872981,7.7991333 L22.9586298,7.7991333 L22.9586298,11 L23.6872981,11 Z M29.529803,11.0528717 C29.6711299,11.0528717 29.8015163,11.0334702 29.9209621,10.9946671 C30.0404079,10.955864 30.1464183,10.8994141 30.2389934,10.8253174 C30.3315685,10.7512207 30.4070308,10.6625214 30.4653804,10.5592194 L30.5159633,10.5592194 L30.5159633,11 L31.2372615,11 L31.2372615,8.81285095 C31.2372615,8.58729553 31.1873195,8.3940506 31.0874355,8.23311615 C30.9875515,8.0721817 30.8417537,7.94894409 30.6500423,7.86340332 C30.4583309,7.77786255 30.224612,7.73509216 29.9488857,7.73509216 C29.6958034,7.73509216 29.4725597,7.77254486 29.2791545,7.84745026 C29.0857494,7.92235565 28.9306285,8.02692413 28.813792,8.1611557 C28.6969554,8.29538727 28.6264064,8.45292664 28.602145,8.6337738 L28.5992153,8.65785217 L29.2870967,8.65785217 L29.290942,8.64723206 C29.3276546,8.54148865 29.3988216,8.4597168 29.5044429,8.4019165 C29.6100643,8.34411621 29.7464778,8.31521606 29.9136837,8.31521606 C30.1116512,8.31521606 30.261523,8.35798645 30.3632991,8.44352722 C30.4650753,8.52906799 30.5159633,8.6521759 30.5159633,8.81285095 L30.515,9.087 L29.6913936,9.13612366 C29.3025692,9.15885925 29.0029552,9.25182343 28.7925518,9.41501617 C28.5821483,9.57820892 28.4769466,9.80322266 28.4769466,10.0900574 L28.4769466,10.0959167 C28.4769466,10.2897949 28.5224102,10.4585876 28.6133373,10.6022949 C28.7042644,10.7460022 28.8291576,10.8570251 28.9880168,10.9353638 C29.1468761,11.0137024 29.3274715,11.0528717 29.529803,11.0528717 Z M29.7503078,10.4945374 C29.5889614,10.4945374 29.456248,10.4559784 29.3521678,10.3788605 C29.2480876,10.3017426 29.1960475,10.1951599 29.1960475,10.0591125 L29.1960475,10.0532532 C29.1960475,9.92114258 29.2448833,9.81784058 29.3425548,9.74334717 C29.4402263,9.66885376 29.5909297,9.62568665 29.7946651,9.61384583 L30.515,9.568 L30.5159633,9.82505798 C30.5159633,9.95195007 30.4827983,10.0658417 30.4164684,10.1667328 C30.3501384,10.2676239 30.2593334,10.3474808 30.1440532,10.4063034 C30.0287731,10.465126 29.8975246,10.4945374 29.7503078,10.4945374 Z" id="Text"></path>
        </g>
    </g>
</svg>