<svg class="icon" width="3.83333333em" height="1em" viewBox="0 0 46 12" version="1.1" xmlns="http://www.w3.org/2000/svg" xmlns:xlink="http://www.w3.org/1999/xlink">
    <title>The Criterion Collection (Outline)</title>
    <g id="1.-Media" stroke="none" stroke-width="1" fill="none" fill-rule="evenodd">
        <g id="The-Criterion-Collection-(Outline)" fill-rule="nonzero">
            <path d="M15.2838745,5.10519409 C15.6100159,5.10519409 15.900444,5.04611969 16.155159,4.92797089 C16.409874,4.80982208 16.617218,4.64517212 16.7771912,4.434021 C16.9371643,4.22286987 17.0356293,3.97663879 17.0725861,3.69532776 L17.0735474,3.67184448 L16.3325195,3.67184448 L16.3266602,3.68974304 C16.291748,3.84443665 16.2262497,3.97901154 16.1301651,4.09346771 C16.0340805,4.20792389 15.9141541,4.29627228 15.7703857,4.35851288 C15.6266174,4.42075348 15.4647522,4.45187378 15.28479,4.45187378 C15.0442505,4.45187378 14.8364563,4.38835907 14.6614075,4.26132965 C14.4863586,4.13430023 14.3514633,3.95378876 14.2567215,3.71979523 C14.1619797,3.4858017 14.1146088,3.20878601 14.1146088,2.88874817 L14.1146088,2.88288879 C14.1146088,2.5615387 14.1619797,2.28417206 14.2567215,2.05078888 C14.3514633,1.8174057 14.4863586,1.63735962 14.6614075,1.51065063 C14.8364563,1.38394165 15.0432739,1.32058716 15.2818604,1.32058716 C15.4604797,1.32058716 15.6218033,1.35501862 15.765831,1.42388153 C15.9098587,1.49274445 16.0307388,1.5892334 16.1284714,1.71334839 C16.2262039,1.83746338 16.2929382,1.98323059 16.3286743,2.15065002 L16.331604,2.1648407 L17.0706177,2.1648407 L17.0716705,2.13948059 C17.0393219,1.85264587 16.9420319,1.5984726 16.7798004,1.37696075 C16.617569,1.15544891 16.407608,0.981788635 16.1499176,0.855979919 C15.8922272,0.730171204 15.6028748,0.667266846 15.2818604,0.667266846 C14.8823547,0.667266846 14.5378799,0.756958008 14.248436,0.936340332 C13.958992,1.11572266 13.7358017,1.37091827 13.5788651,1.70192719 C13.4219284,2.0329361 13.3434601,2.4269104 13.3434601,2.8838501 L13.3434601,2.88970947 C13.3434601,3.3453064 13.4219284,3.73860931 13.5788651,4.06961823 C13.7358017,4.40062714 13.9594803,4.65597534 14.2499008,4.83566284 C14.5403214,5.01535034 14.8849792,5.10519409 15.2838745,5.10519409 Z M18.8052502,5 L18.8052502,3.13946533 C18.8052502,2.98638916 18.838728,2.85408783 18.9056835,2.74256134 C18.9726391,2.63103485 19.0666103,2.5447464 19.1875973,2.48369598 C19.3085842,2.42264557 19.4501324,2.39212036 19.6122417,2.39212036 C19.6756878,2.39212036 19.737257,2.39564514 19.7969494,2.4026947 C19.8566418,2.40974426 19.9162579,2.42001343 19.9757977,2.4335022 L19.9757977,1.77972412 C19.939909,1.77026367 19.8954067,1.76232147 19.8422909,1.75589752 C19.789175,1.74947357 19.7351208,1.7462616 19.6801281,1.7462616 C19.4697094,1.7462616 19.2934704,1.79370117 19.1514111,1.88858032 C19.0093517,1.98345947 18.9108257,2.11700439 18.8558331,2.28921509 L18.8052502,2.28921509 L18.8052502,1.7991333 L18.076582,1.7991333 L18.076582,5 L18.8052502,5 Z M21.1822782,1.26208496 C21.3021817,1.26208496 21.4045072,1.22000122 21.4892545,1.13583374 C21.5740018,1.05166626 21.6163754,0.950592041 21.6163754,0.832611084 C21.6163754,0.71270752 21.5740018,0.611000061 21.4892545,0.527488708 C21.4045072,0.443977356 21.3021817,0.40222168 21.1822782,0.40222168 C21.0642972,0.40222168 20.9624448,0.443977356 20.8767209,0.527488708 C20.790997,0.611000061 20.7481351,0.71270752 20.7481351,0.832611084 C20.7481351,0.950592041 20.790997,1.05166626 20.8767209,1.13583374 C20.9624448,1.22000122 21.0642972,1.26208496 21.1822782,1.26208496 Z M21.5445981,5 L21.5445981,1.7991333 L20.8158841,1.7991333 L20.8158841,5 L21.5445981,5 Z M23.9420695,5.01602173 C24.013267,5.01602173 24.0814738,5.01262665 24.1466899,5.00583649 C24.211906,4.99904633 24.270164,4.99113464 24.3214641,4.98210144 L24.3214641,4.42047119 C24.2782817,4.42437744 24.2393413,4.42745972 24.2046428,4.42971802 C24.1699443,4.43197632 24.1270518,4.43310547 24.0759654,4.43310547 C23.9242625,4.43310547 23.8146434,4.39691162 23.747108,4.32452393 C23.6795726,4.25213623 23.6458049,4.13615417 23.6458049,3.97657776 L23.6458049,2.36199951 L24.3214641,2.36199951 L24.3214641,1.7991333 L23.6458049,1.7991333 L23.6458049,1.01141357 L22.9050975,1.01141357 L22.9050975,1.7991333 L22.4079661,1.7991333 L22.4079661,2.36199951 L22.9050975,2.36199951 L22.9050975,4.14906311 C22.9050975,4.45726013 22.9861979,4.67880249 23.1483989,4.81369019 C23.3105998,4.94857788 23.5751567,5.01602173 23.9420695,5.01602173 Z M26.6306822,5.06399536 C26.8477538,5.06399536 27.03842,5.03620911 27.2026808,4.9806366 C27.3669417,4.92506409 27.5059264,4.85211182 27.6196349,4.76177979 C27.7333434,4.67144775 27.824095,4.57289124 27.8918898,4.46611023 C27.9596846,4.35932922 28.0063231,4.25439453 28.0318053,4.15130615 L28.0385802,4.12324524 L27.3469908,4.12416077 L27.3371489,4.14498901 C27.314749,4.19326782 27.274008,4.24443054 27.214926,4.29847717 C27.155844,4.3525238 27.0791304,4.3983078 26.9847853,4.43582916 C26.8904402,4.47335052 26.7775481,4.49211121 26.6461089,4.49211121 C26.4782012,4.49211121 26.3330595,4.45488739 26.2106841,4.38043976 C26.0883086,4.30599213 25.9941313,4.19876099 25.9281523,4.05874634 C25.8786681,3.95373535 25.8477404,3.8325882 25.8353693,3.69530487 L25.83,3.583 L28.0692503,3.58221436 L28.0692503,3.34124756 C28.0692503,3.01937866 28.0099013,2.73809052 27.8912032,2.49738312 C27.772505,2.25667572 27.603018,2.06945038 27.3827422,1.93570709 C27.1624663,1.80196381 26.9004118,1.73509216 26.5965788,1.73509216 C26.2935088,1.73509216 26.0298064,1.80427551 25.8054717,1.94264221 C25.5811369,2.08100891 25.407614,2.27509308 25.2849028,2.52489471 C25.1621916,2.77469635 25.100836,3.06794739 25.100836,3.40464783 L25.100836,3.40757751 C25.100836,3.74693298 25.1623442,4.04051208 25.2853606,4.28831482 C25.4083769,4.53611755 25.5839827,4.72734833 25.8121779,4.86200714 C26.0403731,4.99666595 26.3132079,5.06399536 26.6306822,5.06399536 Z M27.358,3.094 L25.838,3.094 L25.8544238,2.97615814 C25.8712504,2.88930511 25.8964903,2.81037903 25.9301436,2.73937988 C25.9974501,2.59738159 26.0893385,2.48982239 26.2058089,2.41670227 C26.3222792,2.34358215 26.4552824,2.30702209 26.6048186,2.30702209 C26.7549345,2.30702209 26.8870757,2.34224701 27.0012419,2.41269684 C27.1154082,2.48314667 27.2048018,2.58870697 27.2694228,2.72937775 C27.3017333,2.79971313 27.3259661,2.87914085 27.3421214,2.9676609 L27.358,3.094 Z M29.7688875,5 L29.7688875,3.13946533 C29.7688875,2.98638916 29.8023653,2.85408783 29.8693209,2.74256134 C29.9362764,2.63103485 30.0302477,2.5447464 30.1512346,2.48369598 C30.2722216,2.42264557 30.4137697,2.39212036 30.5758791,2.39212036 C30.6393251,2.39212036 30.7008944,2.39564514 30.7605867,2.4026947 C30.8202791,2.40974426 30.8798952,2.42001343 30.939435,2.4335022 L30.939435,1.77972412 C30.9035463,1.77026367 30.8590441,1.76232147 30.8059282,1.75589752 C30.7528124,1.74947357 30.6987581,1.7462616 30.6437654,1.7462616 C30.4333467,1.7462616 30.2571077,1.79370117 30.1150484,1.88858032 C29.9729891,1.98345947 29.8744631,2.11700439 29.8194704,2.28921509 L29.7688875,2.28921509 L29.7688875,1.7991333 L29.0402193,1.7991333 L29.0402193,5 L29.7688875,5 Z M32.1459155,1.26208496 C32.2658191,1.26208496 32.3681445,1.22000122 32.4528918,1.13583374 C32.5376391,1.05166626 32.5800128,0.950592041 32.5800128,0.832611084 C32.5800128,0.71270752 32.5376391,0.611000061 32.4528918,0.527488708 C32.3681445,0.443977356 32.2658191,0.40222168 32.1459155,0.40222168 C32.0279346,0.40222168 31.9260821,0.443977356 31.8403583,0.527488708 C31.7546344,0.611000061 31.7117724,0.71270752 31.7117724,0.832611084 C31.7117724,0.950592041 31.7546344,1.05166626 31.8403583,1.13583374 C31.9260821,1.22000122 32.0279346,1.26208496 32.1459155,1.26208496 Z M32.5082355,5 L32.5082355,1.7991333 L31.7795215,1.7991333 L31.7795215,5 L32.5082355,5 Z M35.0286164,5.06399536 C35.3491731,5.06399536 35.6243424,4.99730682 35.8541245,4.86392975 C36.0839067,4.73055267 36.2606645,4.53962708 36.384398,4.29115295 C36.5081315,4.04267883 36.5699983,3.74615479 36.5699983,3.40158081 L36.5699983,3.39572144 C36.5699983,3.05163574 36.5076737,2.75551605 36.3830247,2.50736237 C36.2583756,2.25920868 36.0811524,2.06845856 35.8513551,1.935112 C35.6215577,1.80176544 35.3473115,1.73509216 35.0286164,1.73509216 C34.711844,1.73509216 34.438231,1.80191803 34.2077775,1.93556976 C33.977324,2.0692215 33.7996125,2.26012421 33.674643,2.50827789 C33.5496736,2.75643158 33.4871888,3.05224609 33.4871888,3.39572144 L33.4871888,3.40158081 C33.4871888,3.74615479 33.5492082,4.04267883 33.6732469,4.29115295 C33.7972856,4.53962708 33.9745317,4.73055267 34.2049851,4.86392975 C34.4354386,4.99730682 34.7099824,5.06399536 35.0286164,5.06399536 Z M35.0286164,4.47370911 C34.8597016,4.47370911 34.7161088,4.43131256 34.5978379,4.34651947 C34.4795671,4.26172638 34.3892274,4.13948059 34.3268189,3.9797821 C34.2644105,3.82008362 34.2332063,3.62765503 34.2332063,3.40249634 L34.2332063,3.39663696 C34.2332063,3.17138672 34.2645631,2.97906494 34.3272767,2.81967163 C34.3899903,2.66027832 34.4804826,2.53805542 34.5987535,2.45300293 C34.7170243,2.36795044 34.860312,2.32542419 35.0286164,2.32542419 C35.1975312,2.32542419 35.3409638,2.36795044 35.4589143,2.45300293 C35.5768647,2.53805542 35.6672044,2.66027832 35.7299333,2.81967163 C35.7926621,2.97906494 35.8240266,3.17138672 35.8240266,3.39663696 L35.8240266,3.40249634 C35.8240266,3.62704468 35.7928147,3.81916809 35.730391,3.97886658 C35.6679673,4.13856506 35.5777802,4.26096344 35.4598298,4.34606171 C35.3418794,4.43115997 35.1981416,4.47370911 35.0286164,4.47370911 Z M38.2696447,5 L38.2696447,3.13365173 C38.2696447,2.9728241 38.2982321,2.83404541 38.3554068,2.71731567 C38.4125814,2.60058594 38.4937277,2.51010895 38.5988455,2.4458847 C38.7039633,2.38166046 38.8290625,2.34954834 38.974143,2.34954834 C39.1945715,2.34954834 39.3571081,2.41190338 39.4617529,2.53661346 C39.5663977,2.66132355 39.6187201,2.84832764 39.6187201,3.09762573 L39.6187201,5 L40.347434,5 L40.347434,2.92912292 C40.347434,2.5473175 40.2529898,2.25286102 40.0641012,2.04575348 C39.8752127,1.83864594 39.6017981,1.73509216 39.2438574,1.73509216 C39.0126867,1.73509216 38.8200521,1.78426361 38.6659536,1.88260651 C38.5118551,1.9809494 38.3966131,2.11627197 38.3202276,2.28857422 L38.2696447,2.28857422 L38.2696447,1.7991333 L37.5409765,1.7991333 L37.5409765,5 L38.2696447,5 Z M15.2838745,11.1051941 C15.6100159,11.1051941 15.900444,11.0461197 16.155159,10.9279709 C16.409874,10.8098221 16.617218,10.6451721 16.7771912,10.434021 C16.9371643,10.2228699 17.0356293,9.97663879 17.0725861,9.69532776 L17.0735474,9.67184448 L16.3325195,9.67184448 L16.3266602,9.68974304 C16.291748,9.84443665 16.2262497,9.97901154 16.1301651,10.0934677 C16.0340805,10.2079239 15.9141541,10.2962723 15.7703857,10.3585129 C15.6266174,10.4207535 15.4647522,10.4518738 15.28479,10.4518738 C15.0442505,10.4518738 14.8364563,10.3883591 14.6614075,10.2613297 C14.4863586,10.1343002 14.3514633,9.95378876 14.2567215,9.71979523 C14.1619797,9.4858017 14.1146088,9.20878601 14.1146088,8.88874817 L14.1146088,8.88288879 C14.1146088,8.5615387 14.1619797,8.28417206 14.2567215,8.05078888 C14.3514633,7.8174057 14.4863586,7.63735962 14.6614075,7.51065063 C14.8364563,7.38394165 15.0432739,7.32058716 15.2818604,7.32058716 C15.4604797,7.32058716 15.6218033,7.35501862 15.765831,7.42388153 C15.9098587,7.49274445 16.0307388,7.5892334 16.1284714,7.71334839 C16.2262039,7.83746338 16.2929382,7.98323059 16.3286743,8.15065002 L16.331604,8.1648407 L17.0706177,8.1648407 L17.0716705,8.13948059 C17.0393219,7.85264587 16.9420319,7.5984726 16.7798004,7.37696075 C16.617569,7.15544891 16.407608,6.98178864 16.1499176,6.85597992 C15.8922272,6.7301712 15.6028748,6.66726685 15.2818604,6.66726685 C14.8823547,6.66726685 14.5378799,6.75695801 14.248436,6.93634033 C13.958992,7.11572266 13.7358017,7.37091827 13.5788651,7.70192719 C13.4219284,8.0329361 13.3434601,8.4269104 13.3434601,8.8838501 L13.3434601,8.88970947 C13.3434601,9.3453064 13.4219284,9.73860931 13.5788651,10.0696182 C13.7358017,10.4006271 13.9594803,10.6559753 14.2499008,10.8356628 C14.5403214,11.0153503 14.8849792,11.1051941 15.2838745,11.1051941 Z M19.4588451,11.0639954 C19.7794018,11.0639954 20.0545712,10.9973068 20.2843533,10.8639297 C20.5141354,10.7305527 20.6908932,10.5396271 20.8146267,10.291153 C20.9383602,10.0426788 21.000227,9.74615479 21.000227,9.40158081 L21.000227,9.39572144 C21.000227,9.05163574 20.9379025,8.75551605 20.8132534,8.50736237 C20.6886044,8.25920868 20.5113811,8.06845856 20.2815838,7.935112 C20.0517864,7.80176544 19.7775402,7.73509216 19.4588451,7.73509216 C19.1420727,7.73509216 18.8684597,7.80191803 18.6380062,7.93556976 C18.4075527,8.0692215 18.2298412,8.26012421 18.1048717,8.50827789 C17.9799023,8.75643158 17.9174175,9.05224609 17.9174175,9.39572144 L17.9174175,9.40158081 C17.9174175,9.74615479 17.9794369,10.0426788 18.1034756,10.291153 C18.2275143,10.5396271 18.4047604,10.7305527 18.6352139,10.8639297 C18.8656673,10.9973068 19.1402111,11.0639954 19.4588451,11.0639954 Z M19.4588451,10.4737091 C19.2899303,10.4737091 19.1463375,10.4313126 19.0280666,10.3465195 C18.9097958,10.2617264 18.8194561,10.1394806 18.7570477,9.9797821 C18.6946392,9.82008362 18.663435,9.62765503 18.663435,9.40249634 L18.663435,9.39663696 C18.663435,9.17138672 18.6947918,8.97906494 18.7575054,8.81967163 C18.820219,8.66027832 18.9107113,8.53805542 19.0289822,8.45300293 C19.147253,8.36795044 19.2905407,8.32542419 19.4588451,8.32542419 C19.6277599,8.32542419 19.7711926,8.36795044 19.889143,8.45300293 C20.0070934,8.53805542 20.0974331,8.66027832 20.160162,8.81967163 C20.2228909,8.97906494 20.2542553,9.17138672 20.2542553,9.39663696 L20.2542553,9.40249634 C20.2542553,9.62704468 20.2230434,9.81916809 20.1606197,9.97886658 C20.098196,10.1385651 20.008009,10.2609634 19.8900585,10.3460617 C19.7721081,10.43116 19.6283703,10.4737091 19.4588451,10.4737091 Z M22.7291703,11 L22.7291703,6.55818176 L22.0005021,6.55818176 L22.0005021,11 L22.7291703,11 Z M24.6465449,11 L24.6465449,6.55818176 L23.9178767,6.55818176 L23.9178767,11 L24.6465449,11 Z M27.1766362,11.0639954 C27.3937078,11.0639954 27.584374,11.0362091 27.7486348,10.9806366 C27.9128957,10.9250641 28.0518804,10.8521118 28.1655889,10.7617798 C28.2792974,10.6714478 28.370049,10.5728912 28.4378438,10.4661102 C28.5056386,10.3593292 28.5522771,10.2543945 28.5777593,10.1513062 L28.5845342,10.1232452 L27.8929448,10.1241608 L27.8831029,10.144989 C27.860703,10.1932678 27.819962,10.2444305 27.76088,10.2984772 C27.701798,10.3525238 27.6250844,10.3983078 27.5307393,10.4358292 C27.4363942,10.4733505 27.3235021,10.4921112 27.1920629,10.4921112 C27.0241551,10.4921112 26.8790135,10.4548874 26.7566381,10.3804398 C26.6342626,10.3059921 26.5400853,10.198761 26.4741063,10.0587463 C26.4246221,9.95373535 26.3936944,9.8325882 26.3813233,9.69530487 L26.376,9.583 L28.6152043,9.58221436 L28.6152043,9.34124756 C28.6152043,9.01937866 28.5558553,8.73809052 28.4371572,8.49738312 C28.318459,8.25667572 28.148972,8.06945038 27.9286962,7.93570709 C27.7084203,7.80196381 27.4463658,7.73509216 27.1425328,7.73509216 C26.8394628,7.73509216 26.5757604,7.80427551 26.3514256,7.94264221 C26.1270909,8.08100891 25.953568,8.27509308 25.8308568,8.52489471 C25.7081456,8.77469635 25.64679,9.06794739 25.64679,9.40464783 L25.64679,9.40757751 C25.64679,9.74693298 25.7082982,10.0405121 25.8313146,10.2883148 C25.9543309,10.5361176 26.1299367,10.7273483 26.3581319,10.8620071 C26.5863271,10.996666 26.8591619,11.0639954 27.1766362,11.0639954 Z M27.904,9.094 L26.384,9.094 L26.4003778,8.97615814 C26.4172044,8.88930511 26.4424443,8.81037903 26.4760976,8.73937988 C26.5434041,8.59738159 26.6352925,8.48982239 26.7517629,8.41670227 C26.8682332,8.34358215 27.0012364,8.30702209 27.1507726,8.30702209 C27.3008885,8.30702209 27.4330297,8.34224701 27.5471959,8.41269684 C27.6613622,8.48314667 27.7507558,8.58870697 27.8153768,8.72937775 C27.8476872,8.79971313 27.8719201,8.87914085 27.8880754,8.9676609 L27.904,9.094 Z M30.9597847,11.0639954 C31.2309945,11.0639954 31.4637139,11.0184479 31.657943,10.9273529 C31.8521721,10.8362579 32.0072167,10.708786 32.1230767,10.5449371 C32.2389367,10.3810883 32.314338,10.1905212 32.3492806,9.97323608 L32.3523476,9.9493866 L31.6657021,9.95231628 L31.6598427,9.96430969 C31.6148598,10.1320648 31.5344155,10.2589035 31.4185097,10.3448257 C31.302604,10.430748 31.149955,10.4737091 30.9605629,10.4737091 C30.7953408,10.4737091 30.6537468,10.4310608 30.5357811,10.3457642 C30.4178154,10.2604675 30.3272393,10.1371231 30.2640526,9.9757309 C30.200866,9.81433868 30.1692727,9.62028503 30.1692727,9.39356995 L30.1692727,9.38771057 C30.1692727,9.16365051 30.2005379,8.9725647 30.2630684,8.81445312 C30.325599,8.65634155 30.4158394,8.53530884 30.5337899,8.45135498 C30.6517403,8.36740112 30.793998,8.32542419 30.9605629,8.32542419 C31.1592934,8.32542419 31.3179467,8.37532043 31.4365227,8.47511292 C31.5550988,8.5749054 31.6305153,8.70292664 31.6627724,8.85917664 L31.6657021,8.86608887 L32.3543618,8.86608887 L32.3542244,8.85409546 C32.3266671,8.63320923 32.2547524,8.43888855 32.1384804,8.27113342 C32.0222085,8.1033783 31.864959,7.9720993 31.6667321,7.87729645 C31.4685051,7.78249359 31.2321846,7.73509216 30.9577706,7.73509216 C30.6368783,7.73509216 30.362159,7.80121613 30.1336129,7.93346405 C29.9050667,8.06571198 29.7301629,8.25494385 29.6089013,8.50115967 C29.4876397,8.74737549 29.4270089,9.04289246 29.4270089,9.38771057 L29.4270089,9.39356995 C29.4270089,9.74238586 29.4879754,10.0415421 29.6099083,10.2910385 C29.7318413,10.540535 29.9070809,10.7317352 30.135627,10.8646393 C30.3641732,10.9975433 30.6388924,11.0639954 30.9597847,11.0639954 Z M34.5889795,11.0160217 C34.660177,11.0160217 34.7283838,11.0126266 34.7935998,11.0058365 C34.8588159,10.9990463 34.917074,10.9911346 34.968374,10.9821014 L34.968374,10.4204712 C34.9251916,10.4243774 34.8862512,10.4274597 34.8515527,10.429718 C34.8168542,10.4319763 34.7739618,10.4331055 34.7228754,10.4331055 C34.5711725,10.4331055 34.4615533,10.3969116 34.3940179,10.3245239 C34.3264825,10.2521362 34.2927148,10.1361542 34.2927148,9.97657776 L34.2927148,8.36199951 L34.968374,8.36199951 L34.968374,7.7991333 L34.2927148,7.7991333 L34.2927148,7.01141357 L33.5520074,7.01141357 L33.5520074,7.7991333 L33.0548761,7.7991333 L33.0548761,8.36199951 L33.5520074,8.36199951 L33.5520074,10.1490631 C33.5520074,10.4572601 33.6331079,10.6788025 33.7953088,10.8136902 C33.9575098,10.9485779 34.2220666,11.0160217 34.5889795,11.0160217 Z M36.3112996,7.26208496 C36.4312031,7.26208496 36.5335286,7.22000122 36.6182759,7.13583374 C36.7030232,7.05166626 36.7453969,6.95059204 36.7453969,6.83261108 C36.7453969,6.71270752 36.7030232,6.61100006 36.6182759,6.52748871 C36.5335286,6.44397736 36.4312031,6.40222168 36.3112996,6.40222168 C36.1933186,6.40222168 36.0914662,6.44397736 36.0057423,6.52748871 C35.9200184,6.61100006 35.8771565,6.71270752 35.8771565,6.83261108 C35.8771565,6.95059204 35.9200184,7.05166626 36.0057423,7.13583374 C36.0914662,7.22000122 36.1933186,7.26208496 36.3112996,7.26208496 Z M36.6736195,11 L36.6736195,7.7991333 L35.9449055,7.7991333 L35.9449055,11 L36.6736195,11 Z M39.1940005,11.0639954 C39.5145571,11.0639954 39.7897265,10.9973068 40.0195086,10.8639297 C40.2492907,10.7305527 40.4260485,10.5396271 40.549782,10.291153 C40.6735156,10.0426788 40.7353823,9.74615479 40.7353823,9.40158081 L40.7353823,9.39572144 C40.7353823,9.05163574 40.6730578,8.75551605 40.5484087,8.50736237 C40.4237597,8.25920868 40.2465365,8.06845856 40.0167391,7.935112 C39.7869418,7.80176544 39.5126956,7.73509216 39.1940005,7.73509216 C38.877228,7.73509216 38.603615,7.80191803 38.3731616,7.93556976 C38.1427081,8.0692215 37.9649966,8.26012421 37.8400271,8.50827789 C37.7150576,8.75643158 37.6525729,9.05224609 37.6525729,9.39572144 L37.6525729,9.40158081 C37.6525729,9.74615479 37.7145922,10.0426788 37.8386309,10.291153 C37.9626696,10.5396271 38.1399157,10.7305527 38.3703692,10.8639297 C38.6008227,10.9973068 38.8753664,11.0639954 39.1940005,11.0639954 Z M39.1940005,10.4737091 C39.0250857,10.4737091 38.8814929,10.4313126 38.763222,10.3465195 C38.6449511,10.2617264 38.5546114,10.1394806 38.492203,9.9797821 C38.4297945,9.82008362 38.3985903,9.62765503 38.3985903,9.40249634 L38.3985903,9.39663696 C38.3985903,9.17138672 38.4299471,8.97906494 38.4926608,8.81967163 C38.5553744,8.66027832 38.6458666,8.53805542 38.7641375,8.45300293 C38.8824084,8.36795044 39.025696,8.32542419 39.1940005,8.32542419 C39.3629153,8.32542419 39.5063479,8.36795044 39.6242983,8.45300293 C39.7422488,8.53805542 39.8325884,8.66027832 39.8953173,8.81967163 C39.9580462,8.97906494 39.9894106,9.17138672 39.9894106,9.39663696 L39.9894106,9.40249634 C39.9894106,9.62704468 39.9581988,9.81916809 39.8957751,9.97886658 C39.8333514,10.1385651 39.7431643,10.2609634 39.6252139,10.3460617 C39.5072634,10.43116 39.3635256,10.4737091 39.1940005,10.4737091 Z M42.4350288,11 L42.4350288,9.13365173 C42.4350288,8.9728241 42.4636161,8.83404541 42.5207908,8.71731567 C42.5779655,8.60058594 42.6591117,8.51010895 42.7642295,8.4458847 C42.8693473,8.38166046 42.9944465,8.34954834 43.1395271,8.34954834 C43.3599555,8.34954834 43.5224922,8.41190338 43.6271369,8.53661346 C43.7317817,8.66132355 43.7841041,8.84832764 43.7841041,9.09762573 L43.7841041,11 L44.5128181,11 L44.5128181,8.92912292 C44.5128181,8.5473175 44.4183738,8.25286102 44.2294853,8.04575348 C44.0405967,7.83864594 43.7671821,7.73509216 43.4092414,7.73509216 C43.1780708,7.73509216 42.9854362,7.78426361 42.8313377,7.88260651 C42.6772392,7.9809494 42.5619972,8.11627197 42.4856117,8.28857422 L42.4350288,8.28857422 L42.4350288,7.7991333 L41.7063606,7.7991333 L41.7063606,11 L42.4350288,11 Z" id="Text" fill="currentColor"></path>
            <path d="M6.1304919,9.14285714 C4.35693086,9.14285714 2.91928186,7.73580952 2.91928186,6 C2.91928186,4.26419048 4.35693086,2.85714286 6.1304919,2.85714286 C7.57397947,2.85714286 8.7944339,3.78933333 9.19904637,5.07180952 L12,4.26552381 C11.2394298,1.79771429 8.89972267,0 6.1304919,0 C2.7447088,0 0,2.68628571 0,6 C0,9.31352381 2.7447088,12 6.1304919,12 C6.55378777,12 6.96715808,11.9579048 7.36632122,11.8779048 L6.69624872,9.09104762 C6.51233397,9.12304762 6.32374836,9.14285714 6.1304919,9.14285714 Z" id="Logo" fill="currentColor"></path>
        </g>
    </g>
</svg>