<svg class="icon" width="3.83333333em" height="1em" viewBox="0 0 46 12" version="1.1" xmlns="http://www.w3.org/2000/svg" xmlns:xlink="http://www.w3.org/1999/xlink">
    <title>Warner Archive Collection (Outline)</title>
    <g id="1.-Media" stroke="none" stroke-width="1" fill="none" fill-rule="evenodd">
        <g id="Warner-Archive-Collection-(Outline)" transform="translate(0.000000, 0.000000)" fill="currentColor" fill-rule="nonzero">
            <path d="M14.708786,0.772460938 L13.2067719,5 L13.9989319,5 L14.351,3.907 L15.916,3.907 L16.2685699,5 L17.0606842,5 L15.55867,0.772460938 L15.1590424,0.772460938 L14.708786,0.772460938 Z M15.159,1.559 L15.728,3.324 L14.539,3.324 L15.1084595,1.55802917 L15.159,1.559 Z M18.6794624,5 L18.6794624,3.13946533 C18.6794624,2.98638916 18.7129402,2.85408783 18.7798958,2.74256134 C18.8468513,2.63103485 18.9408226,2.5447464 19.0618095,2.48369598 C19.1827965,2.42264557 19.3243446,2.39212036 19.486454,2.39212036 C19.5499001,2.39212036 19.6114693,2.39564514 19.6711617,2.4026947 C19.730854,2.40974426 19.7904701,2.42001343 19.8500099,2.4335022 L19.8500099,1.77972412 C19.8141212,1.77026367 19.769619,1.76232147 19.7165031,1.75589752 C19.6633873,1.74947357 19.609333,1.7462616 19.5543404,1.7462616 C19.3439217,1.7462616 19.1676826,1.79370117 19.0256233,1.88858032 C18.883564,1.98345947 18.785038,2.11700439 18.7300453,2.28921509 L18.6794624,2.28921509 L18.6794624,1.7991333 L17.9507942,1.7991333 L17.9507942,5 L18.6794624,5 Z M21.977129,5.06399536 C22.2483387,5.06399536 22.4810581,5.01844788 22.6752872,4.92735291 C22.8695164,4.83625793 23.0245609,4.70878601 23.1404209,4.54493713 C23.2562809,4.38108826 23.3316822,4.19052124 23.3666248,3.97323608 L23.3696918,3.9493866 L22.6830463,3.95231628 L22.677187,3.96430969 C22.6322041,4.13206482 22.5517597,4.2589035 22.435854,4.34482574 C22.3199482,4.43074799 22.1672993,4.47370911 21.9779072,4.47370911 C21.812685,4.47370911 21.6710911,4.43106079 21.5531254,4.34576416 C21.4351597,4.26046753 21.3445835,4.13712311 21.2813969,3.9757309 C21.2182102,3.81433868 21.1866169,3.62028503 21.1866169,3.39356995 L21.1866169,3.38771057 C21.1866169,3.16365051 21.2178822,2.9725647 21.2804127,2.81445312 C21.3429432,2.65634155 21.4331837,2.53530884 21.5511341,2.45135498 C21.6690845,2.36740112 21.8113422,2.32542419 21.9779072,2.32542419 C22.1766376,2.32542419 22.3352909,2.37532043 22.453867,2.47511292 C22.572443,2.5749054 22.6478596,2.70292664 22.6801167,2.85917664 L22.6830463,2.86608887 L23.371706,2.86608887 L23.3715687,2.85409546 C23.3440113,2.63320923 23.2720966,2.43888855 23.1558247,2.27113342 C23.0395527,2.1033783 22.8823032,1.9720993 22.6840763,1.87729645 C22.4858494,1.78249359 22.2495289,1.73509216 21.9751148,1.73509216 C21.6542225,1.73509216 21.3795033,1.80121613 21.1509571,1.93346405 C20.922411,2.06571198 20.7475071,2.25494385 20.6262455,2.50115967 C20.5049839,2.74737549 20.4443531,3.04289246 20.4443531,3.38771057 L20.4443531,3.39356995 C20.4443531,3.74238586 20.5053196,4.04154205 20.6272526,4.29103851 C20.7491856,4.54053497 20.9244251,4.73173523 21.1529713,4.86463928 C21.3815174,4.99754333 21.6562366,5.06399536 21.977129,5.06399536 Z M25.0648952,5 L25.0648952,3.13365173 C25.0648952,2.9728241 25.0934825,2.83404541 25.1506572,2.71731567 C25.2078319,2.60058594 25.2889781,2.51010895 25.3940959,2.4458847 C25.4992137,2.38166046 25.6243129,2.34954834 25.7693934,2.34954834 C25.9898219,2.34954834 26.1523585,2.41190338 26.2570033,2.53661346 C26.3616481,2.66132355 26.4139705,2.84832764 26.4139705,3.09762573 L26.4139705,5 L27.1426845,5 L27.1426845,2.92912292 C27.1426845,2.67478943 27.1001811,2.45885468 27.0151744,2.28131866 C26.9301677,2.10378265 26.8057857,1.9683609 26.6420283,1.87505341 C26.478271,1.78174591 26.2772975,1.73509216 26.0391078,1.73509216 C25.8079371,1.73509216 25.6153026,1.78426361 25.4612041,1.88260651 C25.3071055,1.9809494 25.1918635,2.11627197 25.115478,2.28857422 L25.0648952,2.28857422 L25.0648952,0.558181763 L24.3362269,0.558181763 L24.3362269,5 L25.0648952,5 Z M28.6178529,1.26208496 C28.7377565,1.26208496 28.8400819,1.22000122 28.9248292,1.13583374 C29.0095766,1.05166626 29.0519502,0.950592041 29.0519502,0.832611084 C29.0519502,0.71270752 29.0095766,0.611000061 28.9248292,0.527488708 C28.8400819,0.443977356 28.7377565,0.40222168 28.6178529,0.40222168 C28.499872,0.40222168 28.3980196,0.443977356 28.3122957,0.527488708 C28.2265718,0.611000061 28.1837099,0.71270752 28.1837099,0.832611084 C28.1837099,0.950592041 28.2265718,1.05166626 28.3122957,1.13583374 C28.3980196,1.22000122 28.499872,1.26208496 28.6178529,1.26208496 Z M28.9801729,5 L28.9801729,1.7991333 L28.2514589,1.7991333 L28.2514589,5 L28.9801729,5 Z M31.7779129,5 L32.9125259,1.7991333 L32.1461837,1.7991333 L31.4099624,4.28936768 L31.3593795,4.28936768 L30.6194503,1.7991333 L29.8410232,1.7991333 L30.9802597,5 L31.7779129,5 Z M35.0096192,5.06399536 C35.2266908,5.06399536 35.417357,5.03620911 35.5816178,4.9806366 C35.7458787,4.92506409 35.8848634,4.85211182 35.9985719,4.76177979 C36.1122804,4.67144775 36.203032,4.57289124 36.2708268,4.46611023 C36.3386216,4.35932922 36.3852601,4.25439453 36.4107423,4.15130615 L36.4175172,4.12324524 L35.7259278,4.12416077 L35.7160859,4.14498901 C35.693686,4.19326782 35.652945,4.24443054 35.593863,4.29847717 C35.534781,4.3525238 35.4580674,4.3983078 35.3637223,4.43582916 C35.2693772,4.47335052 35.1564851,4.49211121 35.0250459,4.49211121 C34.8571382,4.49211121 34.7119966,4.45488739 34.5896211,4.38043976 C34.4672456,4.30599213 34.3730683,4.19876099 34.3070893,4.05874634 C34.2576051,3.95373535 34.2266774,3.8325882 34.2143064,3.69530487 L34.209,3.583 L36.4481874,3.58221436 L36.4481874,3.34124756 C36.4481874,3.01937866 36.3888383,2.73809052 36.2701402,2.49738312 C36.1514421,2.25667572 35.9819551,2.06945038 35.7616792,1.93570709 C35.5414033,1.80196381 35.2793489,1.73509216 34.9755158,1.73509216 C34.6724458,1.73509216 34.4087434,1.80427551 34.1844087,1.94264221 C33.9600739,2.08100891 33.786551,2.27509308 33.6638398,2.52489471 C33.5411286,2.77469635 33.479773,3.06794739 33.479773,3.40464783 L33.479773,3.40757751 C33.479773,3.74693298 33.5412812,4.04051208 33.6642976,4.28831482 C33.7873139,4.53611755 33.9629197,4.72734833 34.1911149,4.86200714 C34.4193101,4.99666595 34.6921449,5.06399536 35.0096192,5.06399536 Z M35.737,3.094 L34.217,3.094 L34.2333608,2.97615814 C34.2501874,2.88930511 34.2754273,2.81037903 34.3090806,2.73937988 C34.3763871,2.59738159 34.4682755,2.48982239 34.5847459,2.41670227 C34.7012162,2.34358215 34.8342195,2.30702209 34.9837556,2.30702209 C35.1338716,2.30702209 35.2660127,2.34224701 35.3801789,2.41269684 C35.4943452,2.48314667 35.5837388,2.58870697 35.6483598,2.72937775 C35.6806703,2.79971313 35.7049031,2.87914085 35.7210584,2.9676609 L35.737,3.094 Z M15.2838745,11.1051941 C15.6100159,11.1051941 15.900444,11.0461197 16.155159,10.9279709 C16.409874,10.8098221 16.617218,10.6451721 16.7771912,10.434021 C16.9371643,10.2228699 17.0356293,9.97663879 17.0725861,9.69532776 L17.0735474,9.67184448 L16.3325195,9.67184448 L16.3266602,9.68974304 C16.291748,9.84443665 16.2262497,9.97901154 16.1301651,10.0934677 C16.0340805,10.2079239 15.9141541,10.2962723 15.7703857,10.3585129 C15.6266174,10.4207535 15.4647522,10.4518738 15.28479,10.4518738 C15.0442505,10.4518738 14.8364563,10.3883591 14.6614075,10.2613297 C14.4863586,10.1343002 14.3514633,9.95378876 14.2567215,9.71979523 C14.1619797,9.4858017 14.1146088,9.20878601 14.1146088,8.88874817 L14.1146088,8.88288879 C14.1146088,8.5615387 14.1619797,8.28417206 14.2567215,8.05078888 C14.3514633,7.8174057 14.4863586,7.63735962 14.6614075,7.51065063 C14.8364563,7.38394165 15.0432739,7.32058716 15.2818604,7.32058716 C15.4604797,7.32058716 15.6218033,7.35501862 15.765831,7.42388153 C15.9098587,7.49274445 16.0307388,7.5892334 16.1284714,7.71334839 C16.2262039,7.83746338 16.2929382,7.98323059 16.3286743,8.15065002 L16.331604,8.1648407 L17.0706177,8.1648407 L17.0716705,8.13948059 C17.0393219,7.85264587 16.9420319,7.5984726 16.7798004,7.37696075 C16.617569,7.15544891 16.407608,6.98178864 16.1499176,6.85597992 C15.8922272,6.7301712 15.6028748,6.66726685 15.2818604,6.66726685 C14.8823547,6.66726685 14.5378799,6.75695801 14.248436,6.93634033 C13.958992,7.11572266 13.7358017,7.37091827 13.5788651,7.70192719 C13.4219284,8.0329361 13.3434601,8.4269104 13.3434601,8.8838501 L13.3434601,8.88970947 C13.3434601,9.3453064 13.4219284,9.73860931 13.5788651,10.0696182 C13.7358017,10.4006271 13.9594803,10.6559753 14.2499008,10.8356628 C14.5403214,11.0153503 14.8849792,11.1051941 15.2838745,11.1051941 Z M19.4588451,11.0639954 C19.7794018,11.0639954 20.0545712,10.9973068 20.2843533,10.8639297 C20.5141354,10.7305527 20.6908932,10.5396271 20.8146267,10.291153 C20.9383602,10.0426788 21.000227,9.74615479 21.000227,9.40158081 L21.000227,9.39572144 C21.000227,9.05163574 20.9379025,8.75551605 20.8132534,8.50736237 C20.6886044,8.25920868 20.5113811,8.06845856 20.2815838,7.935112 C20.0517864,7.80176544 19.7775402,7.73509216 19.4588451,7.73509216 C19.1420727,7.73509216 18.8684597,7.80191803 18.6380062,7.93556976 C18.4075527,8.0692215 18.2298412,8.26012421 18.1048717,8.50827789 C17.9799023,8.75643158 17.9174175,9.05224609 17.9174175,9.39572144 L17.9174175,9.40158081 C17.9174175,9.74615479 17.9794369,10.0426788 18.1034756,10.291153 C18.2275143,10.5396271 18.4047604,10.7305527 18.6352139,10.8639297 C18.8656673,10.9973068 19.1402111,11.0639954 19.4588451,11.0639954 Z M19.4588451,10.4737091 C19.2899303,10.4737091 19.1463375,10.4313126 19.0280666,10.3465195 C18.9097958,10.2617264 18.8194561,10.1394806 18.7570477,9.9797821 C18.6946392,9.82008362 18.663435,9.62765503 18.663435,9.40249634 L18.663435,9.39663696 C18.663435,9.17138672 18.6947918,8.97906494 18.7575054,8.81967163 C18.820219,8.66027832 18.9107113,8.53805542 19.0289822,8.45300293 C19.147253,8.36795044 19.2905407,8.32542419 19.4588451,8.32542419 C19.6277599,8.32542419 19.7711926,8.36795044 19.889143,8.45300293 C20.0070934,8.53805542 20.0974331,8.66027832 20.160162,8.81967163 C20.2228909,8.97906494 20.2542553,9.17138672 20.2542553,9.39663696 L20.2542553,9.40249634 C20.2542553,9.62704468 20.2230434,9.81916809 20.1606197,9.97886658 C20.098196,10.1385651 20.008009,10.2609634 19.8900585,10.3460617 C19.7721081,10.43116 19.6283703,10.4737091 19.4588451,10.4737091 Z M22.7291703,11 L22.7291703,6.55818176 L22.0005021,6.55818176 L22.0005021,11 L22.7291703,11 Z M24.6465449,11 L24.6465449,6.55818176 L23.9178767,6.55818176 L23.9178767,11 L24.6465449,11 Z M27.1766362,11.0639954 C27.3937078,11.0639954 27.584374,11.0362091 27.7486348,10.9806366 C27.9128957,10.9250641 28.0518804,10.8521118 28.1655889,10.7617798 C28.2792974,10.6714478 28.370049,10.5728912 28.4378438,10.4661102 C28.5056386,10.3593292 28.5522771,10.2543945 28.5777593,10.1513062 L28.5845342,10.1232452 L27.8929448,10.1241608 L27.8831029,10.144989 C27.860703,10.1932678 27.819962,10.2444305 27.76088,10.2984772 C27.701798,10.3525238 27.6250844,10.3983078 27.5307393,10.4358292 C27.4363942,10.4733505 27.3235021,10.4921112 27.1920629,10.4921112 C27.0241551,10.4921112 26.8790135,10.4548874 26.7566381,10.3804398 C26.6342626,10.3059921 26.5400853,10.198761 26.4741063,10.0587463 C26.4246221,9.95373535 26.3936944,9.8325882 26.3813233,9.69530487 L26.376,9.583 L28.6152043,9.58221436 L28.6152043,9.34124756 C28.6152043,9.01937866 28.5558553,8.73809052 28.4371572,8.49738312 C28.318459,8.25667572 28.148972,8.06945038 27.9286962,7.93570709 C27.7084203,7.80196381 27.4463658,7.73509216 27.1425328,7.73509216 C26.8394628,7.73509216 26.5757604,7.80427551 26.3514256,7.94264221 C26.1270909,8.08100891 25.953568,8.27509308 25.8308568,8.52489471 C25.7081456,8.77469635 25.64679,9.06794739 25.64679,9.40464783 L25.64679,9.40757751 C25.64679,9.74693298 25.7082982,10.0405121 25.8313146,10.2883148 C25.9543309,10.5361176 26.1299367,10.7273483 26.3581319,10.8620071 C26.5863271,10.996666 26.8591619,11.0639954 27.1766362,11.0639954 Z M27.904,9.094 L26.384,9.094 L26.4003778,8.97615814 C26.4172044,8.88930511 26.4424443,8.81037903 26.4760976,8.73937988 C26.5434041,8.59738159 26.6352925,8.48982239 26.7517629,8.41670227 C26.8682332,8.34358215 27.0012364,8.30702209 27.1507726,8.30702209 C27.3008885,8.30702209 27.4330297,8.34224701 27.5471959,8.41269684 C27.6613622,8.48314667 27.7507558,8.58870697 27.8153768,8.72937775 C27.8476872,8.79971313 27.8719201,8.87914085 27.8880754,8.9676609 L27.904,9.094 Z M30.9597847,11.0639954 C31.2309945,11.0639954 31.4637139,11.0184479 31.657943,10.9273529 C31.8521721,10.8362579 32.0072167,10.708786 32.1230767,10.5449371 C32.2389367,10.3810883 32.314338,10.1905212 32.3492806,9.97323608 L32.3523476,9.9493866 L31.6657021,9.95231628 L31.6598427,9.96430969 C31.6148598,10.1320648 31.5344155,10.2589035 31.4185097,10.3448257 C31.302604,10.430748 31.149955,10.4737091 30.9605629,10.4737091 C30.7953408,10.4737091 30.6537468,10.4310608 30.5357811,10.3457642 C30.4178154,10.2604675 30.3272393,10.1371231 30.2640526,9.9757309 C30.200866,9.81433868 30.1692727,9.62028503 30.1692727,9.39356995 L30.1692727,9.38771057 C30.1692727,9.16365051 30.2005379,8.9725647 30.2630684,8.81445312 C30.325599,8.65634155 30.4158394,8.53530884 30.5337899,8.45135498 C30.6517403,8.36740112 30.793998,8.32542419 30.9605629,8.32542419 C31.1592934,8.32542419 31.3179467,8.37532043 31.4365227,8.47511292 C31.5550988,8.5749054 31.6305153,8.70292664 31.6627724,8.85917664 L31.6657021,8.86608887 L32.3543618,8.86608887 L32.3542244,8.85409546 C32.3266671,8.63320923 32.2547524,8.43888855 32.1384804,8.27113342 C32.0222085,8.1033783 31.864959,7.9720993 31.6667321,7.87729645 C31.4685051,7.78249359 31.2321846,7.73509216 30.9577706,7.73509216 C30.6368783,7.73509216 30.362159,7.80121613 30.1336129,7.93346405 C29.9050667,8.06571198 29.7301629,8.25494385 29.6089013,8.50115967 C29.4876397,8.74737549 29.4270089,9.04289246 29.4270089,9.38771057 L29.4270089,9.39356995 C29.4270089,9.74238586 29.4879754,10.0415421 29.6099083,10.2910385 C29.7318413,10.540535 29.9070809,10.7317352 30.135627,10.8646393 C30.3641732,10.9975433 30.6388924,11.0639954 30.9597847,11.0639954 Z M34.5889795,11.0160217 C34.660177,11.0160217 34.7283838,11.0126266 34.7935998,11.0058365 C34.8588159,10.9990463 34.917074,10.9911346 34.968374,10.9821014 L34.968374,10.4204712 C34.9251916,10.4243774 34.8862512,10.4274597 34.8515527,10.429718 C34.8168542,10.4319763 34.7739618,10.4331055 34.7228754,10.4331055 C34.5711725,10.4331055 34.4615533,10.3969116 34.3940179,10.3245239 C34.3264825,10.2521362 34.2927148,10.1361542 34.2927148,9.97657776 L34.2927148,8.36199951 L34.968374,8.36199951 L34.968374,7.7991333 L34.2927148,7.7991333 L34.2927148,7.01141357 L33.5520074,7.01141357 L33.5520074,7.7991333 L33.0548761,7.7991333 L33.0548761,8.36199951 L33.5520074,8.36199951 L33.5520074,10.1490631 C33.5520074,10.4572601 33.6331079,10.6788025 33.7953088,10.8136902 C33.9575098,10.9485779 34.2220666,11.0160217 34.5889795,11.0160217 Z M36.3112996,7.26208496 C36.4312031,7.26208496 36.5335286,7.22000122 36.6182759,7.13583374 C36.7030232,7.05166626 36.7453969,6.95059204 36.7453969,6.83261108 C36.7453969,6.71270752 36.7030232,6.61100006 36.6182759,6.52748871 C36.5335286,6.44397736 36.4312031,6.40222168 36.3112996,6.40222168 C36.1933186,6.40222168 36.0914662,6.44397736 36.0057423,6.52748871 C35.9200184,6.61100006 35.8771565,6.71270752 35.8771565,6.83261108 C35.8771565,6.95059204 35.9200184,7.05166626 36.0057423,7.13583374 C36.0914662,7.22000122 36.1933186,7.26208496 36.3112996,7.26208496 Z M36.6736195,11 L36.6736195,7.7991333 L35.9449055,7.7991333 L35.9449055,11 L36.6736195,11 Z M39.1940005,11.0639954 C39.5145571,11.0639954 39.7897265,10.9973068 40.0195086,10.8639297 C40.2492907,10.7305527 40.4260485,10.5396271 40.549782,10.291153 C40.6735156,10.0426788 40.7353823,9.74615479 40.7353823,9.40158081 L40.7353823,9.39572144 C40.7353823,9.05163574 40.6730578,8.75551605 40.5484087,8.50736237 C40.4237597,8.25920868 40.2465365,8.06845856 40.0167391,7.935112 C39.7869418,7.80176544 39.5126956,7.73509216 39.1940005,7.73509216 C38.877228,7.73509216 38.603615,7.80191803 38.3731616,7.93556976 C38.1427081,8.0692215 37.9649966,8.26012421 37.8400271,8.50827789 C37.7150576,8.75643158 37.6525729,9.05224609 37.6525729,9.39572144 L37.6525729,9.40158081 C37.6525729,9.74615479 37.7145922,10.0426788 37.8386309,10.291153 C37.9626696,10.5396271 38.1399157,10.7305527 38.3703692,10.8639297 C38.6008227,10.9973068 38.8753664,11.0639954 39.1940005,11.0639954 Z M39.1940005,10.4737091 C39.0250857,10.4737091 38.8814929,10.4313126 38.763222,10.3465195 C38.6449511,10.2617264 38.5546114,10.1394806 38.492203,9.9797821 C38.4297945,9.82008362 38.3985903,9.62765503 38.3985903,9.40249634 L38.3985903,9.39663696 C38.3985903,9.17138672 38.4299471,8.97906494 38.4926608,8.81967163 C38.5553744,8.66027832 38.6458666,8.53805542 38.7641375,8.45300293 C38.8824084,8.36795044 39.025696,8.32542419 39.1940005,8.32542419 C39.3629153,8.32542419 39.5063479,8.36795044 39.6242983,8.45300293 C39.7422488,8.53805542 39.8325884,8.66027832 39.8953173,8.81967163 C39.9580462,8.97906494 39.9894106,9.17138672 39.9894106,9.39663696 L39.9894106,9.40249634 C39.9894106,9.62704468 39.9581988,9.81916809 39.8957751,9.97886658 C39.8333514,10.1385651 39.7431643,10.2609634 39.6252139,10.3460617 C39.5072634,10.43116 39.3635256,10.4737091 39.1940005,10.4737091 Z M42.4350288,11 L42.4350288,9.13365173 C42.4350288,8.9728241 42.4636161,8.83404541 42.5207908,8.71731567 C42.5779655,8.60058594 42.6591117,8.51010895 42.7642295,8.4458847 C42.8693473,8.38166046 42.9944465,8.34954834 43.1395271,8.34954834 C43.3599555,8.34954834 43.5224922,8.41190338 43.6271369,8.53661346 C43.7317817,8.66132355 43.7841041,8.84832764 43.7841041,9.09762573 L43.7841041,11 L44.5128181,11 L44.5128181,8.92912292 C44.5128181,8.5473175 44.4183738,8.25286102 44.2294853,8.04575348 C44.0405967,7.83864594 43.7671821,7.73509216 43.4092414,7.73509216 C43.1780708,7.73509216 42.9854362,7.78426361 42.8313377,7.88260651 C42.6772392,7.9809494 42.5619972,8.11627197 42.4856117,8.28857422 L42.4350288,8.28857422 L42.4350288,7.7991333 L41.7063606,7.7991333 L41.7063606,11 L42.4350288,11 Z" id="Text"></path>
            <g id="Logo">
                <path d="M5.9978006,0 C5.70468035,0.0599335963 3.12496539,0.383549712 2.803815,0.537313303 C2.72980853,0.679286955 2.57512984,1.12223829 2.52607705,1.19232405 C2.3187564,1.23506355 1.47862077,1.38817229 1.42580777,1.4174844 C1.39623936,1.50263533 1.20319017,1.86616634 1.15875207,1.90874181 C0.980828919,1.9513176 0.151375427,2.09865391 0.0478005683,2.16972259 C-0.0113362388,2.51032793 -0.237115778,5.91851282 1.24420986,8.14669495 C2.72553559,10.3748774 5.31635972,11.8580263 5.9978006,12 L6.00314102,12 C6.68458157,11.8580263 9.27006504,10.3748777 10.7513908,8.14669495 C12.2325458,5.9183491 12.0126203,2.51032793 11.9531411,2.16972259 C11.8493953,2.09865391 11.0197715,1.9513176 10.8421894,1.90874181 C10.7977513,1.86616634 10.6048727,1.50263533 10.5751341,1.4174844 C10.5224919,1.38817229 9.682527,1.23489984 9.47486457,1.19232405 C9.42581178,1.12223829 9.27130414,0.679286955 9.19712639,0.537313303 C8.87700189,0.384040851 6.29502252,0.0610795882 5.99780027,0 L5.9978006,0 Z M5.9978006,0.869936251 C6.25178116,0.922009671 8.45881479,1.20460545 8.7324503,1.3356074 C8.7955185,1.45694834 8.92575624,1.83345646 8.96745973,1.89339005 C9.14469909,1.92974345 9.86771489,2.05767473 9.91283689,2.08272899 C9.93813205,2.15543513 10.0990493,2.47110972 10.1371631,2.50746311 C10.289107,2.54381586 10.9993468,2.66691679 11.087881,2.72750524 C11.1386432,3.01865754 11.328531,5.9300982 10.0623875,7.83454166 C8.79624463,9.7391485 6.5856223,11.0088868 6.0031417,11.1300637 L5.99780128,11.1300637 C5.41532034,11.0088865 3.20469753,9.73898512 1.93855461,7.83454166 C0.672582624,5.9300982 0.862469861,3.01865754 0.913060889,2.72750524 C1.0017661,2.66675307 1.71183501,2.54381586 1.86377904,2.50746311 C1.90189322,2.47110972 2.06281025,2.15543513 2.08810575,2.08272899 C2.13322751,2.05767473 2.85090219,1.92974345 3.02814171,1.89339005 C3.07001588,1.83345646 3.20525303,1.45694834 3.2684918,1.3356074 C3.54281135,1.20411431 5.74723855,0.921026744 5.9978006,0.869936251 Z" id="path5"></path>
                <path d="M6.40372535,1.80127921 C6.32050784,1.80913938 6.30809763,1.86493833 6.30758534,1.8882728 C6.29049385,4.61410004 6.29861224,7.50584944 6.27553845,10.3061834 C6.29433869,10.3947733 6.4417965,10.2586129 6.52657049,10.2140725 C7.60573179,9.64568678 10.9716587,6.52243242 9.03689394,5.40383794 C10.5183903,4.47568788 10.2543684,3.58990872 9.59771072,3.10618344 C8.23995653,2.10549096 6.69086366,1.85703731 6.51054755,1.81151371 C6.46546852,1.80016686 6.43146418,1.79865947 6.40372535,1.80127921 Z M7.30637309,2.92196175 C7.32739605,2.91099006 8.19769845,3.22011417 8.67369827,3.5309172 C9.21943141,3.8872429 9.03467224,4.22969058 8.71642702,4.43667391 C8.54363141,4.54949949 7.47429793,5.28532195 7.2956909,5.32707885 C7.2917591,5.18510552 7.29098966,3.58417746 7.30637309,2.92196175 L7.30637309,2.92196175 Z M8.10219931,6.03837968 C8.22142563,6.04189514 8.33468691,6.07841711 8.41732514,6.16119404 C8.49116046,6.22882409 8.81662605,6.56496704 8.12356368,7.52750529 C7.86548146,7.96406987 7.32431964,8.51161769 7.26364469,8.56631117 C7.25629438,8.56827573 7.25326161,8.55742754 7.24762107,8.56119392 C7.25326161,8.2482629 7.24450473,6.73338668 7.26364469,6.30959497 C7.30197198,6.29043599 7.74451832,6.02783299 8.10219931,6.03838001 L8.10219931,6.03837968 Z" id="path9"></path>
                <path d="M2.72480919,2.78281272 C2.63610397,2.81916611 1.88048605,3.28013008 1.80442855,3.35283622 C1.78340599,3.99540152 1.96320921,5.72905101 2.62550722,7.0821391 C2.7092559,7.2532605 2.80018295,7.41373827 2.89863038,7.55898684 C3.0874922,7.87142671 3.09808895,7.84670019 3.31788641,7.547524 C3.47017215,7.35020202 3.68979849,7.05757597 3.74483357,6.99731527 C3.82072006,7.23983278 4.3114188,8.75257976 5.00157631,9.66681096 C5.30751485,10.0724263 5.77736184,10.4556074 5.77548751,10.29775 C5.75668131,8.75307122 5.71053406,2.06672239 5.76112506,1.79423825 C5.55756462,1.78965233 4.88979741,1.87300307 4.75767938,1.93866792 C4.74674105,2.18315031 4.84946124,6.76789774 4.7862225,7.28928614 C4.31842634,6.19738339 4.15879145,3.31599201 4.25125647,2.12714745 C3.99813063,2.17561788 3.3807834,2.4128956 3.29224909,2.49788281 C3.17841925,2.71616527 3.33378161,5.11022962 3.49546764,5.91376384 C3.44026203,5.99711392 3.28113952,6.22342026 3.25584402,6.25977333 C2.93554817,5.70776279 2.62943828,4.00113278 2.72480919,2.78281272 Z" id="path15"></path>
            </g>
        </g>
    </g>
</svg>