<svg class="douban-gray icon" width="24" height="22" viewBox="0 0 24 22" xmlns="http://www.w3.org/2000/svg">
	<path d="M22.758.405c-.233-.52-.9-.542-1.18-.05-1.29 2.246-3.604 3.646-6.245 3.646h-3.334c-4.417 0-8 3.584-8 8.001 0 .292.032.571.062.854 2.658-1.904 6.496-3.52 11.938-3.52.367 0 .667.3.667.666 0 .367-.3.667-.667.667-10.476 0-14.918 6.421-15.901 8.834a1.335 1.335 0 0 0 2.471 1.013c.062-.15.87-1.997 2.996-3.776 1.35 1.83 3.917 3.575 7.288 3.217C19.395 19.482 24 13.615 24 6.431c0-2.092-.45-4.259-1.242-6.026z" fill="currentColor" fill-rule="nonzero" />
</svg>