<svg class="rotten-tomatoes icon" width="24" height="24" viewBox="0 0 24 24" xmlns="http://www.w3.org/2000/svg" xmlns:xlink="http://www.w3.org/1999/xlink">
	<defs>
		<path d="M0 0h23.125v19.04H0z" id="a" />
	</defs>
	<g fill="none" fill-rule="evenodd">
		<g transform="translate(.398 4.954)">
			<mask fill="#fff" id="b">
				<use xlink:href="#a" />
			</mask>
			<path d="M23.104 8.039c-.231-3.71-2.118-6.487-4.958-8.039.016.09-.064.203-.156.163-1.857-.812-5.007 1.817-7.21.44.017.495-.079 2.905-3.475 3.045-.08.003-.124-.079-.073-.137.454-.518.912-1.829.253-2.528-1.412 1.265-2.232 1.741-4.939 1.113C.813 3.908-.169 6.388.024 9.478c.393 6.308 6.301 9.913 12.25 9.542 5.95-.37 11.224-4.674 10.83-10.981" fill="#FA320A" fill-rule="nonzero" mask="url(#b)" />
		</g>
		<path d="M12.66 3.44c1.222-.292 4.739-.029 5.865 1.465.068.09-.027.26-.136.212-1.857-.812-5.008 1.817-7.21.44.017.494-.08 2.905-3.475 3.044-.08.004-.124-.078-.074-.136.454-.518.913-1.83.254-2.528-1.538 1.378-2.372 1.82-5.71.918-.11-.03-.072-.205.044-.249.631-.241 2.06-1.297 3.413-1.763.257-.088.514-.157.764-.197-1.489-.133-2.16-.34-3.107-.197a.118.118 0 0 1-.11-.188c1.276-1.644 3.627-2.14 5.077-1.267a324.279 324.279 0 0 1-1.594-1.99L8.32.06l1.184 2.646c1.234-1.824 3.53-1.992 4.5-.698.058.077-.002.186-.098.184-.79-.02-1.225.699-1.258 1.245l.012.001" fill="#00912D" fill-rule="nonzero" />
	</g>
</svg>