<svg xmlns="http://www.w3.org/2000/svg" viewBox="0 0 210 37">
    <defs>
        <style>
            .a {
                fill: #aaa
            }
        </style>
    </defs>
    <path class="a" d="M180.61 35H29.39A8.45 8.45 0 0 1 21 26.56V10.44A8.45 8.45 0 0 1 29.39 2h151.22a8.45 8.45 0 0 1 8.44 8.44v16.12a8.45 8.45 0 0 1-8.44 8.44zM29.39 4A6.45 6.45 0 0 0 23 10.44v16.12A6.45 6.45 0 0 0 29.39 33h151.22a6.45 6.45 0 0 0 6.44-6.44V10.44A6.45 6.45 0 0 0 180.61 4z" />
    <path class="a" d="M65.41 18.21c0-2.39.08-6.66.08-6.68s-.68 1.44-2.55 4.76L59.1 23h-1l-3.76-6.66c-2-3.4-2.58-4.82-2.6-4.84h-.04s.08 4.29.08 6.68v9.34h-1.5V9.13h1.58l6.74 12 6.71-12h1.58v18.42h-1.48z" />
    <path class="a" d="M66.94 27.8h-1.53a.25.25 0 0 1-.25-.25v-9.34c0-1.59 0-4 .07-5.71-.39.76-1.06 2-2.12 3.91l-3.79 6.74a.26.26 0 0 1-.22.13h-1a.24.24 0 0 1-.21-.13l-3.77-6.66c-.87-1.51-1.59-2.85-2.17-4 0 1.71.06 4.11.06 5.7v9.34a.25.25 0 0 1-.25.25h-1.5a.25.25 0 0 1-.25-.25V9.13a.26.26 0 0 1 .25-.25h1.58a.25.25 0 0 1 .22.13l6.54 11.68L65.14 9a.26.26 0 0 1 .22-.13h1.58a.25.25 0 0 1 .25.25v18.43a.25.25 0 0 1-.25.25zm-1.28-.5h1V9.38h-1.15l-6.64 11.9a.26.26 0 0 1-.22.13.34.34 0 0 1-.27-.13l-6.66-11.9h-1.19V27.3h1v-9.09c0-1.88 0-4.92-.07-6.56v-.12a.25.25 0 0 1 .25-.25.35.35 0 0 1 .23.07s0 .05.13.22c.61 1.25 1.46 2.83 2.52 4.67l3.69 6.54H59l3.72-6.61c1.49-2.65 2.21-4.09 2.45-4.57.11-.22.11-.22.14-.25s.48 0 .48.18v.12c0 1.64-.08 4.68-.08 6.56zm8.25-18.17H86v1.42H75.41v6.58h8.37v1.45h-8.37v7.55H86v1.42H73.91z" />
    <path class="a" d="M86 27.8H73.91a.25.25 0 0 1-.25-.25V9.13a.26.26 0 0 1 .25-.25H86a.26.26 0 0 1 .25.25v1.42a.25.25 0 0 1-.25.25H75.66v6.08h8.12a.25.25 0 0 1 .25.25v1.45a.25.25 0 0 1-.25.25h-8.12v7.05H86a.25.25 0 0 1 .25.25v1.42a.25.25 0 0 1-.25.25zm-11.88-.5h11.67v-.92H75.41a.25.25 0 0 1-.25-.25v-7.55a.25.25 0 0 1 .25-.25h8.12v-.95h-8.12a.25.25 0 0 1-.25-.25v-6.58a.25.25 0 0 1 .25-.25h10.36v-.92H74.16zM93.7 11.47s.08 2.11.08 4.37v11.71h-1.5V9.13h1.52l11.61 15.95V9.13h1.5v18.42h-1.52z" />
    <path class="a" d="M106.83 27.8h-1.53a.26.26 0 0 1-.2-.1L93.92 12.21c0 .94.06 2.26.06 3.63v11.71a.25.25 0 0 1-.25.25h-1.5a.25.25 0 0 1-.25-.25V9.13a.25.25 0 0 1 .25-.25h1.52A.26.26 0 0 1 94 9l11.16 15.33V9.13a.25.25 0 0 1 .25-.25h1.5a.25.25 0 0 1 .25.25v18.42a.25.25 0 0 1-.33.25zm-1.4-.5h1.15V9.38h-1v15.7a.25.25 0 0 1-.25.25.29.29 0 0 1-.22-.1L93.63 9.38h-1.15V27.3h1V15.84c0-1.77 0-3.45-.08-4.29v-.08a.25.25 0 0 1 .25-.25.33.33 0 0 1 .25.11zm22.5-7.3c0 5.13-2.42 7.87-7.18 7.87s-7.18-2.74-7.18-7.87V9.13h1.55v10.92c0 4.24 1.76 6.4 5.63 6.4s5.66-2.16 5.66-6.4V9.13h1.52z" />
    <path class="a" d="M120.75 28.12c-4.86 0-7.43-2.81-7.43-8.12V9.13a.25.25 0 0 1 .25-.25h1.55a.25.25 0 0 1 .25.25v10.92c0 4.19 1.71 6.15 5.38 6.15s5.41-2 5.41-6.15V9.13a.25.25 0 0 1 .25-.25h1.52a.25.25 0 0 1 .25.25V20c0 5.31-2.57 8.12-7.43 8.12zm-6.93-18.74V20c0 5.05 2.33 7.62 6.93 7.62s6.93-2.57 6.93-7.62V9.38h-1v10.67c0 4.47-1.93 6.65-5.91 6.65s-5.88-2.18-5.88-6.65V9.38zM153 20.89a1 1 0 0 1-.71-1.71l7.23-7.18a1 1 0 1 1 1.41 1.41l-7.22 7.22a1 1 0 0 1-.71.26z" />
    <path class="a" d="M153 20.89a1 1 0 0 1-.71-.3l-7.22-7.22a1 1 0 1 1 1.41-1.37l7.23 7.22a1 1 0 0 1-.71 1.71zm0 6a1 1 0 0 1-.71-1.71l7.23-7.18a1 1 0 1 1 1.41 1.41l-7.22 7.22a1 1 0 0 1-.71.26z" />
    <path class="a" d="M153 26.89a1 1 0 0 1-.71-.3l-7.22-7.22a1 1 0 1 1 1.41-1.37l7.23 7.22a1 1 0 0 1-.71 1.71z" />
</svg>