<svg xmlns="http://www.w3.org/2000/svg" viewBox="0 0 32 32">
	<defs>
		<style>.a{fill:#aaa}</style>
	</defs>
	<path class="a" d="M21.45 22.81a1 1 0 0 1-.71-.29L16 17.78l-4.74 4.74a1 1 0 0 1-1.42 0 1 1 0 0 1 0-1.41l5.45-5.45a1 1 0 0 1 1.42 0l5.45 5.45a1 1 0 0 1 0 1.41 1 1 0 0 1-.71.29z" />
	<path class="a" d="M16 30.33a1 1 0 0 1-1-1v-12a1 1 0 1 1 2 0v12a1 1 0 0 1-1 1zm7-16.44a1 1 0 0 1-1-1A3.92 3.92 0 0 0 18.11 9a1 1 0 0 1 0-2A5.92 5.92 0 0 1 24 12.89a1 1 0 0 1-1 1z" />
	<path class="a" d="M25.12 26.53h-1.4a1 1 0 0 1 0-2h1.4a4.61 4.61 0 0 0 1-9.11 1 1 0 0 1-.75-1.15 8.25 8.25 0 0 0 .13-1.38 7.42 7.42 0 0 0-14.76-1.08 1 1 0 0 1-1.2.83 5.88 5.88 0 0 0-1.29-.15 6 6 0 0 0 0 12 1 1 0 1 1 0 2 8 8 0 1 1 .72-16 9.42 9.42 0 0 1 18.53 2.37v.85a6.61 6.61 0 0 1-2.37 12.79z" />
</svg>