<?xml version="1.0" encoding="utf-8"?>
<!-- Generator: Adobe Illustrator 24.0.1, SVG Export Plug-In . SVG Version: 6.00 Build 0)  -->
<svg version="1.1" id="图层_1" xmlns="http://www.w3.org/2000/svg" xmlns:xlink="http://www.w3.org/1999/xlink" x="0px" y="0px" viewBox="0 0 1068.7 1012.9" style="enable-background:new 0 0 1068.7 1012.9;" xml:space="preserve">
	<style type="text/css">
	.st0{fill:none;}
	.st1{fill:#aaa;}
</style>
	<g>
		<title>background</title>
		<rect id="canvas_background" x="-72.1" y="-6.5" class="st0" width="582" height="402" />
	</g>
	<g>
		<title>Layer 1</title>
		<path id="svg_1" class="st1" d="M1007.1,556.1c0,0,148.6,114.3-15.7,257.9c0,0-280.8,239.3-525.3,193.2c0,0-271.7,8.8-342-266.8
		c0,0-32.2-216.9-94.7-334.2c0,0-114.7-217.4,101.7-267.8c0,0,67.4-247.3,295.4-80.9c0,0,284.7-153.2,396.6,184.5
		C823.1,242,1060.8,315.6,1007.1,556.1L1007.1,556.1L1007.1,556.1z M925.8,775.8c154.1-126.4-1-185.8,2.4-189.2
		c81.2-247.2-159.8-289.9-159.8-289.9C677.1-40.8,420.1,140.1,420.1,140.1c-207.4-186.9-226.7,60.7-226.7,60.7
		C-16.4,209.9,105,392.9,98.1,386c59,100.1,94.7,334.2,94.7,334.2c52.9,230.8,273,218.2,273,218.2
		C682.6,977.5,925.8,775.8,925.8,775.8L925.8,775.8z M871.5,649.7c-133.4,168.3-412.5,231-412.5,231c-3.3,3.3-3.3,3.3-10.2,3.2
		c-13.5-0.1-24.4-11-24.4-24.4c-0.1-6.8,9.9-16.9,20.1-20.1c102-25.3,282-86.6,392.2-217.7c3.2-10.2,13.4-13.4,20.2-13.2
		c13.5,0.1,24.4,11,24.4,24.4C881.6,639.7,874.9,646.4,871.5,649.7L871.5,649.7L871.5,649.7z M720.7,401
		c-32.6,232.5-324.4,418-321,414.7c-3.3,3.3-6.5,0.2-9.8,3.5c-12.9,0.4-25.5-5.7-28.5-15.3c-3-9.5,3.9-22.6,13.6-26.1
		c85.4-60.4,269.5-194.5,300.6-375.5c-3-9.6,7-19.5,16.7-23c12.9-0.4,25.5,5.7,28.5,15.3L720.7,401L720.7,401L720.7,401z
		 M331.3,729.7c-3.3,3.3-6.7,6.7-3.3,10c-10,10-23.3,10-33.3,0.1c-9.9-9.9-9.9-23.2-3.2-29.9c163.9-356.2,91-449,91-449
		c-10-10-9.9-23.3,0.1-33.3c10-10,23.3-10,33.2-0.1l3.3,3.3C508.4,373.5,331.2,729.7,331.3,729.7L331.3,729.7L331.3,729.7z" />
	</g>
</svg>