<svg xmlns="http://www.w3.org/2000/svg" viewBox="0 0 32 32">
	<defs>
		<style>.a{fill:#555}</style>
	</defs>
	<path class="a" d="M1.53 27a.76.76 0 0 1-.75-.75V1.1a.75.75 0 0 1 .75-.75h18.82a.74.74 0 0 1 .75.75v10.09a.75.75 0 0 1-1.5 0V1.85H2.28V26.2a.76.76 0 0 1-.75.8zm18.82 0H12.5a.75.75 0 0 1 0-1.5h7.1v-4.1a.75.75 0 0 1 1.5 0v4.8a.75.75 0 0 1-.75.8z" />
	<path class="a" d="M12.51 31.65a.8.8 0 0 1-.3-.06l-11-4.7a.76.76 0 0 1-.45-.69V1.1a.77.77 0 0 1 .36-.63.75.75 0 0 1 .71-.06l11 4.7a.76.76 0 0 1 .45.69v25.1a.77.77 0 0 1-.34.63.75.75 0 0 1-.43.12zM2.28 25.7l9.48 4.06V6.3L2.28 2.24zM24.27 23a.79.79 0 0 1-.53-.22.75.75 0 0 1 0-1.06L29.41 16l-5.67-5.67a.75.75 0 0 1 0-1.06.77.77 0 0 1 1.07 0l6.19 6.2a.75.75 0 0 1 0 1.06l-6.19 6.2a.79.79 0 0 1-.54.27z" />
	<path class="a" d="M29.2 16.75h-13a.75.75 0 0 1 0-1.5h13a.75.75 0 1 1 0 1.5z" />
</svg>