<svg xmlns="http://www.w3.org/2000/svg" viewBox="0 0 32 32">
	<defs>
		<style>.a{fill:#7f7f7f}</style>
	</defs>
	<path class="a" d="M16 29.94a1 1 0 0 1-.71-.29L2.51 16.86a8.56 8.56 0 0 1 0-12.11l.18-.18a8.56 8.56 0 0 1 12.11 0l1.2 1.2 1.2-1.2a8.56 8.56 0 0 1 12.11 0l.18.18a8.56 8.56 0 0 1 0 12.11L16.71 29.65a1 1 0 0 1-.71.29zM8.75 4.06A6.52 6.52 0 0 0 4.11 6l-.19.19a6.57 6.57 0 0 0 0 9.28L16 27.53l12.08-12.08a6.57 6.57 0 0 0 0-9.28L27.89 6a6.57 6.57 0 0 0-9.28 0l-1.9 1.91a1 1 0 0 1-1.42 0L13.39 6a6.52 6.52 0 0 0-4.64-1.94z" />
	<path class="a" d="M26 14.33a1 1 0 0 1-.71-1.71 2.58 2.58 0 0 0 .71-1.81A2.54 2.54 0 0 0 25.25 9l-.19-.19a2.54 2.54 0 0 0-1.81-.75 1 1 0 1 1 0-2 4.51 4.51 0 0 1 3.23 1.34l.18.18a4.55 4.55 0 0 1 0 6.45 1 1 0 0 1-.66.3z" />
</svg>