<?xml version="1.0" standalone="no"?>
<!DOCTYPE svg PUBLIC "-//W3C//DTD SVG 1.1//EN" "http://www.w3.org/Graphics/SVG/1.1/DTD/svg11.dtd">
<svg t="1585791696099" class="icon" viewBox="0 0 1024 1024" version="1.1" xmlns="http://www.w3.org/2000/svg" p-id="2244" xmlns:xlink="http://www.w3.org/1999/xlink" width="200" height="200">
	<defs>
		<style type="text/css"></style>
	</defs>
	<path d="M927.96 64H96.04C42.999 64 0 106.998 0 160.039v703.922C0 917.002 42.999 960 96.04 960h831.92c53.041 0 96.04-42.998 96.04-96.039V160.039C1024 106.998 981.001 64 927.96 64zM96.014 128h831.972C945.667 128 960 142.333 960 160.013v376.896c-51.567-42.314-140.974-99.364-248.225-99.364-98.886 0-196.381 76.626-290.652 150.734-72.234 56.773-146.939 115.485-199.351 115.485-73.515 0-136.447-54.043-157.772-74.661v-469.09C64 142.333 78.333 128 96.014 128z m831.973 768H96.014C78.333 896 64 881.667 64 863.988V712.076c38.371 27.186 93.861 55.717 157.771 55.717 74.563 0 154.394-62.744 238.915-129.18 85.724-67.371 174.355-137.042 251.09-137.042 137.543 0 246.636 121.083 247.714 122.302l0.511-0.451v240.565C960 881.667 945.667 896 927.987 896z" p-id="2245" fill="#aaa"></path>
	<path d="M319.674 512.348c70.788 0 128.174-57.386 128.174-128.174S390.463 256 319.674 256C248.886 256 191.5 313.386 191.5 384.174s57.386 128.174 128.174 128.174zM320.151 320c35.246 0 63.816 28.572 63.816 63.817 0 35.246-28.571 63.818-63.816 63.818-35.247 0-63.817-28.571-63.817-63.817 0-35.245 28.571-63.818 63.817-63.818z" p-id="2246" fill="#aaa"></path>
</svg>