<svg xmlns="http://www.w3.org/2000/svg" viewBox="0 0 32 32">
	<defs>
		<style>.a{fill:#555}</style>
	</defs>
	<path class="a" d="M8.81 31.75a.71.71 0 0 1-.53-.22.75.75 0 0 1 0-1.06L29.94 8.73l-6.67-6.67L1.53 23.73a.75.75 0 0 1-1.06 0 .75.75 0 0 1 0-1.06L22.74.47a.75.75 0 0 1 1.06 0l7.73 7.73a.75.75 0 0 1 0 1.06L9.34 31.53a.74.74 0 0 1-.53.22z" />
	<path class="a" d="M9.59 26.29a.75.75 0 0 1-.53-.22.74.74 0 0 1 0-1.06l18-18a.75.75 0 0 1 1.06 1.06l-18 18a.79.79 0 0 1-.53.22zM1 31h7.8L1 23.2V31z" />
	<path class="a" d="M8.81 31.75H1A.76.76 0 0 1 .25 31v-7.81a.75.75 0 0 1 .46-.69.77.77 0 0 1 .82.16l7.81 7.81a.77.77 0 0 1 .16.82.75.75 0 0 1-.69.46zm-7.06-1.5H7L1.75 25z" />
</svg>