<svg class="croatian icon" width="20" height="16" viewBox="0 0 20 16" xmlns="http://www.w3.org/2000/svg" xmlns:xlink="http://www.w3.org/1999/xlink">
	<defs>
		<path d="M0 0h20v15H0z" id="croatian_icon%s__a" />
		<path d="M0 0h20v15H0z" id="croatian_icon%s__c" />
		<path d="M.006 0c0 .433.016 1.926.047 4.48.158 1.922 1.301 2.883 3.43 2.883 2.13 0 3.318-.959 3.567-2.876C7.065 1.912 7.058.417 7.03 0H.006z" id="croatian_icon%s__e" />
		<path d="M.662 2.654c.269-.085.485-.139.646-.161a6.31 6.31 0 0 1 .596-.048L1.746.617.894.012.12.815l.542 1.84z" id="croatian_icon%s__g" />
		<path d="M.618 2.654c.269-.085.484-.139.646-.161a6.31 6.31 0 0 1 .596-.048L1.702.617.85.012l-.73.8.498 1.842z" id="croatian_icon%s__i" />
		<path d="M.894 2.75c.272-.144.524-.254.756-.33.232-.074.44-.132.623-.173L1.744.387.708 0 .12.968.894 2.75z" id="croatian_icon%s__k" />
	</defs>
	<g fill="none" fill-rule="evenodd" transform="translate(0 .5)">
		<mask fill="#fff" id="croatian_icon%s__b">
			<use xlink:href="#croatian_icon%s__a" />
		</mask>
		<g mask="url(#croatian_icon%s__b)">
			<mask fill="#fff" id="croatian_icon%s__d">
				<use xlink:href="#croatian_icon%s__c" />
			</mask>
			<use fill="#F7FCFF" xlink:href="#croatian_icon%s__c" />
			<path d="M0 0h20v5H0z" fill="#E31D1C" mask="url(#croatian_icon%s__d)" />
			<path d="M0 10h20v5H0z" fill="#3D58DB" mask="url(#croatian_icon%s__d)" />
			<g mask="url(#croatian_icon%s__d)">
				<path d="M6.298 3.998h7.125v2.5H6.298z" fill="#E31D1C" />
				<g transform="translate(6.298 5.248)">
					<mask fill="#fff" id="croatian_icon%s__f">
						<use xlink:href="#croatian_icon%s__e" />
					</mask>
					<path d="M.361.489c2.85.062 4.467.219 5.384.468.426.116.682.24.821.403.167.195.14.432.14.685l-.001.631c-.001.685-.003 1.21-.006 1.786-.113.843-.421 1.483-.948 1.908-.542.437-1.302.641-2.268.641-.961 0-1.709-.202-2.228-.638-.505-.425-.78-1.067-.85-1.91C.38 2.527.366 1.202.36.49z" stroke="#E31D1C" stroke-width=".703" />
					<path d="M6.855 5.756v1.339H5.537V5.756h1.318zm-2.636 0v1.339H2.9V5.756H4.22zm-2.637 0v1.339H.264V5.756h1.318zM2.9 4.418v1.338H1.582V4.418H2.9zm2.637 0v1.338H4.22V4.418h1.318zM1.582 3.079v1.339H.264V3.079h1.318zm2.637 0v1.339H2.9V3.079H4.22zm2.636 0v1.339H5.537V3.079h1.318zM2.9 1.74V3.08H1.582V1.74H2.9zm2.637 0V3.08H4.22V1.74h1.318zM1.582.402V1.74H.264V.402h1.318zm2.637 0V1.74H2.9V.402H4.22zm2.636 0V1.74H5.537V.402h1.318z" fill="#F50100" mask="url(#croatian_icon%s__f)" />
				</g>
				<path d="M6.533 5.102c.272-.146.524-.256.756-.33.232-.075.44-.133.622-.174L7.394 2.69l-1.036-.387-.587.968.762 1.83z" fill="#56C6F5" stroke="#FFF" stroke-width=".5" />
				<path d="m6.363 4.057.12-.058c.122.263.284.345.507.262.227-.085.32-.245.286-.5l.131-.016c.04.315-.086.535-.372.641-.29.109-.521-.007-.672-.33z" fill="#FFF" fill-rule="nonzero" />
				<path d="m6.645 3.464-.114.069a.034.034 0 0 1-.05-.036l.025-.13-.116-.065a.034.034 0 0 1 .005-.061l.126-.043-.003-.133a.034.034 0 0 1 .057-.027l.1.088.114-.069a.034.034 0 0 1 .05.036l-.025.13.116.064a.034.034 0 0 1-.005.062l-.126.043.003.133a.034.034 0 0 1-.057.026l-.1-.087z" fill="#FECA00" />
				<path d="M9.088 4.422c.232-.02.47-.028.713-.024.244.005.469.008.675.01l.178-1.88-.783-.708-.87.724.087 1.878z" fill="#56C6F5" stroke="#FFF" stroke-width=".5" />
				<path d="M9.844 4.116c.301 0 .33-.326.33-.548-.077-.123-.061-.21-.308-.21-.248 0-.276.074-.348.21 0 .222.024.548.326.548zM10.183 3.196c.302 0 .33-.326.33-.548-.077-.123-.061-.21-.308-.21s-.275.074-.348.21c0 .222.025.548.326.548zM9.524 3.196c.301 0 .33-.326.33-.548-.077-.123-.061-.21-.308-.21s-.276.074-.348.21c0 .222.024.548.326.548z" fill="#FECA00" />
				<g transform="translate(7.22 1.902)">
					<mask fill="#fff" id="croatian_icon%s__h">
						<use xlink:href="#croatian_icon%s__g" />
					</mask>
					<path d="M.864-.316 1.985.48l.19 2.207c-.342.006-.62.024-.832.054-.198.027-.48.106-.848.232L-.16.746.864-.316z" stroke="#FFF" stroke-width=".5" />
					<path d="m.552 2.247-.156-.369c.336-.147.904-.237 1.502-.273l.022.401c-.555.033-1.08.115-1.368.241zM.288 1.355.13.986C.468.84 1.191.72 1.788.684l.023.401c-.556.033-1.236.144-1.523.27z" fill="#C51918" fill-rule="nonzero" mask="url(#croatian_icon%s__h)" />
				</g>
				<g transform="translate(10.385 1.902)">
					<mask fill="#fff" id="croatian_icon%s__j">
						<use xlink:href="#croatian_icon%s__i" />
					</mask>
					<path d="m.815-.32 1.126.8.19 2.207c-.342.006-.62.024-.832.054-.199.027-.483.107-.854.234L-.157.745.815-.32z" stroke="#FFF" stroke-width=".5" />
					<path d="M1.114 2.14c.122-.068.192-.16.21-.275.027-.172.31-.385.169-.36-.142.026-.061.046-.267 0-.206-.044-.472-.074-.472-.2 0-.127.132-.227.024-.227-.108 0-.339-.12-.293-.029.047.092-.106-.012-.03.178.077.19-.016.382.03.432.047.05-.03.297-.03.297s.028.092.078-.045c.049-.138.156-.234.102-.117-.053.117-.122.395-.06.346a.435.435 0 0 0 .121-.23c0-.045.155-.223.155-.088 0 .134-.146.24-.073.24s.114.03.16-.106c.045-.134.156-.224.201-.134.046.089.036.084-.025.201-.04.078-.04.117 0 .117z" fill="#FECA00" mask="url(#croatian_icon%s__j)" />
				</g>
				<g transform="translate(11.703 2.303)">
					<mask fill="#fff" id="croatian_icon%s__l">
						<use xlink:href="#croatian_icon%s__k" />
					</mask>
					<path d="M.601-.307 1.95.197l.638 2.245c-.232.034-.52.106-.861.217a4.932 4.932 0 0 0-.952.445L-.16.948.6-.307z" stroke="#FFF" stroke-width=".5" />
					<path d="m1.466.883-.108.079A.034.034 0 0 1 1.305.93l.014-.133-.122-.054a.034.034 0 0 1 0-.062L1.32.63 1.305.496a.034.034 0 0 1 .053-.03l.108.078.107-.079a.034.034 0 0 1 .054.031L1.613.63l.121.053a.034.034 0 0 1 0 .062l-.121.054.014.133a.034.034 0 0 1-.054.03L1.466.884z" fill="#FECA00" mask="url(#croatian_icon%s__l)" transform="rotate(-12 1.458 .71)" />
					<path d="m.169 1.752.133-.519c.588.156 1.2.355 1.65.547l-.205.494A12.27 12.27 0 0 0 .17 1.752z" fill="#E31D1C" fill-rule="nonzero" mask="url(#croatian_icon%s__l)" />
					<path d="m.349 1.273.031-.13c.564.14 1.163.363 1.598.571l-.056.121A8.83 8.83 0 0 0 .35 1.273zM.182 1.807l.031-.13a8.11 8.11 0 0 1 1.52.538l-.056.12a7.98 7.98 0 0 0-1.495-.528z" fill="#FFF" fill-rule="nonzero" mask="url(#croatian_icon%s__l)" />
					<path d="m.436 1.556.12-.054c.052.119.114.145.22.094.247-.12.862.048.862.275 0 .088-.051.142-.13.139a.412.412 0 0 1-.16-.054.826.826 0 0 0-.13-.063l.043-.128a.853.853 0 0 1 .144.069c.053.026.088.04.108.04.002 0-.007.01-.007-.003 0-.1-.5-.237-.674-.153-.174.085-.316.025-.396-.162z" fill="#272727" fill-rule="nonzero" mask="url(#croatian_icon%s__l)" />
				</g>
			</g>
		</g>
	</g>
</svg>