<svg class="english icon" width="20" height="16" viewBox="0 0 20 16" xmlns="http://www.w3.org/2000/svg" xmlns:xlink="http://www.w3.org/1999/xlink">
	<defs>
		<path d="M0 0h20v15H0z" id="english_icon%s__a" />
	</defs>
	<g fill="none" fill-rule="evenodd" transform="translate(0 .5)">
		<mask fill="#fff" id="english_icon%s__b">
			<use xlink:href="#english_icon%s__a" />
		</mask>
		<path d="M0 0h20v15H0z" fill="#E31D1C" mask="url(#english_icon%s__b)" />
		<path d="M20 13.75V15H0v-1.25h20zm0-2.5v1.25H0v-1.25h20zm0-2.5V10H0V8.75h20zm0-2.5V7.5H0V6.25h20zm0-2.5V5H0V3.75h20zm0-2.5V2.5H0V1.25h20z" fill="#F7FCFF" mask="url(#english_icon%s__b)" />
		<path d="M0 0h11.25v8.75H0z" fill="#2E42A5" mask="url(#english_icon%s__b)" />
		<path d="m9.461.706.303.67h.655l-.515.52.2.821-.642-.461-.532.37h.239l-.515.52.177.73h.373l.257-.67.303.67h.655l-.515.52.2.821-.642-.461-.532.37h.239l-.515.52.177.73h.373l.257-.67.303.67h.655l-.515.52.2.821-.642-.461-.662.461.224-.82-.589-.521h.291l-.514-.37-.532.37h.239l-.515.52.2.821-.642-.461-.662.461.224-.82-.589-.521h.291l-.514-.37-.532.37h.239l-.515.52.2.821-.642-.461-.662.461.224-.82-.589-.521h.291l-.514-.37-.532.37h.239l-.515.52.2.821-.642-.461-.662.461.224-.82-.589-.521h.769l.257-.67.303.67h.31l.2-.73-.589-.52h.291l-.514-.37-.662.461.224-.82-.589-.521h.769l.257-.67.303.67h.31l.2-.73-.589-.52h.291l-.514-.37-.662.461.224-.82-.589-.521h.769l.257-.67.303.67h.655l-.515.52.177.73h.373l.257-.67.303.67h.31l.2-.73-.589-.52h.769l.257-.67.303.67h.655l-.515.52.177.73h.373l.257-.67.303.67h.31l.2-.73-.589-.52h.769l.257-.67.303.67h.655l-.515.52.177.73h.373l.257-.67.303.67h.31l.2-.73-.589-.52h.769l.257-.67zm-1.985 4.42-.514-.37-.532.37h.239l-.515.52.177.73h.373l.257-.67.303.67h.31l.2-.73-.589-.52h.291zm-3.014-.37-.532.37h.239l-.515.52.177.73h.373l.257-.67.303.67h.31l.2-.73-.589-.52h.291l-.514-.37zm4.264-.88-.514-.37-.532.37h.239l-.515.52.177.73h.373l.257-.67.303.67h.31l.2-.73-.589-.52h.291zm-5.514-.37-.532.37h.239l-.515.52.177.73h.373l.257-.67.303.67h.31l.2-.73-.589-.52h.291l-.514-.37zm2.5 0-.532.37h.239l-.515.52.177.73h.373l.257-.67.303.67h.31l.2-.73-.589-.52h.291l-.514-.37zm1.25-1.25-.532.37h.239l-.515.52.177.73h.373l.257-.67.303.67h.31l.2-.73-.589-.52h.291l-.514-.37zm-2.5 0-.532.37h.239l-.515.52.177.73h.373l.257-.67.303.67h.31l.2-.73-.589-.52h.291l-.514-.37z" fill="#F7FCFF" mask="url(#english_icon%s__b)" />
	</g>
</svg>