<svg class="hindi icon" width="20" height="16" viewBox="0 0 20 16" xmlns="http://www.w3.org/2000/svg" xmlns:xlink="http://www.w3.org/1999/xlink">
	<defs>
		<path d="M0 0h20v15H0z" id="hindi_icon%s__a" />
		<path d="M0 0h20v15H0z" id="hindi_icon%s__c" />
	</defs>
	<g fill="none" fill-rule="evenodd" transform="translate(0 .5)">
		<mask fill="#fff" id="hindi_icon%s__b">
			<use xlink:href="#hindi_icon%s__a" />
		</mask>
		<g mask="url(#hindi_icon%s__b)">
			<mask fill="#fff" id="hindi_icon%s__d">
				<use xlink:href="#hindi_icon%s__c" />
			</mask>
			<use fill="#F7FCFF" xlink:href="#hindi_icon%s__c" />
			<path d="M0 0h20v5H0z" fill="#FF8C1A" mask="url(#hindi_icon%s__d)" />
			<path d="M0 10h20v5H0z" fill="#5EAA22" mask="url(#hindi_icon%s__d)" />
			<g fill="#3D58DB" mask="url(#hindi_icon%s__d)">
				<path d="M10 9.375a1.875 1.875 0 1 0 0-3.75 1.875 1.875 0 0 0 0 3.75zM10 10a2.5 2.5 0 1 1 0-5 2.5 2.5 0 0 1 0 5z" fill-rule="nonzero" />
				<path d="m9.997 8.038-.522 1.921.306-1.967-1.258 1.543 1.079-1.673-1.776.898 1.666-1.089-1.989.098 1.965-.318-1.856-.719 1.925.51-1.403-1.413 1.55 1.248-.707-1.86.91 1.77L9.996 5l.11 1.987.91-1.77-.708 1.86 1.55-1.248-1.403 1.412 1.925-.509-1.856.72 1.965.317-1.988-.098 1.666 1.09-1.777-.899 1.08 1.673-1.258-1.543.305 1.967z" />
			</g>
		</g>
	</g>
</svg>