<svg class="korean icon" width="20" height="16" viewBox="0 0 20 16" xmlns="http://www.w3.org/2000/svg" xmlns:xlink="http://www.w3.org/1999/xlink">
	<defs>
		<path d="M0 0h20v15H0z" id="korean_icon%s__a" />
		<path d="M0 0h20v15H0z" id="korean_icon%s__c" />
		<ellipse cx="3.624" cy="3.849" id="korean_icon%s__e" rx="3.624" ry="3.849" />
	</defs>
	<g fill="none" fill-rule="evenodd" transform="translate(0 .5)">
		<mask fill="#fff" id="korean_icon%s__b">
			<use xlink:href="#korean_icon%s__a" />
		</mask>
		<g mask="url(#korean_icon%s__b)">
			<mask fill="#fff" id="korean_icon%s__d">
				<use xlink:href="#korean_icon%s__c" />
			</mask>
			<use fill="#F7FCFF" xlink:href="#korean_icon%s__c" />
			<g mask="url(#korean_icon%s__d)">
				<g transform="translate(6.376 3.689)">
					<mask fill="#fff" id="korean_icon%s__f">
						<use xlink:href="#korean_icon%s__e" />
					</mask>
					<use fill="#3D58DB" xlink:href="#korean_icon%s__e" />
					<path d="M7.376 4.144c-.136-1.21-.706-1.848-1.71-1.914-1.507-.098-1.913 1.331-2 1.71-.087.379-.307 1.39-1.894 1.39-1.057 0-1.634-.857-1.73-2.57V-.27h7.334v4.414z" fill="#E31D1C" mask="url(#korean_icon%s__f)" />
				</g>
				<path d="m6.444 2.967.572.517-2.562 3.073-.572-.517 2.562-3.073zm-.939-.847.572.517-2.555 3.05-.572-.517 2.555-3.05zm-.943-.837.572.517-2.65 3.095-.572-.517 2.65-3.095zM15.728 4.884l-.572.516.992 1.164.572-.515-.992-1.165zm-.784-3.005-.572.515 2.762 3.364.572-.516-2.762-3.363zm2.672 1.328-.572.516.992 1.164.572-.515-.992-1.165zm-3.652-.464-.571.515.992 1.164.572-.515-.993-1.164zm1.888-1.677-.572.515.993 1.164.571-.515-.992-1.164zM15.93 12.125l.576.517-1 1.17-.577-.518 1-1.169zm-.95-.889.576.518-1.044 1.248-.577-.518 1.044-1.248zm-.955-.794.577.517-1 1.169-.577-.518 1-1.168zm3.504-.421.577.517-1 1.169-.577-.518 1-1.168zm-.837-.864.577.517-1.044 1.248-.577-.517 1.044-1.248zm-.984-.772.576.517-1 1.169-.577-.518 1-1.168zM2.693 10.432l-.572.516 2.567 2.964.572-.516-2.567-2.964zm2.479.917-.572.516 1.078 1.184.572-.515-1.078-1.185zM4.576 8.79l-.572.516 2.553 2.925.572-.515L4.576 8.79zm-.904.79-.572.515.935 1.096.572-.516-.935-1.096z" fill="#272727" fill-rule="nonzero" />
			</g>
		</g>
	</g>
</svg>