<svg class="persian icon" width="20" height="16" viewBox="0 0 20 16" xmlns="http://www.w3.org/2000/svg" xmlns:xlink="http://www.w3.org/1999/xlink">
	<defs>
		<path d="M0 0h20v15H0z" id="persian_icon%s__a" />
		<path d="M0 0h20v15H0z" id="persian_icon%s__c" />
	</defs>
	<g fill="none" fill-rule="evenodd" transform="translate(0 .5)">
		<mask fill="#fff" id="persian_icon%s__b">
			<use xlink:href="#persian_icon%s__a" />
		</mask>
		<g mask="url(#persian_icon%s__b)">
			<mask fill="#fff" id="persian_icon%s__d">
				<use xlink:href="#persian_icon%s__c" />
			</mask>
			<use fill="#F7FCFF" xlink:href="#persian_icon%s__c" />
			<path d="M0 0h20v5H0z" fill="#5EAA22" mask="url(#persian_icon%s__d)" />
			<path d="M0 10h20v5H0z" fill="#E31D1C" mask="url(#persian_icon%s__d)" />
			<g mask="url(#persian_icon%s__d)">
				<g stroke="#F7FCFF" stroke-width=".625">
					<path d="M-2.228 11.404h-.235v-.306h.496v-.251.557h.224v-.557M-1.49 10.88v.526h-.233M.233 10.854h-1.421M-1.203 11.417v-.326h.463v.315h.467v-.315h-.242M.211 11.404h-.235v-.306h.496v-.251.557h.224v-.557M.949 10.88v.526H.716M2.672 10.854H1.251M1.236 11.417v-.326h.463v.315h.467v-.315h-.242M2.694 11.404h-.236v-.306h.496v-.251.557h.225v-.557M3.431 10.88v.526h-.233M5.155 10.854H3.734M3.719 11.417v-.326h.462v.315h.468v-.315h-.243" />
					<g>
						<path d="M5.133 11.404h-.236v-.306h.496v-.251.557h.225v-.557M5.87 10.88v.526h-.233M7.594 10.854H6.173M6.158 11.417v-.326h.462v.315h.468v-.315h-.243" />
					</g>
					<g>
						<path d="M7.572 11.404h-.236v-.306h.496v-.251.557h.225v-.557M8.31 10.88v.526h-.234M10.033 10.854H8.612M8.597 11.417v-.326h.462v.315h.468v-.315h-.243" />
					</g>
					<g>
						<path d="M10.055 11.404h-.236v-.306h.496v-.251.557h.225v-.557M10.792 10.88v.526h-.233M12.515 10.854h-1.42M11.08 11.417v-.326h.462v.315h.467v-.315h-.242" />
					</g>
					<g>
						<path d="M12.537 11.404h-.235v-.306h.496v-.251.557h.224v-.557M13.275 10.88v.526h-.233M14.998 10.854h-1.421M13.562 11.417v-.326h.462v.315h.468v-.315h-.243" />
					</g>
					<g>
						<path d="M15.02 11.404h-.236v-.306h.496v-.251.557h.225v-.557M15.757 10.88v.526h-.233M17.48 10.854h-1.42M16.044 11.417v-.326h.463v.315h.468v-.315h-.243" />
					</g>
					<g>
						<path d="M17.459 11.404h-.236v-.306h.496v-.251.557h.225v-.557M18.196 10.88v.526h-.233M19.92 10.854h-1.422M18.483 11.417v-.326h.463v.315h.468v-.315h-.243" />
					</g>
					<g>
						<path d="M20.028 11.404h-.235v-.306h.496v-.251.557h.224v-.557M20.766 10.88v.526h-.233M22.49 10.854h-1.422M21.053 11.417v-.326h.463v.315h.467v-.315h-.242" />
					</g>
				</g>
				<g stroke="#F7FCFF" stroke-width=".625">
					<path d="M-2.228 3.779h-.235v-.306h.496v-.251.557h.224v-.557M-1.49 3.255v.526h-.233M.233 3.229h-1.421M-1.203 3.792v-.326h.463v.315h.467v-.315h-.242M.211 3.779h-.235v-.306h.496v-.251.557h.224v-.557M.949 3.255v.526H.716M2.672 3.229H1.251M1.236 3.792v-.326h.463v.315h.467v-.315h-.242M2.694 3.779h-.236v-.306h.496v-.251.557h.225v-.557M3.431 3.255v.526h-.233M5.155 3.229H3.734M3.719 3.792v-.326h.462v.315h.468v-.315h-.243" />
					<g>
						<path d="M5.133 3.779h-.236v-.306h.496v-.251.557h.225v-.557M5.87 3.255v.526h-.233M7.594 3.229H6.173M6.158 3.792v-.326h.462v.315h.468v-.315h-.243" />
					</g>
					<g>
						<path d="M7.572 3.779h-.236v-.306h.496v-.251.557h.225v-.557M8.31 3.255v.526h-.234M10.033 3.229H8.612M8.597 3.792v-.326h.462v.315h.468v-.315h-.243" />
					</g>
					<g>
						<path d="M10.055 3.779h-.236v-.306h.496v-.251.557h.225v-.557M10.792 3.255v.526h-.233M12.515 3.229h-1.42M11.08 3.792v-.326h.462v.315h.467v-.315h-.242" />
					</g>
					<g>
						<path d="M12.537 3.779h-.235v-.306h.496v-.251.557h.224v-.557M13.275 3.255v.526h-.233M14.998 3.229h-1.421M13.562 3.792v-.326h.462v.315h.468v-.315h-.243" />
					</g>
					<g>
						<path d="M15.02 3.779h-.236v-.306h.496v-.251.557h.225v-.557M15.757 3.255v.526h-.233M17.48 3.229h-1.42M16.044 3.792v-.326h.463v.315h.468v-.315h-.243" />
					</g>
					<g>
						<path d="M17.459 3.779h-.236v-.306h.496v-.251.557h.225v-.557M18.196 3.255v.526h-.233M19.92 3.229h-1.422M18.483 3.792v-.326h.463v.315h.468v-.315h-.243" />
					</g>
					<g>
						<path d="M20.028 3.779h-.235v-.306h.496v-.251.557h.224v-.557M20.766 3.255v.526h-.233M22.49 3.229h-1.422M21.053 3.792v-.326h.463v.315h.467v-.315h-.242" />
					</g>
				</g>
				<path d="M10.335 5.507c.615.663.904 1.364.865 2.104-.03.585-.34 1.192-.928 1.822.194.043.453.095.804.164.017.089-.394-.026-1.139.083l.106-.014a7.78 7.78 0 0 1-.296.272l-.046-.06-.046.06a7.782 7.782 0 0 1-.295-.27l.105.012c-.745-.109-1.156.006-1.138-.083l.37-.073c.173-.035.315-.065.434-.091-.589-.63-.898-1.237-.929-1.822-.039-.74.25-1.441.865-2.104-.224.304-.313.896-.267 1.774.024.452.202 1.125.427 1.522V5.578h.937V8.83c.224-.37.398-1.002.422-1.46.046-.879-.038-1.5-.251-1.863zm-1.649.024c-.588.315-.882.912-.882 1.792 0 .879.153 1.509.458 1.89C7.528 8.723 7.16 8.11 7.16 7.368c0-.74.509-1.353 1.526-1.838zm2.098 0c1.017.444 1.525 1.036 1.525 1.777 0 .74-.367 1.375-1.1 1.904.304-.38.457-1.01.457-1.89 0-.879-.294-1.476-.882-1.79zm-.566-.375v.188c-.2.093-.39.14-.566.14-.178 0-.352-.046-.523-.14v-.188c.178.094.358.14.54.14.183 0 .365-.046.549-.14z" fill="#E31D1C" />
			</g>
		</g>
	</g>
</svg>