<svg class="portuguese icon" width="20" height="16" viewBox="0 0 20 16" xmlns="http://www.w3.org/2000/svg" xmlns:xlink="http://www.w3.org/1999/xlink">
	<defs>
		<path d="M0 0h20v15H0z" id="portuguese_icon%s__a" />
		<path d="M4.94 9.88C2.278 9.88.12 7.695.12 5S2.278.12 4.94.12C7.603.12 9.762 2.305 9.762 5S7.603 9.88 4.94 9.88z" id="portuguese_icon%s__c" />
	</defs>
	<g fill="none" fill-rule="evenodd" transform="translate(0 .5)">
		<mask fill="#fff" id="portuguese_icon%s__b">
			<use xlink:href="#portuguese_icon%s__a" />
		</mask>
		<g mask="url(#portuguese_icon%s__b)">
			<path d="M5 0h15v15H5z" fill="#EF0000" />
			<path d="M0 0h7.5v15H0z" fill="#2F8D00" />
			<g transform="translate(2.5 2.5)">
				<mask fill="#fff" id="portuguese_icon%s__d">
					<use xlink:href="#portuguese_icon%s__c" />
				</mask>
				<path d="M4.643 0h.625v1.687h-.625zM4.643 8.434h.625V10h-.625z" fill="#FFE017" mask="url(#portuguese_icon%s__d)" />
				<path d="m.197 5.252-.175-.448c1.928-.77 3.383-1.266 4.37-1.49a36.708 36.708 0 0 1 4.777-.729l.042.48a36.242 36.242 0 0 0-4.714.72C3.539 4 2.104 4.49.197 5.251z" fill="#FFE017" fill-rule="nonzero" mask="url(#portuguese_icon%s__d)" />
				<path d="m9.463 2.29-.142.46c-1.457-.46-2.644-.658-3.557-.597l-.031-.48c.98-.066 2.221.14 3.73.617zM9.967 4.862l-.27.398c-.742-.516-1.657-.775-2.751-.775v-.482c1.186 0 2.195.286 3.021.86z" fill="#FFE017" fill-rule="nonzero" mask="url(#portuguese_icon%s__d)" />
				<path d="m9.564 5.007.123.465c-1.602.434-3.105.68-4.511.738-1.416.058-3.066-.189-4.952-.74l.132-.462c1.84.537 3.44.777 4.8.72 1.37-.056 2.839-.296 4.408-.721z" fill="#FFE017" fill-rule="nonzero" mask="url(#portuguese_icon%s__d)" />
				<path d="m9.382 7.272-.752.772C7.2 6.615 5.94 5.594 4.86 4.98c-1.1-.624-2.533-1.258-4.298-1.9l.362-1.02c1.817.66 3.303 1.317 4.46 1.975C6.559 4.7 7.889 5.78 9.382 7.272zM.911 7.71l-.284-.387a5.802 5.802 0 0 1 .742-.451c.531-.27 1.064-.438 1.573-.453l.074-.001V6.9h-.06c-.428.013-.899.162-1.374.403a5.33 5.33 0 0 0-.67.407z" fill="#FFE017" fill-rule="nonzero" mask="url(#portuguese_icon%s__d)" />
				<path d="m1.133 7.877.12-.467c1.587.418 2.811.627 3.665.627.851 0 2.118-.246 3.792-.74l.133.463c-1.714.505-3.02.759-3.925.759-.902 0-2.162-.215-3.785-.642zM.514 3.559l.754-.77 1.105 1.109-.754.77z" fill="#FFE017" fill-rule="nonzero" mask="url(#portuguese_icon%s__d)" />
				<path d="m6.772 7.405.562-.924 1.752 1.09-.561.924z" fill="#FFE017" fill-rule="nonzero" mask="url(#portuguese_icon%s__d)" />
			</g>
			<path d="M7.44 2.62c2.663 0 4.822 2.185 4.822 4.88s-2.159 4.88-4.822 4.88c-2.662 0-4.821-2.185-4.821-4.88S4.778 2.62 7.44 2.62zm.06.723c-2.301 0-4.167 1.888-4.167 4.217 0 2.33 1.866 4.217 4.167 4.217 2.301 0 4.167-1.888 4.167-4.217 0-2.329-1.866-4.217-4.167-4.217z" fill="#F9E813" fill-rule="nonzero" />
			<path d="M4.785 4.49v3.914c.258 1.549 1.126 2.323 2.604 2.323 1.478 0 2.346-.774 2.603-2.323V4.49H4.785z" fill="#FFF" fill-rule="nonzero" />
			<path d="M4.428 4.13h5.921v4.304l-.005.03c-.286 1.72-1.3 2.624-2.955 2.624-1.656 0-2.67-.904-2.956-2.624l-.005-.03V4.129z" fill="#C51918" fill-rule="nonzero" />
			<path d="M5.783 5.444h3.212V8.22c-.159.955-.694 1.433-1.606 1.433-.912 0-1.447-.478-1.606-1.433V5.444z" fill="#F7FCFF" fill-rule="nonzero" />
			<path d="M5 4.428h.452v.3H5z" fill="#F9E813" />
			<path d="M4.762 4.548h.833v.15h-.833z" fill="#060101" />
			<path d="M4.762 4.669h.452v.15h-.452zM5.238 4.669h.452v.15h-.452zM4.762 5.03h.301v.452h-.301zM5.357 5.03h.301v.452h-.3zM5.119 5.03h.15v.452h-.15z" fill="#F9E813" />
			<path d="M4.762 4.91h.833v.15h-.833zM4.762 5.271h.833v.15h-.833z" fill="#060101" />
			<path d="M4.881 4.79h.15v.15h-.15zM5.357 4.79h.15v.15h-.15zM5.119 4.669h.15v.3h-.15z" fill="#F9E813" />
			<g>
				<path d="M7.262 4.428h.452v.3h-.452z" fill="#F9E813" />
				<path d="M7.024 4.548h.833v.15h-.833z" fill="#060101" />
				<path d="M7.024 4.669h.452v.15h-.452zM7.5 4.669h.452v.15H7.5zM7.024 5.03h.301v.452h-.301zM7.619 5.03h.301v.452H7.62zM7.381 5.03h.15v.452h-.15z" fill="#F9E813" />
				<path d="M7.024 4.91h.833v.15h-.833zM7.024 5.271h.833v.15h-.833z" fill="#060101" />
				<path d="M7.143 4.79h.15v.15h-.15zM7.619 4.79h.15v.15h-.15zM7.381 4.669h.15v.3h-.15z" fill="#F9E813" />
			</g>
			<g>
				<path d="M9.405 4.428h.452v.3h-.452z" fill="#F9E813" />
				<path d="M9.167 4.548H10v.15h-.833z" fill="#060101" />
				<path d="M9.167 4.669h.451v.15h-.451zM9.643 4.669h.452v.15h-.452zM9.167 5.03h.3v.452h-.3zM9.762 5.03h.301v.452h-.301zM9.524 5.03h.15v.452h-.15z" fill="#F9E813" />
				<path d="M9.167 4.91H10v.15h-.833zM9.167 5.271H10v.15h-.833z" fill="#060101" />
				<path d="M9.286 4.79h.15v.15h-.15zM9.762 4.79h.15v.15h-.15zM9.524 4.669h.15v.3h-.15z" fill="#F9E813" />
			</g>
			<g>
				<path d="M9.405 6.596h.452v.302h-.452z" fill="#F9E813" />
				<path d="M9.167 6.717H10v.15h-.833z" fill="#060101" />
				<path d="M9.167 6.837h.451v.151h-.451zM9.643 6.837h.452v.151h-.452zM9.167 7.199h.3v.452h-.3zM9.762 7.199h.301v.452h-.301zM9.524 7.199h.15v.452h-.15z" fill="#F9E813" />
				<path d="M9.167 7.078H10v.15h-.833zM9.167 7.44H10v.15h-.833z" fill="#060101" />
				<path d="M9.286 6.958h.15v.15h-.15zM9.762 6.958h.15v.15h-.15zM9.524 6.837h.15v.302h-.15z" fill="#F9E813" />
			</g>
			<g>
				<path d="M5 6.596h.452v.302H5z" fill="#F9E813" />
				<path d="M4.762 6.717h.833v.15h-.833z" fill="#060101" />
				<path d="M4.762 6.837h.452v.151h-.452zM5.238 6.837h.452v.151h-.452zM4.762 7.199h.301v.452h-.301zM5.357 7.199h.301v.452h-.3zM5.119 7.199h.15v.452h-.15z" fill="#F9E813" />
				<path d="M4.762 7.078h.833v.15h-.833zM4.762 7.44h.833v.15h-.833z" fill="#060101" />
				<path d="M4.881 6.958h.15v.15h-.15zM5.357 6.958h.15v.15h-.15zM5.119 6.837h.15v.302h-.15z" fill="#F9E813" />
			</g>
			<g>
				<path d="m5.29 9.315.29-.346.231.193-.29.347z" fill="#F9E813" />
				<path d="m5.23 9.575.535-.639.115.097-.536.639z" fill="#060101" />
				<path d="m5.321 9.652.29-.346.116.097-.29.346zM5.627 9.287l.29-.346.116.097-.29.346zM5.598 9.885l.194-.231.346.29-.194.231zM5.98 9.429l.194-.231.347.29-.194.231zM5.828 9.611l.097-.115.346.29-.097.115z" fill="#F9E813" />
				<path d="m5.506 9.807.536-.638.115.097-.536.638zM5.783 10.04l.536-.639.115.097-.536.638z" fill="#060101" />
				<path d="m5.49 9.638.097-.115.115.097-.096.115zM5.796 9.274l.097-.116.115.097-.096.116zM5.551 9.379l.097-.116.23.194-.096.115z" fill="#F9E813" />
			</g>
			<g>
				<path d="m9.362 9.041.29.346-.23.194-.291-.346z" fill="#F9E813" />
				<path d="m9.116 8.936.536.639-.116.097-.535-.639z" fill="#060101" />
				<path d="m9.024 9.014.29.346-.115.097-.29-.346zM9.33 9.379l.29.346-.115.097-.29-.347zM8.747 9.246l.194.23-.346.291-.194-.23zM9.13 9.702l.193.23-.346.291-.193-.23zM8.977 9.52l.096.115-.346.29-.097-.115z" fill="#F9E813" />
				<path d="m8.84 9.169.535.638-.115.097-.536-.638zM8.562 9.401l.536.638-.115.097-.536-.638z" fill="#060101" />
				<path d="m9.008 9.183.097.115-.115.097-.097-.116zM9.314 9.547l.097.116-.115.096-.097-.115zM9.253 9.287l.097.116-.23.193-.097-.115z" fill="#F9E813" />
			</g>
			<path d="M7.849 5.753v.6c-.04.208-.178.311-.413.311-.234 0-.371-.103-.412-.31v-.601h.825zM7.849 7.078v.601c-.04.207-.178.31-.413.31-.234 0-.371-.103-.412-.31v-.6h.825zM8.92 7.078v.601c-.04.207-.178.31-.412.31-.234 0-.372-.103-.413-.31v-.6h.825zM6.778 7.078v.601c-.041.207-.179.31-.413.31-.234 0-.372-.103-.413-.31v-.6h.826zM7.849 8.404v.6c-.04.207-.178.31-.413.31-.234 0-.371-.103-.412-.31v-.6h.825z" fill="#013399" fill-rule="nonzero" />
		</g>
	</g>
</svg>