<svg class="serbian icon" width="20" height="16" viewBox="0 0 20 16" xmlns="http://www.w3.org/2000/svg" xmlns:xlink="http://www.w3.org/1999/xlink">
	<defs>
		<path d="M0 0h20v15H0z" id="serbian_icon%s__a" />
		<path d="M0 0h20v15H0z" id="serbian_icon%s__c" />
	</defs>
	<g fill="none" fill-rule="evenodd" transform="translate(0 .5)">
		<mask fill="#fff" id="serbian_icon%s__b">
			<use xlink:href="#serbian_icon%s__a" />
		</mask>
		<g mask="url(#serbian_icon%s__b)">
			<mask fill="#fff" id="serbian_icon%s__d">
				<use xlink:href="#serbian_icon%s__c" />
			</mask>
			<use fill="#4857A1" xlink:href="#serbian_icon%s__c" />
			<path d="M0 0h20v5H0z" fill="#C51918" mask="url(#serbian_icon%s__d)" />
			<path d="M0 10h20v5H0z" fill="#F7FCFF" mask="url(#serbian_icon%s__d)" />
			<g mask="url(#serbian_icon%s__d)">
				<path d="m7.09 2.094.194.056c.824.072 2.1.499 2.337.952.106.202-.03.37-.174.612-.277.47-.434.844-.714 1.013l.003.752-3.685-.032-.006-.759c-.245-.184-.4-.538-.656-.974-.144-.243-.28-.41-.174-.612.178-.34.987-.672 1.728-.848.146-.052.298-.1.449-.146l.067.049c.059-.008.116-.015.17-.02l.084.189h.301c.12.359.181.638.181.837 0 .199-.06.38-.18.546l-.003.204.099.009.007-.054c.018-.098.072-.171.12-.162.05.008.076.095.059.194a.356.356 0 0 1-.01.043c.172.021.38.055.618.1.283-.544.783-1.065.515-1.335a.555.555 0 0 0-.193-.104 6.075 6.075 0 0 0-.887-.15l-.01-.05-.17-.027zm1.797.723.027.058c.129.358-.284.721-.597 1.248l.087.02.002-.035.01-.056c.026-.097.087-.165.135-.152.048.013.066.102.04.199a.334.334 0 0 1-.031.079c.053.01.11.022.168.035l.002.106c.365-.282.622-.904.646-1.108.014-.123-.182-.265-.49-.394zm-3.841-.018-.028.01c-.343.137-.571.283-.558.402.022.193.255.762.59 1.061.112-.033.225-.064.333-.093a.233.233 0 0 1-.037-.074c-.031-.095-.018-.185.03-.2.048-.016.111.049.142.144.01.032.016.064.017.092l.07-.02c-.334-.563-.782-.938-.56-1.322zm1.517-.373-.135.017c-.19.029-.385.067-.575.112-.163.045-.292.096-.35.153-.264.267.223.78.506 1.318.147-.032.278-.057.396-.076a.202.202 0 0 1-.012-.058c-.01-.1.024-.184.074-.188.05-.005.097.072.106.172a.353.353 0 0 1 0 .05l.106-.012-.002-.227c-.104-.117-.165-.297-.18-.54a2.543 2.543 0 0 1 .066-.721z" fill="#F6C540" fill-rule="nonzero" />
				<path d="M6.875 4.783c.175 0 .317.08.317.18 0 .1-.142.182-.317.182-.175 0-.317-.081-.317-.181 0-.1.142-.181.317-.181zm0-2.99c.225 0 .408.179.408.398 0 .22-.183.398-.408.398a.403.403 0 0 1-.408-.398c0-.22.183-.398.408-.398z" fill="#2E42A5" />
				<path d="M4.475 3.814a.028.028 0 1 0 0-.056.028.028 0 0 0 0 .056zm0 .125a.153.153 0 1 1 0-.306.153.153 0 0 1 0 .306zm-.09-.396a.028.028 0 1 0 0-.057.028.028 0 0 0 0 .057zm0 .125a.153.153 0 1 1 0-.307.153.153 0 0 1 0 .307zm-.092-.307a.028.028 0 1 0 0-.056.028.028 0 0 0 0 .056zm0 .125a.153.153 0 1 1 0-.306.153.153 0 0 1 0 .306zm-.09-.306a.028.028 0 1 0 0-.056.028.028 0 0 0 0 .056zm0 .125a.153.153 0 1 1 0-.306.153.153 0 0 1 0 .306zM4.384 3a.028.028 0 1 0 0-.056.028.028 0 0 0 0 .056zm0 .125a.153.153 0 1 1 0-.306.153.153 0 0 1 0 .306zm.181-.273a.028.028 0 1 0 0-.056.028.028 0 0 0 0 .056zm0 .125a.153.153 0 1 1 0-.306.153.153 0 0 1 0 .306zm.181-.249a.028.028 0 1 0 0-.056.028.028 0 0 0 0 .056zm0 .125a.153.153 0 1 1 0-.306.153.153 0 0 1 0 .306zm.214-.214a.028.028 0 1 0 0-.056.028.028 0 0 0 0 .056zm0 .125a.153.153 0 1 1 0-.306.153.153 0 0 1 0 .306zm.24-.217a.028.028 0 1 0 0-.056.028.028 0 0 0 0 .056zm0 .125a.153.153 0 1 1 0-.306.153.153 0 0 1 0 .306zm.271-.196a.028.028 0 1 0 0-.056.028.028 0 0 0 0 .056zm0 .125a.153.153 0 1 1 0-.306.153.153 0 0 1 0 .306zm.272-.235a.028.028 0 1 0 0-.056.028.028 0 0 0 0 .056zm0 .125a.153.153 0 1 1 0-.306.153.153 0 0 1 0 .306zm.226-.16a.028.028 0 1 0 0-.056.028.028 0 0 0 0 .056zm0 .125a.153.153 0 1 1 0-.306.153.153 0 0 1 0 .306zm.227-.18a.028.028 0 1 0 0-.057.028.028 0 0 0 0 .056zm0 .124a.153.153 0 1 1 0-.306.153.153 0 0 1 0 .306zm-.997.328a.028.028 0 1 0 0-.056.028.028 0 0 0 0 .056zm0 .125a.153.153 0 1 1 0-.306.153.153 0 0 1 0 .306zm0 .057a.028.028 0 1 0 0-.057.028.028 0 0 0 0 .057zm0 .125a.153.153 0 1 1 0-.307.153.153 0 0 1 0 .307zm.09.146a.028.028 0 1 0 0-.056.028.028 0 0 0 0 .056zm0 .125a.153.153 0 1 1 0-.306.153.153 0 0 1 0 .306zm.091.056a.028.028 0 1 0 0-.056.028.028 0 0 0 0 .056zm0 .125a.153.153 0 1 1 0-.306.153.153 0 0 1 0 .306zm.091.057a.028.028 0 1 0 0-.057.028.028 0 0 0 0 .057zm0 .125a.153.153 0 1 1 0-.307.153.153 0 0 1 0 .307zm3.986.146a.028.028 0 1 0 0-.056.028.028 0 0 0 0 .056zm0 .125a.153.153 0 1 1 0-.306.153.153 0 0 1 0 .306zm.09-.396a.028.028 0 1 0 0-.057.028.028 0 0 0 0 .057zm0 .125a.153.153 0 1 1 0-.307.153.153 0 0 1 0 .307zm.09-.307a.028.028 0 1 0 0-.056.028.028 0 0 0 0 .056zm0 .125a.153.153 0 1 1 0-.306.153.153 0 0 1 0 .306zm.091-.306a.028.028 0 1 0 0-.056.028.028 0 0 0 0 .056zm0 .125a.153.153 0 1 1 0-.306.153.153 0 0 1 0 .306zM9.548 3a.028.028 0 1 0 0-.056.028.028 0 0 0 0 .056zm0 .125a.153.153 0 1 1 0-.306.153.153 0 0 1 0 .306zm-.182-.273a.028.028 0 1 0 0-.056.028.028 0 0 0 0 .056zm0 .125a.153.153 0 1 1 0-.306.153.153 0 0 1 0 .306zm-.181-.249a.028.028 0 1 0 0-.056.028.028 0 0 0 0 .056zm0 .125a.153.153 0 1 1 0-.306.153.153 0 0 1 0 .306zm-.214-.214a.028.028 0 1 0 0-.056.028.028 0 0 0 0 .056zm0 .125a.153.153 0 1 1 0-.306.153.153 0 0 1 0 .306zm-.24-.217a.028.028 0 1 0 0-.056.028.028 0 0 0 0 .056zm0 .125a.153.153 0 1 1 0-.306.153.153 0 0 1 0 .306zm-.27-.196a.028.028 0 1 0 0-.056.028.028 0 0 0 0 .056zm0 .125a.153.153 0 1 1 0-.306.153.153 0 0 1 0 .306zm-.273-.235a.028.028 0 1 0 0-.056.028.028 0 0 0 0 .056zm0 .125a.153.153 0 1 1 0-.306.153.153 0 0 1 0 .306zm-.226-.16a.028.028 0 1 0 0-.056.028.028 0 0 0 0 .056zm0 .125a.153.153 0 1 1 0-.306.153.153 0 0 1 0 .306zm-.226-.18a.028.028 0 1 0 0-.057.028.028 0 0 0 0 .056zm0 .124a.153.153 0 1 1 0-.306.153.153 0 0 1 0 .306zm.996.328a.028.028 0 1 0 0-.056.028.028 0 0 0 0 .056zm0 .125a.153.153 0 1 1 0-.306.153.153 0 0 1 0 .306zm0 .057a.028.028 0 1 0 0-.057.028.028 0 0 0 0 .057zm0 .125a.153.153 0 1 1 0-.307.153.153 0 0 1 0 .307zm-.09.146a.028.028 0 1 0 0-.056.028.028 0 0 0 0 .056zm0 .125a.153.153 0 1 1 0-.306.153.153 0 0 1 0 .306zm-.091.056a.028.028 0 1 0 0-.056.028.028 0 0 0 0 .056zm0 .125a.153.153 0 1 1 0-.306.153.153 0 0 1 0 .306zm-.09.057a.028.028 0 1 0 0-.057.028.028 0 0 0 0 .057zm0 .125a.153.153 0 1 1 0-.307.153.153 0 0 1 0 .307z" fill="#FFF" fill-rule="nonzero" />
				<path d="m6.804 1.349.135-.003-.002.223h.243l.003.134h-.245l.001.25-.134.002v-.253l-.245.001-.003-.134h.247v-.22z" fill="#F6C540" fill-rule="nonzero" />
				<g>
					<path d="M3.615 5.459h6.5v5.52c-.13 1.834-1.214 2.75-3.25 2.75-2.035 0-3.118-.916-3.25-2.75V5.46z" fill="#C51918" />
					<g fill="#E8AA00">
						<path d="M5.577 5.65c-.06 0-.151.043-.273.091-.121.049-.25.153-.124.258.124.105.303.335.303.249 0-.086.213-.17.213-.128 0 .042-.066.128.107.128s.262.051.078.051c-.185 0-.205.085-.325.085-.12 0-.376-.085-.376-.136 0-.05.148.248.303.248s.242.146.32.073c.078-.073.069-.073.194-.073.083 0 .11-.098.08-.293-.294-.369-.46-.553-.5-.553zM8.086 5.65c.06 0 .151.043.273.091.121.049.249.153.124.258-.124.105-.303.335-.303.249 0-.086-.213-.17-.213-.128 0 .042.066.128-.107.128s-.263.051-.078.051.205.085.325.085c.12 0 .376-.085.376-.136 0-.05-.148.248-.303.248s-.243.146-.32.073c-.078-.073-.069-.073-.194-.073-.084 0-.11-.098-.08-.293.294-.369.46-.553.5-.553z" />
					</g>
					<path d="m6.696 12.967-.007.488v.02l-.09-.11c-.016.073-.065.11-.145.11a.222.222 0 0 1-.194-.11c-.042.039-.102.058-.18.058-.118 0-.147-.114-.319-.114-.172 0-.19-.189-.077-.344.113-.154.25-.456.137-.545-.112-.09.259-.425.259-.613 0-.187.122-.44.18-.6.058-.161-.118-.229-.18-.446-.063-.217-.085-.106-.147.083-.061.189-.037.362-.112.362-.075 0-.137-.136-.137-.045 0 .09-.063.045-.24.206-.114.102-.083-.046-.046-.144l.003-.007h-.014l-.037-.006-.044-.004c-.077 0 0-.228-.115-.136-.076.062-.17.062-.28 0 .118-.19.212-.328.28-.415.103-.131.267-.412.327-.675l-.012.04-.029.063c-.048.094-.125.223-.157.283l-.014.03c-.058.25-.218-.416-.218 0 0 .468-.177.275-.177.448 0 .172-.253.027-.253.134 0 .107-.179.297-.179.469s-.212-.428-.212-.286c0 .142-.35.34-.35.114 0-.227.344-.713.154-1.22-.191-.507-.274-1.231-.274-2.505 0-1.273.89-1.838 1.114-1.838.224 0-.099.248-.223.538-.083.194.194.65.83 1.37h.107c.076 0 .261-.314.455-.523.193-.208 0-.373-.063-.531-.063-.158-.02-.13-.084-.316-.063-.186-.347-.447-.415-.538-.048-.064-.027-.076.049-.078h.117c.165 0 .482.078.576.169.095.09.194.11.34.11.145 0 .055.098-.077.164.124.024.204.168.24.433.065-.265.16-.409.285-.433-.133-.066-.223-.164-.077-.164.146 0 .245-.02.34-.11.094-.09.41-.168.576-.168h.117c.076 0 .096.013.048.077-.068.091-.351.352-.415.538-.064.186-.021.158-.084.316-.062.158-.256.323-.062.531.193.21.378.523.454.523h.107c.637-.72.914-1.176.83-1.37-.124-.29-.446-.538-.223-.538s1.114.565 1.114 1.838c0 1.274-.082 1.998-.273 2.505-.191.507.154.993.154 1.22 0 .226-.35.028-.35-.114 0-.142-.213.458-.213.286 0-.172-.178-.362-.178-.469 0-.107-.254.038-.254-.134 0-.173-.177.02-.177-.448 0-.416-.16.25-.218 0-.007-.032-.212-.357-.212-.416.06.263.224.544.327.675.069.087.162.226.28.415-.11.062-.203.062-.28 0-.115-.092-.038.136-.115.136-.03 0-.058.007-.081.01h-.015c.041.105.072.253-.04.15-.178-.16-.241-.115-.241-.205 0-.09-.063.045-.138.045-.074 0-.05-.173-.112-.362-.062-.19-.084-.3-.146-.083-.063.217-.239.285-.18.445.057.16.18.414.18.601 0 .188.37.523.258.613-.112.09.024.39.138.545.113.155.094.344-.078.344s-.2.114-.318.114c-.079 0-.14-.02-.18-.058a.222.222 0 0 1-.194.11c-.081 0-.13-.037-.146-.11l-.275.11z" fill="#F7FCFF" />
					<path d="M5.343 11.71v.017l.08.068c.102.089.152.157.152.204 0 .088-.08.245-.08.294 0 .049.072-.196.19-.098.095.078.109.188.11.272v.057c0 .085 0-.1-.11-.1a.236.236 0 0 0-.19.1v.17s.014.14.08.07.08.087 0 .087-.163.165-.236.165l-.002-.014c-.07-.007-.114-.15-.192-.15-.08 0-.065-.158 0-.087.066.07.08-.07.08-.07v-.17a.236.236 0 0 0-.19-.1c-.11 0-.11.184-.11.1v-.058c.002-.084.016-.194.11-.272.119-.098.19.147.19.098 0-.05-.107-.204-.107-.292 0-.058.075-.156.225-.291zM8.332 11.71v.017l.08.068c.102.089.152.157.152.204 0 .088-.08.245-.08.294 0 .049.072-.196.19-.098.095.078.109.188.11.272v.057c0 .085 0-.1-.11-.1a.236.236 0 0 0-.19.1v.17s.015.14.08.07c.066-.07.08.087 0 .087s-.163.165-.236.165l-.002-.014c-.07-.007-.114-.15-.192-.15-.08 0-.065-.158 0-.087.066.07.08-.07.08-.07v-.17a.236.236 0 0 0-.19-.1c-.11 0-.11.184-.11.1v-.058c.002-.084.016-.194.11-.272.119-.098.19.147.19.098 0-.05-.107-.204-.107-.292 0-.058.075-.156.225-.291z" fill="#E8AA00" />
					<path d="M5.135 11.094c.112-.117.168-.132.168-.046 0 .128-.168.32-.114.32h.278c.229 0-.04.107-.164.154-.124.048-.168.046-.29.099-.123.053-.176.402-.119.515.057.112-.057.064-.104 0-.047-.065-.07.147-.157.252-.086.105-.07-.02-.07-.252 0-.233.07-.113.156-.182.087-.07.071-.093.118-.23.047-.135-.204.08-.275.181-.07.102-.106.055-.23.118-.125.064 0-.168 0-.298 0-.13.124 0 .23 0 .107 0 .159-.048.228-.104.07-.057-.157-.015-.334 0-.178.014-.07-.015-.264-.099l-.04-.02c-.097-.057.177-.023.304.02.139.048.238-.047.438-.047.134 0 .214-.127.241-.381zm3.403 0c.027.254.107.38.24.38.2 0 .3.096.44.048.138-.047.456-.084.263 0-.194.084-.086.113-.264.099l-.137-.014c-.135-.016-.25-.029-.198.014.07.056.122.104.229.104.106 0 .23-.13.23 0s.125.362 0 .298c-.124-.063-.16-.016-.23-.118-.071-.101-.323-.316-.276-.18.047.136.032.16.118.23.087.068.158-.052.158.18 0 .233.015.358-.071.253-.087-.105-.11-.317-.158-.252-.047.064-.16.112-.104 0 .057-.113.005-.462-.118-.515-.122-.053-.167-.05-.29-.099-.124-.047-.393-.155-.164-.155h.277c.055 0-.113-.19-.113-.32 0-.085.056-.07.168.047z" fill="#E8AA00" />
					<g>
						<path d="M5.654 7.713h2.423v2.21c-.174.733-.577 1.1-1.212 1.1-.634 0-1.037-.367-1.21-1.1v-2.21z" fill="#C51918" />
						<path d="M7.192 7.681V8.95h.906v.453H7.19l.001 1.63h-.634v-1.63h-.906V8.95h.905l.001-1.268h.634z" fill="#F7FCFF" />
						<path d="M7.712 8.318c-.061 0-.09-.051-.058-.096a.06.06 0 0 1 .085-.011.72.72 0 0 0 .035-.01.062.062 0 0 1 .038 0c.014.005.023-.01.016-.104-.007-.026-.043-.042-.126-.042-.153 0-.216.016-.216.03v.225l.074.067c.036.032.01.087-.04.087h-.034v.171c.047.037.089.054.125.054.136 0 .213-.051.215-.111l-.002-.04a.346.346 0 0 0-.012.004.062.062 0 0 1-.038 0c-.02-.006-.017-.009-.016.033 0 .028-.024.052-.055.052s-.057-.021-.058-.05c-.002-.099.053-.156.145-.136.055-.017.093-.015.122.019.022.025.025.045.027.118-.004.125-.136.213-.328.213a.34.34 0 0 1-.22-.096.049.049 0 0 1-.018-.037v-.245a.05.05 0 0 1 .022-.04l-.005-.006a.049.049 0 0 1-.017-.036v-.245c0-.105.108-.133.329-.133.13 0 .214.038.237.129.013.155-.033.247-.146.22a.313.313 0 0 1-.081.016zm-.01 1.265c.13 0 .214.039.237.13.013.154-.033.247-.146.22a.313.313 0 0 1-.081.015c-.061 0-.09-.05-.058-.096a.06.06 0 0 1 .085-.01.72.72 0 0 0 .035-.01.062.062 0 0 1 .038 0c.014.005.023-.01.016-.104-.007-.026-.043-.042-.126-.042-.153 0-.216.016-.216.03v.224l.074.067c.036.032.01.087-.04.087h-.034v.172c.047.036.089.053.125.053.136 0 .213-.05.215-.11l-.002-.04a.346.346 0 0 0-.012.004.062.062 0 0 1-.038 0c-.02-.006-.017-.01-.016.033 0 .028-.024.051-.055.052-.031 0-.057-.022-.058-.05-.002-.1.053-.156.145-.137.055-.016.093-.014.122.02.022.024.025.044.027.117-.004.126-.136.213-.328.213a.34.34 0 0 1-.22-.096.049.049 0 0 1-.018-.037v-.245a.05.05 0 0 1 .022-.04l-.005-.005a.049.049 0 0 1-.017-.037v-.245c0-.105.108-.133.329-.133zm-1.629 0c.22 0 .328.028.328.133v.245a.049.049 0 0 1-.016.037c.008.014.016.029.016.045v.245a.049.049 0 0 1-.017.037.34.34 0 0 1-.22.096c-.192 0-.325-.087-.329-.213.003-.073.006-.093.027-.118.03-.033.068-.035.122-.019.093-.02.148.038.146.137-.001.028-.027.05-.058.05-.031 0-.056-.024-.056-.052v-.035c0-.003-.005-.001-.015.002a.062.062 0 0 1-.039 0 .346.346 0 0 0-.012-.004c0 .009 0 .022-.002.04.003.06.08.11.216.11.036 0 .078-.017.124-.053v-.172h-.034c-.05 0-.075-.055-.04-.087l.074-.067v-.224c0-.014-.062-.03-.215-.03-.083 0-.12.016-.126.042-.007.093.001.109.016.104a.062.062 0 0 1 .038 0 .72.72 0 0 0 .035.01.06.06 0 0 1 .085.01c.032.045.003.096-.058.096a.313.313 0 0 1-.081-.015c-.114.027-.16-.066-.147-.22.023-.091.108-.13.238-.13zm0-1.63c.22 0 .328.028.328.133v.245a.049.049 0 0 1-.016.036c.008.014.016.03.016.046v.245a.049.049 0 0 1-.017.037.34.34 0 0 1-.22.096c-.192 0-.325-.088-.329-.213.003-.073.006-.093.027-.118.03-.034.068-.036.122-.02.093-.019.148.038.146.137-.001.029-.027.05-.058.05-.031 0-.056-.024-.056-.052v-.034c0-.004-.005-.001-.015.002a.062.062 0 0 1-.039 0 .346.346 0 0 0-.012-.005c0 .01 0 .022-.002.04.003.06.08.11.216.11.036 0 .078-.016.124-.053v-.171h-.034c-.05 0-.075-.055-.04-.087l.074-.067v-.224c0-.015-.062-.03-.215-.03-.083 0-.12.015-.126.041-.007.094.001.11.016.104a.062.062 0 0 1 .038 0 .72.72 0 0 0 .035.01.06.06 0 0 1 .085.01c.032.046.003.097-.058.097a.313.313 0 0 1-.081-.015c-.114.026-.16-.066-.147-.221.023-.09.108-.13.238-.13z" fill="#F7FCFF" fill-rule="nonzero" />
					</g>
				</g>
			</g>
		</g>
	</g>
</svg>