<svg class="slovenian icon" width="20" height="16" viewBox="0 0 20 16" xmlns="http://www.w3.org/2000/svg" xmlns:xlink="http://www.w3.org/1999/xlink">
	<defs>
		<path d="M0 0h20v15H0z" id="slovenian_icon%s__a" />
		<path d="M0 0h20v15H0z" id="slovenian_icon%s__c" />
	</defs>
	<g fill="none" fill-rule="evenodd" transform="translate(0 .5)">
		<mask fill="#fff" id="slovenian_icon%s__b">
			<use xlink:href="#slovenian_icon%s__a" />
		</mask>
		<g mask="url(#slovenian_icon%s__b)">
			<mask fill="#fff" id="slovenian_icon%s__d">
				<use xlink:href="#slovenian_icon%s__c" />
			</mask>
			<use fill="#2E42A5" xlink:href="#slovenian_icon%s__c" />
			<path d="M0 0h20v5H0z" fill="#F7FCFF" mask="url(#slovenian_icon%s__d)" />
			<path d="M0 10h20v5H0z" fill="#C51918" mask="url(#slovenian_icon%s__d)" />
			<g mask="url(#slovenian_icon%s__d)">
				<path d="M8.588 3.148c-.877-.414-1.861-.622-2.952-.622-1.09 0-2.075.208-2.952.622.098 1.664.224 2.937.378 3.819.099.565.574 1.388 1.004 1.778.326.296.85.62 1.57.971.313-.215.897-.312 1.644-.97.498-.44.81-1.033.933-1.779l.375-3.82z" fill="#2E42A5" />
				<path d="m8.414 3.066.548.274-.377 3.764c-.131.796-.46 1.425-.988 1.89-.286.251-.565.44-.864.596l-.87.45a1.26 1.26 0 0 0-.167.093l-.069.047-.073-.036C4.822 9.788 4.139 9.308 3.8 9c-.463-.42-.951-1.28-1.056-1.874-.155-.89-.295-2.116-.393-3.786l.492-.258c.098 1.658.215 2.98.368 3.854.09.517.54 1.31.951 1.682.304.275.793.58 1.465.912.04-.023.085-.046.136-.07.001-.002.459-.205.618-.288a3.98 3.98 0 0 0 .805-.556c.467-.412.76-.967.877-1.673l.35-3.877z" fill="#C51918" fill-rule="nonzero" />
				<path d="M6.344 8.126a.284.284 0 0 1 .167.04c.166.09.356.146.53.154l-.007.005-.118.14c-.315.354-.749.614-1.303.782a3.717 3.717 0 0 1-1.298-.856c.149.003.258-.037.327-.126.042-.053.167-.106.31-.128a.723.723 0 0 1 .18-.007.203.203 0 0 1 .049.01c.12.182.43.278.723.157l-.036.007c.1-.034.28-.117.295-.123a.586.586 0 0 1 .18-.055zm.153-.441a.392.392 0 0 1 .206.042c.202.096.437.153.643.153-.046.073-.091.142-.136.207-.157.04-.408-.009-.609-.119a.47.47 0 0 0-.273-.062.752.752 0 0 0-.239.07c-.019.008-.196.09-.257.115l.036-.008c-.248.096-.465.025-.527-.077-.11-.182-.69-.093-.852.116-.044.057-.178.066-.398.01a2.838 2.838 0 0 1-.15-.21c.289.054.483.028.591-.092.05-.056.199-.11.368-.134a.978.978 0 0 1 .212-.007.285.285 0 0 1 .063.011c.005.002.004.002-.002-.007l.05.058c.137.128.392.195.651.138l.111-.032-.031.006c.105-.033.31-.115.329-.122a.77.77 0 0 1 .214-.056zm-.884-2.407.724 1.032.436-.473L7.871 6.89c-.13.28-.258.532-.386.756-.187.038-.472-.012-.702-.121a.578.578 0 0 0-.3-.06.937.937 0 0 0-.266.068c-.021.008-.225.09-.295.115l.032-.006c-.285.098-.546.024-.62-.083-.12-.173-.765-.086-.946.116-.067.075-.289.075-.653-.03l.053.017a4.778 4.778 0 0 1-.324-.772L4.54 5.837l.465.473.607-1.032z" fill="#FFF" />
				<path d="M4.467 3.679h-.44l.341-.32-.34-.337h.439l.185-.327.187.327h.438l-.323.317.287.34h-.402l-.187.345zM6.538 3.679h-.44l.341-.32-.34-.337h.439l.185-.327.187.327h.438l-.323.317.287.34H6.91l-.187.345zM5.375 4.73h-.44l.341-.32-.34-.337h.439l.185-.328.187.328h.438l-.323.317.287.34h-.402l-.187.345z" fill="#FECA00" />
			</g>
		</g>
	</g>
</svg>