<svg class="spanish icon" width="20" height="16" viewBox="0 0 20 16" xmlns="http://www.w3.org/2000/svg" xmlns:xlink="http://www.w3.org/1999/xlink">
	<defs>
		<path d="M0 0h20v15H0z" id="spanish_icon%s__a" />
		<path d="M0 0h20v15H0z" id="spanish_icon%s__c" />
		<path d="M0 0h1.26v.56A.77.77 0 0 0 .945.49.77.77 0 0 0 .63.56.77.77 0 0 0 .315.49.77.77 0 0 0 0 .56V0z" id="spanish_icon%s__e" />
		<path d="M0 0h1.26v.56A.77.77 0 0 0 .945.49.77.77 0 0 0 .63.56.77.77 0 0 0 .315.49.77.77 0 0 0 0 .56V0z" id="spanish_icon%s__g" />
		<path d="M0 0h4.55v4.088c-.225.915-.984 1.372-2.275 1.372S.225 4.99 0 4.052V0z" id="spanish_icon%s__i" />
	</defs>
	<g fill="none" fill-rule="evenodd" transform="translate(0 .5)">
		<mask fill="#fff" id="spanish_icon%s__b">
			<use xlink:href="#spanish_icon%s__a" />
		</mask>
		<g mask="url(#spanish_icon%s__b)">
			<mask fill="#fff" id="spanish_icon%s__d">
				<use xlink:href="#spanish_icon%s__c" />
			</mask>
			<use fill="#FFB400" xlink:href="#spanish_icon%s__c" />
			<path d="M0 0h20v3.75H0zM0 11.25h20V15H0z" fill="#C51918" mask="url(#spanish_icon%s__d)" />
			<g mask="url(#spanish_icon%s__d)">
				<path d="M3.13 6.42h1v3.64h-1z" fill="#F1F9FF" />
				<path d="M4.11 5.79v.35H3.9v.28h-.84v-.28h-.21v-.35h1.26zM3.9 10.27h.21v.35H2.85v-.35h.21v-.28h.84z" fill="#C88A02" />
				<path d="M3.48 5.86c.152 0 .168-.057.258-.143.07-.067.232-.15.232-.242 0-.213-.22-.385-.49-.385s-.49.172-.49.385c0 .104.112.173.197.242.089.073.154.143.293.143z" fill="#AD1619" />
				<g transform="translate(2.85 10.62)">
					<mask fill="#fff" id="spanish_icon%s__f">
						<use xlink:href="#spanish_icon%s__e" />
					</mask>
					<use fill="#005BBF" xlink:href="#spanish_icon%s__e" />
					<path d="M-.011.45-.04.383A.834.834 0 0 1 .303.307a.37.37 0 0 1 .177.04.307.307 0 0 0 .15.033.307.307 0 0 0 .15-.034.37.37 0 0 1 .178-.039c.114 0 .228.025.341.076L1.272.45A.766.766 0 0 0 .958.38a.307.307 0 0 0-.15.033.37.37 0 0 1-.178.04.37.37 0 0 1-.177-.04.307.307 0 0 0-.15-.033.766.766 0 0 0-.314.07zM-.011.24-.04.173A.834.834 0 0 1 .303.097a.37.37 0 0 1 .177.04.307.307 0 0 0 .15.033.307.307 0 0 0 .15-.034.37.37 0 0 1 .178-.039c.114 0 .228.025.341.076L1.272.24A.766.766 0 0 0 .958.17a.307.307 0 0 0-.15.033.37.37 0 0 1-.178.04.37.37 0 0 1-.177-.04.307.307 0 0 0-.15-.033.766.766 0 0 0-.314.07z" fill="#FFF" fill-rule="nonzero" mask="url(#spanish_icon%s__f)" />
				</g>
				<path d="M9.99 6.42h1v3.64h-1z" fill="#F1F9FF" />
				<path d="M10.97 5.79v.35h-.21v.28h-.84v-.28h-.21v-.35h1.26zM10.76 10.27h.21v.35H9.71v-.35h.21v-.28h.84z" fill="#C88A02" />
				<path d="M10.34 5.86c.152 0 .168-.057.258-.143.07-.067.232-.15.232-.242 0-.213-.22-.385-.49-.385s-.49.172-.49.385c0 .104.112.173.197.242.089.073.154.143.293.143z" fill="#AD1619" />
				<g transform="translate(9.71 10.62)">
					<mask fill="#fff" id="spanish_icon%s__h">
						<use xlink:href="#spanish_icon%s__g" />
					</mask>
					<use fill="#005BBF" xlink:href="#spanish_icon%s__g" />
					<path d="M-.011.45-.04.383A.834.834 0 0 1 .303.307a.37.37 0 0 1 .177.04.307.307 0 0 0 .15.033.307.307 0 0 0 .15-.034.37.37 0 0 1 .178-.039c.114 0 .228.025.341.076L1.272.45A.766.766 0 0 0 .958.38a.307.307 0 0 0-.15.033.37.37 0 0 1-.178.04.37.37 0 0 1-.177-.04.307.307 0 0 0-.15-.033.766.766 0 0 0-.314.07zM-.011.24-.04.173A.834.834 0 0 1 .303.097a.37.37 0 0 1 .177.04.307.307 0 0 0 .15.033.307.307 0 0 0 .15-.034.37.37 0 0 1 .178-.039c.114 0 .228.025.341.076L1.272.24A.766.766 0 0 0 .958.17a.307.307 0 0 0-.15.033.37.37 0 0 1-.178.04.37.37 0 0 1-.177-.04.307.307 0 0 0-.15-.033.766.766 0 0 0-.314.07z" fill="#FFF" fill-rule="nonzero" mask="url(#spanish_icon%s__h)" />
				</g>
				<path d="M3.314 9.36c0 .148-.07.287-.197.44l-.43-.355-.04-.012-.023-.18c-.043-.33.099-.514.39-.646.008-.003.14-.06.177-.079a.999.999 0 0 0 .16-.093c.046-.034.096-.066.157-.101-.36-.058-.556-.1-.705-.165-.358-.154-.404-.512-.06-.75.468-.322 1.724-.351 2.274-.067l-.256.498c-.27-.14-.885-.166-1.316-.094l.221.036.246.038c.172.027.29.06.376.12.178.12.204.338.077.499a.757.757 0 0 1-.229.18c-.034.02-.07.04-.12.066l-.12.064c-.1.054-.167.093-.216.129a1.546 1.546 0 0 1-.247.145 9.339 9.339 0 0 1-.195.087.395.395 0 0 1 .076.24zm5.424-2.008c.55-.284 1.806-.255 2.275.068.344.237.298.595-.06.749-.15.064-.345.107-.705.165.06.035.11.067.157.101a.999.999 0 0 0 .16.093c.037.018.169.076.176.079.292.132.433.316.39.647l-.022.179-.041.012-.43.355c-.126-.153-.197-.292-.197-.44 0-.093.028-.174.077-.24-.008-.003-.147-.064-.196-.087a1.546 1.546 0 0 1-.246-.145 1.928 1.928 0 0 0-.217-.13l-.12-.063a3.802 3.802 0 0 1-.12-.066.757.757 0 0 1-.229-.18.335.335 0 0 1 .077-.499c.087-.06.204-.093.376-.12l.078-.012a110.188 110.188 0 0 0 .39-.062c-.431-.072-1.046-.046-1.316.094z" fill="#AD1619" fill-rule="nonzero" />
				<path d="m3.702 7.75.207.043V8.1c-.147.117-.407.274-.779.471V7.75h.572zM10.197 7.75l-.207.043V8.1c.147.117.406.274.779.471V7.75h-.572z" fill="#F1F9FF" fill-rule="nonzero" />
				<g>
					<path d="M6.957 3.817v.002l.19-.01c.323-.003.641.065.957.205.394 0 .77.129 1.131.387v.103l-.706.709c-.141.391-.393.412-.589.477-.065.021-.986.047-.986.047v-.003l-.178.018c-.818.066-1.289-.114-1.412-.54l-.706-.708V4.4c.36-.258.737-.387 1.13-.387.392-.17.781-.235 1.169-.197z" fill="#AD1619" />
					<path d="M7.016 4.6c0 .158.08.259.202.259.084 0 .144-.039.187-.124l.12-.236.012.264c.005.094.045.13.146.13.104 0 .176-.067.224-.22l.105-.336.031.352c.016.174.063.256.134.267.096.016.168.008.22-.02l.103-.055v.095a.593.593 0 0 0 .164-.02l.022.103.516-.486.048.051-.642.604c-.094.173-.14.286-.14.334 0 .072-.189.115-.555.159a8.833 8.833 0 0 1-.973.061l.07-.001v.001l-.035-.001-.035.001v-.001l-.16-.003a9.237 9.237 0 0 1-.743-.057c-.367-.044-.554-.087-.554-.16l-.002-.015c-.038-.037-.068-.11-.09-.22a1.382 1.382 0 0 0-.05-.098L5.2 5.094h-.003V5.09L4.7 4.624l.048-.051.465.438.013-.054a.593.593 0 0 0 .164.019V4.88l.104.056c.05.027.123.035.219.019.07-.011.118-.093.133-.267l.032-.352.105.337c.048.152.12.22.224.22.1 0 .141-.037.146-.13l.012-.265.12.236c.043.085.103.124.187.124.121 0 .202-.1.202-.26zm-.08.813.029-.002c-.804.049-1.262.1-1.374.152l-.01.002.017.006c.02.007.047.014.077.021.09.02.218.041.37.06.298.035.651.058.932.06a8.86 8.86 0 0 0 .928-.06c.152-.019.28-.04.37-.06a.677.677 0 0 0 .104-.03l-.02.007a.094.094 0 0 1-.076-.006c-.112-.052-.57-.103-1.374-.152l.028.002z" fill="#C88A02" fill-rule="nonzero" />
					<path d="M6.945 3.342a.21.21 0 1 0 0-.42.21.21 0 0 0 0 .42z" fill="#005BBF" />
					<path d="M5.017 4.677a.278.278 0 0 1 .012.068.23.23 0 0 1 .075-.06c.086-.046.177-.041.204.01.027.051-.02.13-.105.175-.085.045-.177.04-.204-.01-.009.005-.02.012-.03.015-.056.017-.124-.044-.153-.137-.028-.092-.006-.18.05-.198.055-.017.123.045.151.137zm3.924-.16.034.002c.055.017.078.106.05.198-.029.092-.097.154-.152.137a.068.068 0 0 1-.031-.02c-.028.055-.119.06-.204.014-.086-.045-.133-.123-.106-.175.028-.05.119-.056.204-.01a.263.263 0 0 1 .078.061l-.002-.014.011-.054c.029-.093.097-.154.152-.137zm-.953-.292c.058-.003.109.073.114.17a.264.264 0 0 1-.013.096l.015-.002.055.002c.096.013.167.07.159.128-.008.058-.092.093-.188.08-.096-.014-.167-.071-.159-.128v-.004c-.008.061-.092.097-.188.083-.095-.013-.166-.07-.158-.128.008-.058.092-.093.188-.08a.264.264 0 0 1 .093.03L7.9 4.462l-.008-.055c-.005-.097.038-.178.096-.18zm-2.16.026c.057-.01.118.057.137.152a.264.264 0 0 1 .001.097l.014-.004.055-.006c.097 0 .175.047.175.105 0 .058-.078.105-.175.105-.097 0-.175-.047-.175-.105l-.001-.003c.001.061-.077.108-.174.108-.097 0-.175-.047-.175-.105 0-.058.078-.105.175-.105.035 0 .068.007.096.017l-.007-.01-.015-.054c-.019-.095.012-.18.07-.192zm1.05-.07c.057-.01.118.057.137.152a.264.264 0 0 1 .001.097l.014-.004.055-.006c.097 0 .175.047.175.105 0 .058-.078.105-.175.105-.097 0-.175-.047-.175-.105l-.001-.003c.001.061-.077.108-.174.108-.097 0-.175-.047-.175-.105 0-.058.078-.105.175-.105.035 0 .068.007.096.017l-.007-.01-.015-.054c-.019-.095.012-.18.07-.192zM7.013 2.548l-.001.092h.096v.146l-.096-.001v.292h.096v.146H6.77v-.145l.096-.001v-.292H6.77V2.64h.096v-.092h.147z" fill="#C88A02" fill-rule="nonzero" />
					<path d="M6.84 3.34h1v1h-1z" fill="#C88A02" />
					<g fill-rule="nonzero">
						<path d="m5.713 3.492-.001.07c-.621-.01-.977.08-1.067.26-.094.187-.077.414.054.684l-.063.03c-.14-.287-.158-.536-.054-.745.107-.214.484-.31 1.13-.299z" fill="#FFF" />
						<path d="m5.833 4.113-.036.06c-.135-.08-.203-.218-.203-.408 0-.273.14-.433.452-.542.198-.07.469-.042.813.083l-.023.066c-.331-.12-.587-.147-.767-.083-.285.1-.405.236-.405.476 0 .167.056.28.169.348z" fill="#FFF" />
						<path d="m4.788 4.398-.132.047c-.138-.39-.098-.655.136-.77.206-.1.507-.142.903-.125l-.005.14c-.376-.016-.655.022-.837.111-.154.075-.182.266-.065.597z" fill="#C88A02" />
						<path d="M6.33 3.4c-.32 0-.45.077-.526.307-.048.147-.001.272.15.39l-.087.11c-.194-.152-.263-.337-.196-.543.096-.293.284-.405.66-.405.246 0 .438.065.572.197l.021.02v.675h-.14v-.615c-.104-.09-.254-.137-.453-.137z" fill="#C88A02" />
						<path d="M8.156 3.562v.07c.622-.01.978.08 1.068.26.093.187.076.414-.055.684l.063.03c.14-.287.159-.536.055-.745-.108-.214-.484-.31-1.131-.299z" fill="#FFF" />
						<path d="m7.936 4.128.036.06c.136-.08.203-.219.203-.408 0-.273-.14-.433-.451-.543-.199-.07-.47-.041-.814.084l.024.066c.33-.12.586-.147.767-.084.285.1.404.237.404.477 0 .166-.056.28-.169.348z" fill="#FFF" />
						<path d="m9.125 4.468.132.047c.137-.39.098-.655-.137-.77-.206-.1-.507-.142-.903-.125l.005.14c.376-.016.655.022.837.111.154.075.182.266.066.597z" fill="#C88A02" />
						<path d="M7.573 3.41c.32 0 .452.078.527.308.048.147.001.272-.15.389l.087.11c.195-.15.263-.336.196-.542-.096-.294-.283-.405-.66-.405-.246 0-.438.065-.572.197l-.021.02v.675h.14v-.615c.104-.09.255-.137.453-.137z" fill="#C88A02" />
					</g>
				</g>
				<g transform="translate(4.67 5.79)">
					<mask fill="#fff" id="spanish_icon%s__j">
						<use xlink:href="#spanish_icon%s__i" />
					</mask>
					<use fill="#E1E5E8" opacity=".3" xlink:href="#spanish_icon%s__i" />
					<path d="M0 2.52h2.31v2.73H0z" fill="#FFC034" fill-rule="nonzero" mask="url(#spanish_icon%s__j)" />
					<path d="M.28 2.66h1v2.59h-1z" fill="#AD1619" fill-rule="nonzero" mask="url(#spanish_icon%s__j)" />
					<path d="M1.26 2.66h1v2.59h-1z" fill="#AD1619" fill-rule="nonzero" mask="url(#spanish_icon%s__j)" />
					<path d="M.77 2.66h1v2.59h-1z" fill="#AD1619" fill-rule="nonzero" mask="url(#spanish_icon%s__j)" />
					<path d="M1.75 2.66h1v2.59h-1zM0-.07h2.31v2.66H0z" fill="#AD1619" fill-rule="nonzero" mask="url(#spanish_icon%s__j)" />
					<path d="M2.24 2.45h2.31v2.66H2.24z" fill="#AD1619" fill-rule="nonzero" mask="url(#spanish_icon%s__j)" />
					<path d="M2.24 0h2.45v2.59H2.24z" fill="#F1F9FF" mask="url(#spanish_icon%s__j)" />
					<path d="M1.19.21v.58h.14V.5h.21v.29h.21v.364l-.21-.001v.654h.21v.363H.49v-.363H.7v-.654H.49V.792L.63.79V.5h.21v.29h.14V.21h.21z" fill="#C88A02" mask="url(#spanish_icon%s__j)" />
					<path d="M3.785 2.151a.162.162 0 0 0 .018-.017l.009.008a.072.072 0 0 0-.026.008l-.001.001zM3.747.576c.094.135.094.283.002.4a.502.502 0 0 1-.188.14c.06.084.095.13.155.197.03.034.056.065.079.094a.295.295 0 0 1 .098-.04 1 1 0 0 0 .05-.014c.05-.017.055-.014.056-.12v-.088c0-.042-.001-.078-.005-.16V.976C3.98.674 3.992.558 4.085.475l.094.104c-.046.04-.056.145-.045.392v.008c.003.084.005.121.005.166v.026c0 .223-.017.27-.151.314a1.124 1.124 0 0 1-.072.022l-.043.013a.431.431 0 0 1 .032.063c.038.09.027.178-.042.227H3.86l.004.015c.008.033.007.066-.009.2a.488.488 0 0 0-.003.14c-.005-.015-.025-.031-.053-.028h-.002l.1.09c-.06.066-.144.077-.177-.015a.495.495 0 0 1-.004-.202.768.768 0 0 0 .012-.152.545.545 0 0 1-.012-.122l-.055.118c-.063-.028-.094-.054-.103-.1a.101.101 0 0 1 .003-.046.252.252 0 0 1 .008-.022c.007-.02.006-.032-.026-.076l-.024-.034a1.933 1.933 0 0 0-.092-.024c.007.02.016.042.027.066l.047.108a.346.346 0 0 1 .031.112c.009.144-.107.178-.252.136a1.048 1.048 0 0 0-.178-.044c.048-.001.074-.054.07-.073l-.207.032c-.014-.089.025-.166.131-.169.04-.001.092.01.19.037l-.024-.054a1.21 1.21 0 0 1-.053-.138c-.036-.12.024-.215.14-.227h.018a9.342 9.342 0 0 1-.08-.136l-.042.008-.009-.052-.021.025c-.05.055-.103.105-.153.144-.14.11-.269.147-.366.037l.156-.14c-.005-.005-.014-.007-.009-.009a.297.297 0 0 0 .09-.053c.039-.03.082-.072.124-.118a.783.783 0 0 1-.173-.161.565.565 0 0 0-.114-.11C2.753.761 2.7.733 2.695.73 2.608.67 2.613.615 2.665.483l.196.078a1.788 1.788 0 0 0-.007.017.66.66 0 0 1 .193.171.53.53 0 0 0 .15.135l-.003-.02A.837.837 0 0 0 3.37.818c.039-.015.07-.031.088-.044C3.41.707 3.373.676 3.347.666c-.004-.001 0-.001.004-.003a.088.088 0 0 0 .02-.011L3.161.37a.265.265 0 0 1 .06-.032c.166-.067.36.003.525.238z" fill="#C37C9C" fill-rule="nonzero" mask="url(#spanish_icon%s__j)" />
					<path d="m3.442.332.143-.154.301.282-.143.153z" fill="#C88A02" fill-rule="nonzero" mask="url(#spanish_icon%s__j)" />
					<path d="M2.765 4.26c.067.265.278.395.665.395s.598-.127.665-.383V2.975h-1.33V4.26zm1.54-1.495v1.533l-.003.012c-.089.369-.39.555-.872.555s-.784-.191-.872-.568l-.003-.012v-1.52h1.75z" fill="#FFC034" fill-rule="nonzero" mask="url(#spanish_icon%s__j)" />
					<path d="M3.502 2.893v.622l.508-.552.103.094-.52.565h.582v.21H3.58l.532.579-.103.095-.509-.554.001.74h-.146v-.81l-.574.624-.104-.095.532-.579h-.483v-.21h.47l-.519-.565.104-.094.573.623.001-.693h.146z" fill="#FFC034" fill-rule="nonzero" mask="url(#spanish_icon%s__j)" />
					<path d="M3.757 5.112c-.989.077-1.483-.202-1.483-.84-.01.56-.53.84-1.562.84v.755h3.045v-.755z" fill="#F1F9FF" mask="url(#spanish_icon%s__j)" />
					<circle cx="2.275" cy="2.52" fill="#005BBF" mask="url(#spanish_icon%s__j)" r="1" stroke="#AD1619" stroke-width=".729" />
				</g>
			</g>
		</g>
	</g>
</svg>