<?xml version="1.0" standalone="no"?>
<!DOCTYPE svg PUBLIC "-//W3C//DTD SVG 1.1//EN" "http://www.w3.org/Graphics/SVG/1.1/DTD/svg11.dtd">
<svg t="1621218013593" class="icon" viewBox="0 0 1024 1024" version="1.1" xmlns="http://www.w3.org/2000/svg" p-id="6723" xmlns:xlink="http://www.w3.org/1999/xlink" width="200" height="200">
	<defs>
		<style type="text/css"></style>
	</defs>
	<path d="M512 512m-512 0a512 512 0 1 0 1024 0 512 512 0 1 0-1024 0Z" fill="#E94B35" p-id="6724"></path>
	<path d="M266.666667 373.333333l-94.037334 65.450667 33.173334-109.653333-91.306667-69.248 114.56-2.346667L266.666667 149.333333l37.610666 108.224 114.56 2.346667-91.306666 69.205333 33.173333 109.653334zM442.154667 186.709333l-29.525334 7.808 18.304-24.448-16.554666-25.664 28.906666 9.856 19.306667-23.68-0.426667 30.549334 28.48 11.029333-29.205333 9.024-1.685333 30.506667zM541.866667 268.693333l-13.013334 27.648-6.933333-29.738666-30.314667-3.84 26.133334-15.786667L512 216.96l23.125333 19.968 26.752-14.72-11.84 28.16 22.272 20.906667zM530.368 381.546667l-27.733333 12.821333 13.802666-27.264-20.778666-22.4 30.186666 4.693333 14.890667-26.666666 4.864 30.144 29.994667 5.930666-27.2 13.930667 3.626666 30.336zM442.154667 464.042667l-29.525334 7.808 18.304-24.448-16.554666-25.664 28.906666 9.856 19.306667-23.68-0.426667 30.549333 28.48 11.029333-29.205333 9.024-1.685333 30.506667z" fill="#F2C500" p-id="6725"></path>
</svg>