<svg class="icon" xmlns="http://www.w3.org/2000/svg" viewBox="0 0 22 22">
	<defs>
		<style>.a{fill:#a9a9a9}</style>
	</defs>
	<path class="a" d="M14.5 3h-7A1.5 1.5 0 0 0 6 4.5 1.5 1.5 0 0 0 7.5 6H8v5l-2 2h10l-2-2V6h.5A1.5 1.5 0 0 0 16 4.5 1.5 1.5 0 0 0 14.5 3zm-4 14l.5 3 .5-3v-4h-1v4z" />
	<path d="M13.5 21.2a10.49 10.49 0 1 1 7.894-8.7m-.894 3a2 2 0 0 0-4 0" fill="none" stroke="#a9a9a9" stroke-linecap="round" stroke-linejoin="round" />
	<path class="a" d="M21.5 16h-6a.5.5 0 0 0-.5.5v5a.5.5 0 0 0 .5.5h6a.5.5 0 0 0 .5-.5v-5a.5.5 0 0 0-.5-.5zm-3 4a1 1 0 1 1 1-1 1 1 0 0 1-1 1z" />
</svg>