<svg class="icon" width="24" height="24" viewBox="0 0 992 897" version="1.1" xmlns="http://www.w3.org/2000/svg" xmlns:xlink="http://www.w3.org/1999/xlink">
	<path d="M50.1384061,896.855556 C76.6384061,896.855556 103.138406,896.855556 129.538406,896.855556 C162.738406,896.855556 195.938406,896.855556 229.138406,896.855556 C254.038406,896.855556 278.938406,896.855556 303.838406,896.855556 C331.638406,896.855556 359.538406,896.855556 387.338406,896.855556 C422.538406,896.855556 457.738406,896.855556 492.938406,896.855556 C516.338406,896.855556 539.838406,896.855556 563.238406,896.855556 C592.638406,896.855556 622.138406,896.855556 651.538406,896.855556 C684.738406,896.855556 717.838406,896.855556 751.038406,896.855556 C775.538406,896.855556 800.038406,896.855556 824.438406,896.855556 C860.138406,896.855556 895.938406,896.855556 931.638406,896.855556 C934.938406,896.855556 938.238406,896.855556 941.638406,896.855556 C954.438406,896.855556 967.938406,891.255556 977.038406,882.255556 C985.738406,873.555556 992.238406,859.355556 991.638406,846.855556 C991.038406,833.955556 986.838406,820.555556 977.038406,811.455556 C967.238406,802.455556 955.238406,796.855556 941.638406,796.855556 C908.938406,796.855556 876.238406,796.855556 843.638406,796.855556 C822.738406,796.855556 801.838406,796.855556 780.838406,796.855556 C741.938406,796.855556 702.938406,796.855556 664.038406,796.855556 C638.938406,796.855556 613.838406,796.855556 588.638406,796.855556 C566.238406,796.855556 543.838406,796.855556 521.538406,796.855556 C481.938406,796.855556 442.438406,796.855556 402.838406,796.855556 C377.738406,796.855556 352.738406,796.855556 327.638406,796.855556 C304.738406,796.855556 281.738406,796.855556 258.838406,796.855556 C219.938406,796.855556 180.938406,796.855556 142.038406,796.855556 C116.038406,796.855556 90.0384061,796.855556 64.1384061,796.855556 C59.4384061,796.855556 54.7384061,796.855556 50.0384061,796.855556 C37.2384061,796.855556 23.7384061,802.455556 14.6384061,811.455556 C5.93840614,820.155556 -0.561593858,834.355556 0.0384061424,846.855556 C0.638406142,859.755556 4.83840614,873.155556 14.6384061,882.255556 C24.6384061,891.155556 36.6384061,896.855556 50.1384061,896.855556 L50.1384061,896.855556 Z" id="Path"></path>
	<path d="M369.438406,471.055556 C369.438406,483.455556 369.438406,495.855556 369.438406,508.355556 C369.438406,538.155556 369.438406,568.055556 369.438406,597.855556 C369.438406,633.955556 369.438406,670.155556 369.438406,706.255556 C369.438406,737.555556 369.438406,768.755556 369.438406,800.055556 C369.438406,815.355556 369.138406,830.655556 369.438406,845.855556 C369.438406,846.055556 369.438406,846.255556 369.438406,846.455556 C386.138406,829.755556 402.738406,813.155556 419.438406,796.455556 C384.238406,796.455556 349.138406,796.455556 313.938406,796.455556 C257.938406,796.455556 201.838406,796.455556 145.838406,796.455556 C132.938406,796.455556 120.138406,796.455556 107.238406,796.455556 C123.938406,813.155556 140.538406,829.755556 157.238406,846.455556 C157.238406,833.955556 157.238406,821.355556 157.238406,808.855556 C157.238406,778.755556 157.238406,748.755556 157.238406,718.655556 C157.238406,682.355556 157.238406,646.055556 157.238406,609.755556 C157.238406,578.555556 157.238406,547.255556 157.238406,516.055556 C157.238406,501.155556 156.838406,486.255556 157.238406,471.455556 C157.238406,470.355556 157.338406,469.255556 157.438406,468.155556 C156.838406,472.555556 156.238406,477.055556 155.638406,481.455556 C155.938406,480.055556 156.238406,478.855556 156.638406,477.555556 C154.938406,481.555556 153.238406,485.555556 151.638406,489.455556 C152.338406,487.755556 153.138406,486.355556 154.138406,484.855556 C151.538406,488.255556 148.938406,491.555556 146.338406,494.955556 C147.438406,493.555556 148.638406,492.355556 150.038406,491.255556 C146.638406,493.855556 143.338406,496.455556 139.938406,499.055556 C141.438406,498.055556 142.838406,497.255556 144.538406,496.555556 C140.538406,498.255556 136.538406,499.955556 132.638406,501.555556 C133.938406,501.155556 135.138406,500.755556 136.538406,500.555556 C132.138406,501.155556 127.638406,501.755556 123.238406,502.355556 C132.938406,501.255556 143.138406,502.155556 152.938406,502.155556 C174.838406,502.155556 196.738406,502.155556 218.738406,502.155556 C268.338406,502.155556 318.038406,502.155556 367.638406,502.155556 C379.438406,502.155556 391.738406,501.055556 403.538406,502.355556 C399.138406,501.755556 394.638406,501.155556 390.238406,500.555556 C391.638406,500.855556 392.838406,501.155556 394.138406,501.555556 C390.138406,499.855556 386.138406,498.155556 382.238406,496.555556 C383.938406,497.255556 385.338406,498.055556 386.838406,499.055556 C383.438406,496.455556 380.138406,493.855556 376.738406,491.255556 C378.138406,492.355556 379.338406,493.555556 380.438406,494.955556 C377.838406,491.555556 375.238406,488.255556 372.638406,484.855556 C373.638406,486.355556 374.438406,487.755556 375.138406,489.455556 C373.438406,485.455556 371.738406,481.455556 370.138406,477.555556 C370.538406,478.855556 370.938406,480.055556 371.138406,481.455556 C370.538406,477.055556 369.938406,472.555556 369.338406,468.155556 C369.438406,469.255556 369.438406,470.155556 369.438406,471.055556 C369.938406,484.155556 374.638406,497.055556 384.038406,506.455556 C392.738406,515.155556 406.938406,521.655556 419.438406,521.055556 C432.338406,520.455556 445.738406,516.255556 454.838406,506.455556 C463.638406,496.855556 469.938406,484.455556 469.438406,471.055556 C468.738406,452.955556 462.638406,437.355556 450.638406,423.955556 C446.438406,419.255556 441.038406,414.955556 435.638406,411.855556 C429.838406,408.555556 423.338406,405.655556 416.838406,404.355556 C410.738406,403.155556 404.638406,402.355556 398.438406,402.355556 C391.638406,402.355556 384.838406,402.355556 378.038406,402.355556 C350.738406,402.355556 323.338406,402.355556 296.038406,402.355556 C263.338406,402.355556 230.638406,402.355556 198.038406,402.355556 C176.138406,402.355556 154.338406,402.355556 132.438406,402.355556 C130.538406,402.355556 128.638406,402.355556 126.838406,402.355556 C108.738406,402.555556 92.3384061,409.055556 78.9384061,421.155556 C63.6384061,434.955556 57.3384061,455.155556 57.3384061,475.255556 C57.3384061,492.155556 57.3384061,509.155556 57.3384061,526.055556 C57.3384061,555.455556 57.3384061,584.855556 57.3384061,614.255556 C57.3384061,647.355556 57.3384061,680.455556 57.3384061,713.555556 C57.3384061,742.055556 57.3384061,770.555556 57.3384061,799.055556 C57.3384061,814.155556 57.3384061,829.355556 57.3384061,844.455556 C57.3384061,845.155556 57.3384061,845.855556 57.3384061,846.555556 C57.3384061,873.555556 80.2384061,896.555556 107.338406,896.555556 C142.538406,896.555556 177.638406,896.555556 212.838406,896.555556 C268.838406,896.555556 324.938406,896.555556 380.938406,896.555556 C393.838406,896.555556 406.638406,896.555556 419.538406,896.555556 C446.538406,896.555556 469.538406,873.655556 469.538406,846.555556 C469.538406,834.155556 469.538406,821.755556 469.538406,809.255556 C469.538406,779.455556 469.538406,749.555556 469.538406,719.755556 C469.538406,683.655556 469.538406,647.455556 469.538406,611.355556 C469.538406,580.055556 469.538406,548.855556 469.538406,517.555556 C469.538406,502.255556 469.738406,486.955556 469.538406,471.755556 C469.538406,471.555556 469.538406,471.355556 469.538406,471.155556 C469.538406,458.355556 463.938406,444.855556 454.938406,435.755556 C446.238406,427.055556 432.038406,420.555556 419.538406,421.155556 C406.638406,421.755556 393.238406,425.955556 384.138406,435.755556 C375.138406,445.455556 369.438406,457.555556 369.438406,471.055556 Z" id="Path"></path>
	<path d="M601.538406,270.055556 C601.538406,289.155556 601.538406,308.355556 601.538406,327.455556 C601.538406,373.455556 601.538406,419.355556 601.538406,465.355556 C601.538406,520.955556 601.538406,576.455556 601.538406,632.055556 C601.538406,679.955556 601.538406,727.755556 601.538406,775.655556 C601.538406,798.955556 601.238406,822.255556 601.538406,845.555556 C601.538406,845.855556 601.538406,846.255556 601.538406,846.555556 C618.238406,829.855556 634.838406,813.255556 651.538406,796.555556 C625.438406,796.555556 599.338406,796.555556 573.338406,796.555556 C531.738406,796.555556 490.038406,796.555556 448.438406,796.555556 C438.838406,796.555556 429.138406,796.555556 419.538406,796.555556 C436.238406,813.255556 452.838406,829.855556 469.538406,846.555556 C469.538406,828.755556 469.538406,810.855556 469.538406,793.055556 C469.538406,753.155556 469.538406,713.255556 469.538406,673.355556 C469.538406,631.255556 469.538406,589.155556 469.538406,547.155556 C469.538406,522.755556 469.538406,498.455556 469.538406,474.055556 C469.538406,467.255556 469.038406,460.455556 467.338406,453.755556 C459.538406,422.655556 430.338406,402.555556 399.038406,402.455556 C380.838406,402.355556 362.538406,402.455556 344.338406,402.455556 C342.638406,402.455556 340.938406,402.455556 339.238406,402.455556 C355.938406,419.155556 372.538406,435.755556 389.238406,452.455556 C389.238406,431.755556 389.238406,411.055556 389.238406,390.255556 C389.238406,357.455556 389.238406,324.655556 389.238406,291.855556 C389.238406,283.755556 388.538406,275.355556 389.438406,267.355556 C388.838406,271.755556 388.238406,276.255556 387.638406,280.655556 C387.938406,279.255556 388.238406,278.055556 388.638406,276.755556 C386.938406,280.755556 385.238406,284.755556 383.638406,288.655556 C384.338406,286.955556 385.138406,285.555556 386.138406,284.055556 C383.538406,287.455556 380.938406,290.755556 378.338406,294.155556 C379.438406,292.755556 380.638406,291.555556 382.038406,290.455556 C378.638406,293.055556 375.338406,295.655556 371.938406,298.255556 C373.438406,297.255556 374.838406,296.455556 376.538406,295.755556 C372.538406,297.455556 368.538406,299.155556 364.638406,300.755556 C365.938406,300.355556 367.138406,299.955556 368.538406,299.755556 C364.138406,300.355556 359.638406,300.955556 355.238406,301.555556 C364.938406,300.455556 375.238406,301.355556 384.938406,301.355556 C406.838406,301.355556 428.838406,301.355556 450.738406,301.355556 C500.438406,301.355556 550.138406,301.355556 599.738406,301.355556 C611.538406,301.355556 623.938406,300.255556 635.638406,301.555556 C631.238406,300.955556 626.738406,300.355556 622.338406,299.755556 C623.738406,300.055556 624.938406,300.355556 626.238406,300.755556 C622.238406,299.055556 618.238406,297.355556 614.338406,295.755556 C616.038406,296.455556 617.438406,297.255556 618.938406,298.255556 C615.538406,295.655556 612.238406,293.055556 608.838406,290.455556 C610.238406,291.555556 611.438406,292.755556 612.538406,294.155556 C609.938406,290.755556 607.338406,287.455556 604.738406,284.055556 C605.738406,285.555556 606.538406,286.955556 607.238406,288.655556 C605.538406,284.655556 603.838406,280.655556 602.238406,276.755556 C602.638406,278.055556 603.038406,279.255556 603.238406,280.655556 C602.638406,276.255556 602.038406,271.755556 601.438406,267.355556 C601.438406,268.155556 601.538406,269.155556 601.538406,270.055556 C602.038406,283.155556 606.738406,296.055556 616.138406,305.455556 C624.838406,314.155556 639.038406,320.655556 651.538406,320.055556 C664.438406,319.455556 677.838406,315.255556 686.938406,305.455556 C695.738406,295.855556 702.038406,283.455556 701.538406,270.055556 C700.638406,246.055556 689.138406,223.755556 668.238406,211.155556 C657.338406,204.555556 645.138406,201.655556 632.438406,201.355556 C629.538406,201.255556 626.638406,201.355556 623.738406,201.355556 C608.838406,201.355556 594.038406,201.355556 579.138406,201.355556 C533.138406,201.355556 487.238406,201.355556 441.238406,201.355556 C413.538406,201.355556 385.738406,200.555556 358.038406,201.355556 C339.938406,201.855556 324.938406,208.255556 311.238406,219.755556 C305.438406,224.655556 300.338406,231.355556 297.138406,238.155556 C291.838406,249.455556 289.538406,257.255556 289.038406,270.155556 C288.938406,273.455556 289.038406,276.855556 289.038406,280.155556 C289.038406,298.655556 289.038406,317.155556 289.038406,335.655556 C289.038406,373.855556 289.038406,411.955556 289.038406,450.155556 C289.038406,450.955556 289.038406,451.655556 289.038406,452.455556 C289.038406,479.455556 311.938406,502.455556 339.038406,502.455556 C349.638406,502.455556 360.238406,502.455556 370.838406,502.455556 C381.538406,502.455556 392.738406,501.455556 403.438406,502.655556 C399.038406,502.055556 394.538406,501.455556 390.138406,500.855556 C391.538406,501.155556 392.738406,501.455556 394.038406,501.855556 C390.038406,500.155556 386.038406,498.455556 382.138406,496.855556 C383.838406,497.555556 385.238406,498.355556 386.738406,499.355556 C383.338406,496.755556 380.038406,494.155556 376.638406,491.555556 C378.038406,492.655556 379.238406,493.855556 380.338406,495.255556 C377.738406,491.855556 375.138406,488.555556 372.538406,485.155556 C373.538406,486.655556 374.338406,488.055556 375.038406,489.755556 C373.338406,485.755556 371.638406,481.755556 370.038406,477.855556 C370.438406,479.155556 370.838406,480.355556 371.038406,481.755556 C370.438406,477.355556 369.838406,472.855556 369.238406,468.455556 C369.638406,472.455556 369.438406,476.555556 369.438406,480.555556 C369.438406,489.555556 369.438406,498.555556 369.438406,507.555556 C369.438406,537.355556 369.438406,567.255556 369.438406,597.055556 C369.438406,633.355556 369.438406,669.655556 369.438406,705.855556 C369.438406,737.255556 369.438406,768.755556 369.438406,800.155556 C369.438406,815.455556 369.238406,830.655556 369.438406,845.955556 C369.438406,846.155556 369.438406,846.455556 369.438406,846.655556 C369.438406,873.655556 392.338406,896.655556 419.438406,896.655556 C445.538406,896.655556 471.638406,896.655556 497.638406,896.655556 C539.238406,896.655556 580.938406,896.655556 622.538406,896.655556 C632.138406,896.655556 641.838406,896.655556 651.438406,896.655556 C678.438406,896.655556 701.438406,873.755556 701.438406,846.655556 C701.438406,827.555556 701.438406,808.355556 701.438406,789.255556 C701.438406,743.255556 701.438406,697.355556 701.438406,651.355556 C701.438406,595.755556 701.438406,540.255556 701.438406,484.655556 C701.438406,436.755556 701.438406,388.955556 701.438406,341.055556 C701.438406,317.755556 701.738406,294.455556 701.438406,271.155556 C701.438406,270.855556 701.438406,270.455556 701.438406,270.155556 C701.438406,257.355556 695.838406,243.855556 686.838406,234.755556 C678.138406,226.055556 663.938406,219.555556 651.438406,220.155556 C638.538406,220.755556 625.138406,224.955556 616.038406,234.755556 C607.138406,244.455556 601.538406,256.455556 601.538406,270.055556 Z" id="Path"></path>
	<path d="M833.438406,69.0555556 C833.438406,75.9555556 833.438406,82.9555556 833.438406,89.8555556 C833.438406,108.755556 833.438406,127.655556 833.438406,146.455556 C833.438406,174.355556 833.438406,202.255556 833.438406,230.155556 C833.438406,264.055556 833.438406,297.955556 833.438406,331.855556 C833.438406,369.155556 833.438406,406.455556 833.438406,443.755556 C833.438406,481.355556 833.438406,519.055556 833.438406,556.655556 C833.438406,591.755556 833.438406,626.855556 833.438406,661.955556 C833.438406,691.655556 833.438406,721.255556 833.438406,750.955556 C833.438406,772.255556 833.438406,793.455556 833.438406,814.755556 C833.438406,824.855556 833.338406,835.055556 833.438406,845.155556 C833.438406,845.555556 833.438406,846.055556 833.438406,846.455556 C850.138406,829.755556 866.738406,813.155556 883.438406,796.455556 C857.238406,796.455556 831.038406,796.455556 804.838406,796.455556 C763.338406,796.455556 721.738406,796.455556 680.238406,796.455556 C670.638406,796.455556 661.138406,796.455556 651.538406,796.455556 C668.238406,813.155556 684.838406,829.755556 701.538406,846.455556 C701.538406,822.055556 701.538406,797.555556 701.538406,773.155556 C701.538406,717.255556 701.538406,661.355556 701.538406,605.455556 C701.538406,543.055556 701.538406,480.655556 701.538406,418.155556 C701.538406,375.155556 701.538406,332.155556 701.538406,289.255556 C701.538406,282.355556 701.838406,275.455556 701.438406,268.555556 C700.038406,238.155556 679.438406,209.755556 648.838406,203.155556 C640.338406,201.355556 633.038406,201.155556 624.738406,201.155556 C610.238406,201.155556 595.738406,201.155556 581.238406,201.155556 C577.838406,201.155556 574.438406,201.155556 571.038406,201.155556 C587.738406,217.855556 604.338406,234.455556 621.038406,251.155556 C621.038406,230.455556 621.038406,209.755556 621.038406,188.955556 C621.038406,156.155556 621.038406,123.355556 621.038406,90.5555556 C621.038406,82.4555556 620.338406,74.0555556 621.238406,66.0555556 C620.638406,70.4555556 620.038406,74.9555556 619.438406,79.3555556 C619.738406,77.9555556 620.038406,76.7555556 620.438406,75.4555556 C618.738406,79.4555556 617.038406,83.4555556 615.438406,87.3555556 C616.138406,85.6555556 616.938406,84.2555556 617.938406,82.7555556 C615.338406,86.1555556 612.738406,89.4555556 610.138406,92.8555556 C611.238406,91.4555556 612.438406,90.2555556 613.838406,89.1555556 C610.438406,91.7555556 607.138406,94.3555556 603.738406,96.9555556 C605.238406,95.9555556 606.638406,95.1555556 608.338406,94.4555556 C604.338406,96.1555556 600.338406,97.8555556 596.438406,99.4555556 C597.738406,99.0555556 598.938406,98.6555556 600.338406,98.4555556 C595.938406,99.0555556 591.438406,99.6555556 587.038406,100.255556 C596.738406,99.1555556 606.938406,100.055556 616.738406,100.055556 C638.638406,100.055556 660.638406,100.055556 682.538406,100.055556 C732.238406,100.055556 781.838406,100.055556 831.538406,100.055556 C843.338406,100.055556 855.738406,98.9555556 867.438406,100.255556 C863.038406,99.6555556 858.538406,99.0555556 854.138406,98.4555556 C855.538406,98.7555556 856.738406,99.0555556 858.038406,99.4555556 C854.038406,97.7555556 850.038406,96.0555556 846.138406,94.4555556 C847.838406,95.1555556 849.238406,95.9555556 850.738406,96.9555556 C847.338406,94.3555556 844.038406,91.7555556 840.638406,89.1555556 C842.038406,90.2555556 843.238406,91.4555556 844.338406,92.8555556 C841.738406,89.4555556 839.138406,86.1555556 836.538406,82.7555556 C837.538406,84.2555556 838.338406,85.6555556 839.038406,87.3555556 C837.338406,83.3555556 835.638406,79.3555556 834.038406,75.4555556 C834.438406,76.7555556 834.838406,77.9555556 835.038406,79.3555556 C834.438406,74.9555556 833.838406,70.4555556 833.238406,66.0555556 C833.338406,67.1555556 833.438406,68.0555556 833.438406,69.0555556 C833.938406,82.1555556 838.638406,95.0555556 848.038406,104.455556 C856.738406,113.155556 870.938406,119.655556 883.438406,119.055556 C896.338406,118.455556 909.738406,114.255556 918.838406,104.455556 C927.638406,94.8555556 933.938406,82.4555556 933.438406,69.0555556 C932.538406,45.0555556 921.038406,22.7555556 900.138406,10.1555556 C889.238406,3.55555556 877.038406,0.655555556 864.338406,0.355555556 C861.438406,0.255555556 858.538406,0.355555556 855.638406,0.355555556 C840.738406,0.355555556 825.938406,0.355555556 811.038406,0.355555556 C765.138406,0.355555556 719.138406,0.355555556 673.238406,0.355555556 C645.538406,0.355555556 617.738406,-0.444444444 590.038406,0.355555556 C571.938406,0.855555556 556.938406,7.25555556 543.238406,18.7555556 C537.438406,23.6555556 532.338406,30.3555556 529.138406,37.1555556 C523.838406,48.4555556 521.538406,56.2555556 521.038406,69.1555556 C520.938406,72.4555556 521.038406,75.8555556 521.038406,79.1555556 C521.038406,97.6555556 521.038406,116.155556 521.038406,134.655556 C521.038406,172.855556 521.038406,210.955556 521.038406,249.155556 C521.038406,249.955556 521.038406,250.655556 521.038406,251.455556 C521.038406,278.455556 543.938406,301.455556 571.038406,301.455556 C581.638406,301.455556 592.238406,301.455556 602.838406,301.455556 C613.538406,301.455556 624.738406,300.455556 635.438406,301.655556 C631.038406,301.055556 626.538406,300.455556 622.138406,299.855556 C623.538406,300.155556 624.738406,300.455556 626.038406,300.855556 C622.038406,299.155556 618.038406,297.455556 614.138406,295.855556 C615.838406,296.555556 617.238406,297.355556 618.738406,298.355556 C615.338406,295.755556 612.038406,293.155556 608.638406,290.555556 C610.038406,291.655556 611.238406,292.855556 612.338406,294.255556 C609.738406,290.855556 607.138406,287.555556 604.538406,284.155556 C605.538406,285.655556 606.338406,287.055556 607.038406,288.755556 C605.338406,284.755556 603.638406,280.755556 602.038406,276.855556 C602.438406,278.155556 602.838406,279.355556 603.038406,280.755556 C602.438406,276.355556 601.838406,271.855556 601.238406,267.455556 C601.838406,273.255556 601.438406,279.255556 601.438406,285.155556 C601.438406,299.055556 601.438406,312.855556 601.438406,326.755556 C601.438406,372.655556 601.438406,418.655556 601.438406,464.555556 C601.438406,520.155556 601.438406,575.655556 601.438406,631.255556 C601.438406,679.355556 601.438406,727.455556 601.438406,775.455556 C601.438406,798.855556 601.138406,822.255556 601.438406,845.655556 C601.438406,845.955556 601.438406,846.355556 601.438406,846.655556 C601.438406,873.655556 624.338406,896.655556 651.438406,896.655556 C677.638406,896.655556 703.838406,896.655556 730.038406,896.655556 C771.538406,896.655556 813.138406,896.655556 854.638406,896.655556 C864.238406,896.655556 873.738406,896.655556 883.338406,896.655556 C910.338406,896.655556 933.338406,873.755556 933.338406,846.655556 C933.338406,839.755556 933.338406,832.755556 933.338406,825.855556 C933.338406,806.955556 933.338406,788.055556 933.338406,769.255556 C933.338406,741.355556 933.338406,713.455556 933.338406,685.555556 C933.338406,651.655556 933.338406,617.755556 933.338406,583.855556 C933.338406,546.555556 933.338406,509.255556 933.338406,471.955556 C933.338406,434.355556 933.338406,396.655556 933.338406,359.055556 C933.338406,323.955556 933.338406,288.855556 933.338406,253.755556 C933.338406,224.055556 933.338406,194.455556 933.338406,164.755556 C933.338406,143.455556 933.338406,122.255556 933.338406,100.955556 C933.338406,90.8555556 933.438406,80.6555556 933.338406,70.5555556 C933.338406,70.1555556 933.338406,69.6555556 933.338406,69.2555556 C933.338406,56.4555556 927.738406,42.9555556 918.738406,33.8555556 C910.038406,25.1555556 895.838406,18.6555556 883.338406,19.2555556 C870.438406,19.8555556 857.038406,24.0555556 847.938406,33.8555556 C839.038406,43.4555556 833.438406,55.4555556 833.438406,69.0555556 Z" id="Path"></path>
</svg>