<svg class="icon" width="24" height="24" viewBox="0 0 1024 1024" version="1.1" xmlns="http://www.w3.org/2000/svg">
	<path d="M160.788521 761.54345" p-id="2299"></path>
	<path d="M863.765087 510.780219 678.771793 510.780219c-45.856397-32.428573-104.777345-50.226938-166.771281-50.226938-81.672114 0-150.684908-46.006823-150.684908-100.453876s69.012793-100.458993 150.684908-100.458993c81.670068 0 150.681838 46.01194 150.681838 100.458993l100.457969 0c0-55.626925-28.782533-109.123326-78.932724-146.742109-46.587038-34.93465-107.739816-54.17076-172.207084-54.17076-64.466244 0-125.623116 19.23611-172.207084 54.17076-50.15326 37.619806-78.932724 91.116207-78.932724 146.742109 0 55.626925 28.751834 109.119233 78.932724 146.739039 1.786693 1.339508 3.601015 2.648316 5.429663 3.940752L160.788521 510.779196l0 50.232055 351.21199 0c81.670068 0 150.681838 46.007847 150.681838 100.4549 0 54.44603-69.01177 100.45183-150.681838 100.45183-81.672114 0-150.684908-46.0058-150.684908-100.45183l-100.4549 0c0 55.625902 28.751834 109.117187 78.932724 146.742109 46.583968 34.930557 107.74084 54.17076 172.207084 54.17076 64.467267 0 125.620046-19.240203 172.207084-54.17076 50.15019-37.625946 78.932724-91.116207 78.932724-146.742109 0-35.554774-11.776208-70.230528-33.357735-100.4549l133.981481 0L863.764064 510.780219z" p-id="2300" data-spm-anchor-id="a313x.7781069.0.i0" class="selected"></path>
</svg>